<svg width="601" height="336" viewBox="0 0 601 336" fill="none" xmlns="http://www.w3.org/2000/svg">
<path d="M493.58 334.857H438.294C436.971 334.857 435.898 333.784 435.898 332.461V263.079C435.898 261.756 436.971 260.683 438.294 260.683H509.905C511.228 260.683 512.301 261.756 512.301 263.079V312.196C512.301 312.743 512.114 313.273 511.771 313.699L495.446 333.964C494.991 334.528 494.305 334.857 493.58 334.857Z" fill="#4338CA"/>
<path d="M330.701 320.986L275.698 326.577C274.382 326.711 273.206 325.753 273.072 324.436L266.055 255.41C265.921 254.094 266.88 252.918 268.197 252.784L339.44 245.542C340.757 245.408 341.933 246.367 342.067 247.683L347.034 296.548C347.089 297.092 346.957 297.639 346.659 298.097L332.467 319.909C332.071 320.517 331.422 320.913 330.701 320.986Z" fill="#1D4ED8"/>
<path d="M202.937 187.812L148.345 179.083C147.039 178.874 146.149 177.645 146.358 176.338L157.313 107.827C157.522 106.521 158.75 105.631 160.057 105.84L230.77 117.147C232.076 117.356 232.966 118.584 232.757 119.891L225.002 168.391C224.916 168.931 224.647 169.426 224.241 169.792L204.921 187.225C204.383 187.711 203.653 187.926 202.937 187.812Z" fill="#BE185D"/>
<path d="M265.78 254.373C247.655 253.232 206.92 237.946 188.974 185.932" stroke="#C7D2FE" stroke-width="2" stroke-dasharray="4 6"/>
<path d="M121.56 303.831H66.2745C64.9512 303.831 63.8784 302.758 63.8784 301.435V232.054C63.8784 230.73 64.9512 229.658 66.2745 229.658H137.885C139.209 229.658 140.281 230.73 140.281 232.054V281.17C140.281 281.717 140.094 282.247 139.751 282.673L123.426 302.938C122.971 303.503 122.285 303.831 121.56 303.831Z" fill="#F59E0B"/>
<path d="M420.878 137.737L366.363 128.538C365.058 128.318 364.179 127.082 364.399 125.777L375.943 57.3627C376.163 56.0578 377.4 55.1785 378.704 55.3987L449.317 67.3139C450.622 67.534 451.501 68.7703 451.281 70.0752L443.109 118.507C443.018 119.046 442.745 119.538 442.336 119.901L422.866 137.167C422.324 137.648 421.593 137.858 420.878 137.737Z" fill="#4338CA"/>
<path d="M514.068 290.494C526.616 295.691 545.019 285.856 553.232 273.384C561.445 260.913 572.243 244.233 572.243 228.897" stroke="#C7D2FE" stroke-width="2" stroke-dasharray="4 6"/>
<path d="M228.137 144.867C241.825 152.218 274.677 162.509 296.578 144.867C318.479 127.224 344.486 120.532 354.753 119.392M395.817 144.867C387.832 159.062 376.654 190.57 395.817 203.042C419.772 218.631 476.045 211.787 474.525 259.696M76.0454 42.2052C85.8046 40.0506 104.943 40.8364 103.422 61.2166C101.521 86.6919 89.3534 144.867 149.429 144.867" stroke="#C7D2FE" stroke-width="2" stroke-dasharray="4 6"/>
<path d="M187.072 191.255C192.902 210.52 191.863 251.483 141.064 261.217" stroke="#C7D2FE" stroke-width="2" stroke-dasharray="4 6"/>
<circle cx="579.139" cy="227.823" r="20.9639" fill="#C7D2FE"/>
<path d="M588.434 225.299C588.794 225.299 588.973 225.493 588.973 225.88V228.451C588.973 229.004 588.655 229.281 588.019 229.281H581.259V236.456C581.259 236.816 581.065 236.995 580.678 236.995H578.065C577.54 236.995 577.277 236.678 577.277 236.042V229.281H570.268C569.991 229.281 569.798 229.226 569.687 229.115C569.576 229.004 569.521 228.825 569.521 228.576V225.963C569.521 225.52 569.701 225.299 570.06 225.299H577.277V218.29C577.277 218.013 577.332 217.82 577.443 217.709C577.554 217.598 577.733 217.543 577.982 217.543H580.595C581.038 217.543 581.259 217.723 581.259 218.082V225.299H588.434Z" fill="#4338CA"/>
<path d="M57.6817 74.1727H2.39606C1.07275 74.1727 0 73.0999 0 71.7766V2.39532C0 1.07202 1.07275 -0.000732422 2.39605 -0.000732422H74.0069C75.3303 -0.000732422 76.403 1.07202 76.403 2.39533V51.5119C76.403 52.0588 76.2159 52.5892 75.8728 53.015L59.5476 73.2798C59.0927 73.8444 58.4067 74.1727 57.6817 74.1727Z" fill="#15803D"/>
</svg>
