<svg width="566" height="317" viewBox="0 0 566 317" fill="none" xmlns="http://www.w3.org/2000/svg">
<path d="M465.613 315.882H413.452C412.207 315.882 411.197 314.872 411.197 313.627V248.166C411.197 246.921 412.207 245.911 413.452 245.911H481.016C482.261 245.911 483.271 246.921 483.271 248.166V294.507C483.271 295.021 483.095 295.521 482.772 295.921L467.369 315.041C466.941 315.573 466.295 315.882 465.613 315.882Z" fill="#4338CA"/>
<path d="M311.963 302.797L260.07 308.072C258.831 308.198 257.724 307.296 257.598 306.057L250.978 240.932C250.852 239.693 251.754 238.586 252.993 238.461L320.211 231.627C321.45 231.501 322.556 232.404 322.682 233.642L327.369 279.746C327.421 280.258 327.296 280.772 327.015 281.203L313.625 301.783C313.253 302.355 312.642 302.728 311.963 302.797Z" fill="#1D4ED8"/>
<path d="M191.44 177.17L139.933 168.934C138.704 168.737 137.866 167.581 138.063 166.352L148.399 101.712C148.595 100.482 149.752 99.6449 150.981 99.8415L217.698 110.51C218.927 110.706 219.765 111.862 219.568 113.092L212.251 158.852C212.17 159.36 211.917 159.825 211.535 160.17L193.307 176.618C192.8 177.075 192.114 177.278 191.44 177.17Z" fill="#BE185D"/>
<path d="M250.719 239.958C233.622 238.882 195.195 224.463 178.265 175.395" stroke="#4F46E5" stroke-width="2" stroke-dasharray="4 6"/>
<path d="M114.674 286.614H62.513C61.2678 286.614 60.2583 285.604 60.2583 284.359V218.898C60.2583 217.653 61.2678 216.644 62.513 216.644H130.077C131.322 216.644 132.332 217.653 132.332 218.898V265.239C132.332 265.754 132.156 266.253 131.833 266.654L116.43 285.774C116.002 286.305 115.356 286.614 114.674 286.614Z" fill="#F59E0B"/>
<path d="M386.959 142.126L335.525 133.447C334.297 133.24 333.47 132.077 333.677 130.849L344.569 66.3007C344.776 65.0728 345.939 64.2454 347.167 64.4526L413.789 75.6944C415.017 75.9016 415.845 77.065 415.638 78.2929L407.927 123.988C407.841 124.495 407.585 124.958 407.2 125.299L388.83 141.59C388.32 142.043 387.632 142.24 386.959 142.126Z" fill="#4338CA"/>
<path d="M484.938 274.033C496.774 278.935 514.135 269.657 521.882 257.892C529.63 246.128 539.816 230.393 539.816 215.927" stroke="#4F46E5" stroke-width="2" stroke-dasharray="4 6"/>
<path d="M215.209 136.658C228.122 143.592 259.112 153.3 279.772 136.658C300.432 120.015 324.966 113.702 334.65 112.626M373.388 136.658C365.855 150.048 355.31 179.771 373.388 191.536C395.985 206.242 449.07 199.786 447.635 244.979M71.7363 39.8134C80.9425 37.7809 98.9962 38.5222 97.5614 57.7475C95.768 81.7792 84.2902 136.658 140.962 136.658" stroke="#4F46E5" stroke-width="2" stroke-dasharray="4 6"/>
<path d="M176.471 180.417C181.971 198.59 180.991 237.232 133.071 246.414" stroke="#4F46E5" stroke-width="2" stroke-dasharray="4 6"/>
<circle cx="546.273" cy="214.851" r="19.7275" fill="#334155"/>
<path d="M555.02 212.953C555.358 212.953 555.527 213.135 555.527 213.499V215.919C555.527 216.439 555.228 216.7 554.629 216.7H548.267V223.452C548.267 223.79 548.085 223.959 547.721 223.959H545.262C544.768 223.959 544.521 223.66 544.521 223.061V216.7H537.924C537.664 216.7 537.482 216.647 537.378 216.543C537.274 216.439 537.222 216.27 537.222 216.036V213.577C537.222 213.161 537.391 212.953 537.729 212.953H544.521V206.357C544.521 206.096 544.573 205.914 544.677 205.81C544.781 205.706 544.95 205.654 545.184 205.654H547.643C548.059 205.654 548.267 205.823 548.267 206.161V212.953H555.02Z" fill="white"/>
<path d="M54.4157 69.9695H2.25474C1.00948 69.9695 0 68.96 0 67.7148V2.25401C0 1.00875 1.00948 -0.000732422 2.25474 -0.000732422H69.8188C71.064 -0.000732422 72.0735 1.00875 72.0735 2.25401V48.5948C72.0735 49.1094 71.8975 49.6085 71.5746 50.0093L56.1716 69.1293C55.7435 69.6606 55.098 69.9695 54.4157 69.9695Z" fill="#15803D"/>
</svg>
