<svg width="416" height="366" viewBox="0 0 416 366" fill="none" xmlns="http://www.w3.org/2000/svg">
<g clip-path="url(#clip0_334_11338)">
<path d="M56.1001 19.9951L58.9809 40.0087L53.3333 47.5557L47.6698 55.1237L27.6747 58.0019L7.66113 60.8828L3.83064 34.2719L0.000148964 7.661L26.611 3.83051L53.2219 2.04135e-05L56.1001 19.9951Z" fill="#4F46E5"/>
<path d="M17.185 27.9938C17.1759 27.93 17.1883 27.8753 17.2225 27.8297C17.2646 27.783 17.3215 27.7544 17.3933 27.7441L24.2595 26.7557C24.419 26.7328 24.5091 26.7931 24.5298 26.9366L24.6899 28.0491C24.7071 28.1687 24.644 28.2388 24.5004 28.2595L22.2635 28.5815C22.1758 28.5941 22.1377 28.6403 22.1491 28.7201L23.1599 35.7418C23.1817 35.8933 23.1248 35.9789 22.9892 35.9984L21.2787 36.2446C21.159 36.2618 21.0895 36.2026 21.07 36.0671L20.0609 29.0573C20.0529 29.0015 20.0352 28.9633 20.0078 28.9428C19.9884 28.9212 19.9548 28.9138 19.907 28.9207L17.5983 29.253C17.4468 29.2748 17.3624 29.2259 17.3452 29.1063L17.185 27.9938ZM26.6946 32.7788C26.7589 33.2254 26.9587 33.567 27.2939 33.8036C27.636 34.0312 28.0303 34.1128 28.4769 34.0485C28.764 34.0072 29.0186 33.9095 29.2406 33.7554C29.4694 33.5922 29.6868 33.3493 29.8927 33.0266C29.92 32.9901 29.9496 32.9696 29.9815 32.965C30.0054 32.9616 30.047 32.9678 30.1063 32.9837L31.0192 33.2186C31.0785 33.2345 31.1121 33.2703 31.1202 33.3261C31.1259 33.366 31.1157 33.4082 31.0895 33.4526C30.7848 34.05 30.4292 34.4919 30.0227 34.7784C29.6151 35.0568 29.0844 35.2431 28.4304 35.3372C27.8164 35.4256 27.2426 35.3698 26.7092 35.1699C26.1757 34.9699 25.735 34.6508 25.387 34.2125C25.0378 33.7662 24.8185 33.232 24.729 32.61C24.6325 31.9401 24.6911 31.3293 24.9048 30.7776C25.1172 30.2179 25.4466 29.7635 25.8929 29.4144C26.3471 29.0641 26.8654 28.847 27.4475 28.7632C28.0536 28.676 28.6114 28.7341 29.1209 28.9375C29.6293 29.1329 30.0513 29.4629 30.3868 29.9275C30.7222 30.392 30.9399 30.9711 31.0398 31.6649C31.0547 31.7686 31.0531 31.8421 31.0349 31.8854C31.0247 31.9276 30.9723 31.9596 30.8778 31.9813L26.8106 32.5667C26.7149 32.5805 26.6763 32.6512 26.6946 32.7788ZM28.9268 31.2365C29.0146 31.2239 29.0692 31.2079 29.0909 31.1885C29.1113 31.1611 29.1164 31.1115 29.1061 31.0398C29.0762 30.8324 28.9985 30.632 28.873 30.4384C28.7475 30.2448 28.5832 30.0935 28.3803 29.9843C28.1774 29.8751 27.9443 29.8395 27.6811 29.8774C27.2824 29.9348 26.9755 30.1214 26.7605 30.4372C26.5455 30.7531 26.4735 31.1297 26.5447 31.5672L28.9268 31.2365ZM38.0881 33.4098C38.2021 33.5237 38.2638 33.6125 38.2729 33.6763C38.2844 33.756 38.2144 33.8068 38.0629 33.8286L36.5317 34.049C36.3403 34.0765 36.1956 34.0323 36.0975 33.9161L34.6157 32.359C34.537 32.2645 34.4817 32.2196 34.4498 32.2242C34.4179 32.2287 34.3769 32.2835 34.3269 32.3884L33.3223 34.3156C33.2609 34.4547 33.1385 34.5374 32.9551 34.5638L31.9742 34.705C31.7828 34.7326 31.6791 34.6905 31.663 34.5789C31.6504 34.4912 31.6833 34.3806 31.7618 34.2472L33.3602 31.4408C33.3977 31.3622 33.4136 31.3029 33.4079 31.263C33.3999 31.2072 33.3622 31.1434 33.2949 31.0717L30.9782 28.719C30.9406 28.6837 30.9177 28.6382 30.9097 28.5823C30.9028 28.5345 30.9164 28.4878 30.9506 28.4422C30.9847 28.3965 31.0377 28.3686 31.1094 28.3582L32.5688 28.1482C32.6725 28.1332 32.7505 28.1383 32.803 28.1633C32.8622 28.1792 32.921 28.2196 32.9791 28.2845L34.3172 29.6914C34.3662 29.7494 34.4067 29.7762 34.4386 29.7716C34.4625 29.7681 34.4899 29.7316 34.5205 29.6621L35.3476 27.9435C35.3852 27.8649 35.4261 27.8101 35.4705 27.7793C35.5218 27.7394 35.6032 27.7114 35.7148 27.6953L36.7914 27.5403C36.927 27.5208 37.0005 27.5509 37.012 27.6307C37.0177 27.6706 37.0013 27.7258 36.9626 27.7965L35.5281 30.4694C35.4883 30.5321 35.4724 30.5914 35.4804 30.6472C35.4862 30.6871 35.5232 30.7469 35.5917 30.8266L38.0881 33.4098ZM40.6665 28.2768C40.5788 28.2894 40.5418 28.3436 40.5556 28.4393L40.9705 31.3222C41.0096 31.5933 41.1015 31.7795 41.2463 31.8807C41.39 31.974 41.6014 32.0006 41.8805 31.9604L42.5264 31.8674C42.5823 31.8594 42.629 31.873 42.6666 31.9083C42.7031 31.9356 42.726 31.9811 42.7351 32.0449L42.8282 32.7764C42.8512 32.9359 42.7772 33.0442 42.6064 33.1013C42.2783 33.1974 41.8073 33.2896 41.1932 33.378C40.635 33.4584 40.1814 33.3893 39.8325 33.1709C39.4836 32.9525 39.273 32.5921 39.2007 32.0897L38.7186 28.7403C38.7014 28.6207 38.6409 28.5684 38.5372 28.5833L37.8076 28.6883C37.656 28.7101 37.5705 28.6533 37.551 28.5177L37.4236 27.6325C37.4064 27.5129 37.4695 27.4427 37.6131 27.4221L38.4385 27.3033C38.5023 27.2941 38.5358 27.2445 38.5391 27.1545L38.4449 25.3121C38.4413 25.1742 38.4914 25.0979 38.595 25.0829L39.8989 24.8952C39.9547 24.8872 40.0015 24.9008 40.0391 24.9361C40.0847 24.9702 40.1127 25.0232 40.123 25.095L40.3813 26.8893C40.3928 26.969 40.4384 27.0032 40.5181 26.9917L41.7742 26.8109C41.9177 26.7902 41.9987 26.8437 42.017 26.9713L42.1444 27.8565C42.164 27.9921 42.094 28.0713 41.9345 28.0943L40.6665 28.2768Z" fill="white"/>
<path d="M199.672 210.312C200.062 210.702 200.696 210.702 201.086 210.312L207.45 203.948C207.841 203.557 207.841 202.924 207.45 202.534C207.06 202.143 206.426 202.143 206.036 202.534L200.379 208.19L194.722 202.534C194.332 202.143 193.699 202.143 193.308 202.534C192.917 202.924 192.917 203.557 193.308 203.948L199.672 210.312ZM41.0112 70.0872C40.9627 70.7875 40.9252 71.4892 40.903 72.1902L42.902 72.2534C42.9233 71.5812 42.9593 70.9049 43.0064 70.2254L41.0112 70.0872ZM41.252 78.5666C41.4841 79.9878 41.8399 81.3884 42.3594 82.7513L44.2282 82.0389C43.7631 80.8187 43.4392 79.5509 43.2258 78.2442L41.252 78.5666ZM45.7299 88.3358C46.6393 89.3673 47.7015 90.3456 48.9363 91.2631L50.1291 89.6578C49.0007 88.8193 48.0426 87.9348 47.2302 87.0132L45.7299 88.3358ZM54.4907 94.4383C55.7066 94.9752 57.0231 95.4765 58.4477 95.9398L59.0662 94.0379C57.7004 93.5937 56.4475 93.1161 55.2987 92.6087L54.4907 94.4383ZM64.56 97.5472C65.8581 97.8197 67.2242 98.0689 68.6616 98.2937L68.9705 96.3177C67.5649 96.0979 66.2329 95.8548 64.9709 95.5899L64.56 97.5472ZM74.8728 99.0666C76.208 99.1945 77.5941 99.3052 79.033 99.3979L79.1616 97.4021C77.7424 97.3106 76.377 97.2016 75.0636 97.0757L74.8728 99.0666ZM85.2556 99.6766C85.9469 99.695 86.6488 99.7098 87.3613 99.721L87.3928 97.7213C86.6874 97.7102 85.9928 97.6955 85.3089 97.6773L85.2556 99.6766ZM128.285 61.7536C128.285 61.2742 128.341 60.6911 128.463 60.0173L126.495 59.6613C126.357 60.421 126.285 61.1265 126.285 61.7536H128.285ZM130.178 54.7115C130.657 53.6255 131.228 52.4939 131.892 51.3475L130.161 50.3457C129.461 51.555 128.857 52.7515 128.348 53.904L130.178 54.7115ZM135.102 46.6825C135.88 45.724 136.725 44.7864 137.636 43.888L136.232 42.4636C135.265 43.4168 134.371 44.4096 133.549 45.4224L135.102 46.6825ZM141.986 40.3091C143.006 39.6192 144.084 38.9852 145.219 38.4214L144.329 36.6303C143.11 37.2355 141.956 37.9149 140.866 38.6526L141.986 40.3091ZM150.47 36.4675C151.646 36.1666 152.871 35.939 154.146 35.7954L153.922 33.808C152.555 33.9619 151.239 34.2063 149.974 34.5299L150.47 36.4675ZM159.764 35.7142C160.969 35.8093 162.212 35.9764 163.494 36.2227L163.871 34.2586C162.519 33.9988 161.202 33.8215 159.921 33.7204L159.764 35.7142ZM168.975 37.6975C170.128 38.0933 171.308 38.5505 172.516 39.0732L173.31 37.2379C172.057 36.6952 170.829 36.2191 169.625 35.8058L168.975 37.6975ZM177.649 41.6113C178.725 42.2077 179.821 42.8541 180.935 43.5531L181.998 41.8587C180.854 41.1413 179.728 40.4765 178.619 39.862L177.649 41.6113ZM185.711 46.7904C186.711 47.5181 187.726 48.2866 188.754 49.0975L189.993 47.527C188.945 46.7006 187.91 45.9164 186.888 45.1731L185.711 46.7904ZM193.193 52.7873C193.682 53.2145 194.174 53.6509 194.669 54.0968L196.007 52.6109C195.505 52.1583 195.005 51.7151 194.509 51.2811L193.193 52.7873ZM270.119 62.307C270.485 62.8583 270.887 63.4128 271.324 63.9677L272.896 62.7311C272.49 62.2156 272.12 61.7047 271.786 61.2012L270.119 62.307ZM275.532 68.387C276.503 69.2503 277.551 70.0997 278.671 70.9243L279.857 69.3142C278.785 68.5246 277.785 67.7136 276.861 66.8923L275.532 68.387ZM283.754 74.2036C284.901 74.8498 286.097 75.4655 287.337 76.0432L288.181 74.2303C286.988 73.6744 285.838 73.0822 284.735 72.461L283.754 74.2036ZM292.952 78.2792C294.208 78.6982 295.497 79.0754 296.815 79.4047L297.3 77.4644C296.033 77.1477 294.793 76.785 293.584 76.3819L292.952 78.2792ZM302.755 80.5214C304.074 80.6888 305.415 80.8056 306.774 80.8667L306.864 78.8687C305.56 78.8101 304.273 78.698 303.007 78.5373L302.755 80.5214ZM312.821 80.7631C314.146 80.6575 315.484 80.4958 316.832 80.2738L316.506 78.3004C315.215 78.5132 313.932 78.6682 312.662 78.7694L312.821 80.7631ZM322.721 78.9229C323.991 78.5478 325.266 78.1158 326.544 77.6236L325.825 75.7573C324.597 76.2302 323.373 76.6449 322.155 77.0048L322.721 78.9229ZM332.033 75.1364C333.199 74.5268 334.364 73.8637 335.528 73.1446L334.477 71.4431C333.354 72.1373 332.229 72.7769 331.106 73.3642L332.033 75.1364ZM340.49 69.7243C341.531 68.9291 342.569 68.0859 343.604 67.1929L342.297 65.6791C341.292 66.5463 340.285 67.3643 339.276 68.1347L340.49 69.7243ZM347.975 63.0902C348.891 62.159 349.802 61.1857 350.708 60.1692L349.215 58.8384C348.33 59.831 347.441 60.7803 346.549 61.6877L347.975 63.0902ZM354.541 55.5646C354.952 55.0367 355.362 54.4992 355.77 53.9519L354.167 52.7558C353.767 53.2922 353.366 53.8188 352.963 54.3358L354.541 55.5646ZM345.939 154.309C346.588 154.168 347.228 154.02 347.86 153.867L347.387 151.923C346.771 152.073 346.147 152.217 345.514 152.354L345.939 154.309ZM353.488 152.263C354.755 151.847 355.983 151.403 357.173 150.933L356.439 149.073C355.286 149.528 354.094 149.959 352.863 150.363L353.488 152.263ZM362.528 148.529C363.719 147.925 364.866 147.292 365.969 146.635L364.945 144.917C363.881 145.551 362.774 146.162 361.623 146.746L362.528 148.529ZM370.858 143.354C371.922 142.553 372.936 141.726 373.902 140.877L372.582 139.375C371.654 140.19 370.679 140.985 369.654 141.757L370.858 143.354ZM378.097 136.734C378.991 135.742 379.829 134.731 380.615 133.706L379.027 132.489C378.273 133.473 377.468 134.444 376.611 135.396L378.097 136.734ZM383.915 128.822C384.596 127.674 385.219 126.517 385.788 125.358L383.992 124.477C383.446 125.59 382.848 126.7 382.195 127.802L383.915 128.822ZM388.071 119.919C388.516 118.657 388.901 117.403 389.232 116.163L387.3 115.648C386.982 116.838 386.612 118.042 386.184 119.254L388.071 119.919ZM390.41 110.383C390.6 109.036 390.725 107.723 390.793 106.457L388.796 106.35C388.731 107.558 388.611 108.813 388.429 110.103L390.41 110.383ZM390.669 100.52C390.598 99.8383 390.509 99.1815 390.401 98.5522L388.43 98.8901C388.53 99.4732 388.613 100.086 388.679 100.725L390.669 100.52ZM201.379 209.605C201.379 208.945 201.382 208.293 201.387 207.647L199.387 207.631C199.382 208.282 199.379 208.94 199.379 209.605H201.379ZM201.503 201.872C201.546 200.562 201.601 199.282 201.665 198.031L199.668 197.927C199.603 199.191 199.548 200.484 199.504 201.806L201.503 201.872ZM202.054 192.276C202.164 190.965 202.287 189.69 202.422 188.451L200.434 188.234C200.297 189.491 200.173 190.782 200.061 192.109L202.054 192.276ZM203.159 182.766C203.357 181.459 203.57 180.198 203.796 178.98L201.83 178.614C201.599 179.855 201.383 181.138 201.181 182.466L203.159 182.766ZM205.008 173.364C205.326 172.08 205.662 170.855 206.012 169.685L204.096 169.111C203.736 170.313 203.393 171.569 203.067 172.882L205.008 173.364ZM207.884 164.285C208.377 163.051 208.889 161.897 209.417 160.818L207.62 159.939C207.07 161.065 206.538 162.264 206.027 163.543L207.884 164.285ZM212.243 155.921C212.992 154.824 213.758 153.843 214.533 152.966L213.035 151.642C212.202 152.583 211.386 153.63 210.591 154.792L212.243 155.921ZM218.651 149.255C219.725 148.507 220.794 147.914 221.842 147.449L221.03 145.621C219.867 146.137 218.686 146.793 217.507 147.615L218.651 149.255ZM227.121 146.027C227.755 145.959 228.364 145.93 228.945 145.93V143.93C228.297 143.93 227.617 143.963 226.91 144.038L227.121 146.027ZM228.945 145.93C229.664 145.93 230.38 145.93 231.097 145.933L231.106 143.933C230.383 143.93 229.664 143.93 228.945 143.93V145.93ZM237.509 146.111C238.864 146.192 240.269 146.311 241.751 146.483L241.982 144.496C240.46 144.32 239.018 144.198 237.629 144.114L237.509 146.111ZM248.058 147.48C249.377 147.741 250.762 148.047 252.225 148.404L252.699 146.462C251.21 146.097 249.796 145.785 248.447 145.518L248.058 147.48ZM258.413 150.099C259.719 150.491 261.081 150.921 262.503 151.391L263.131 149.492C261.692 149.017 260.313 148.581 258.989 148.183L258.413 150.099ZM268.586 153.518C269.245 153.76 269.916 154.009 270.6 154.267L271.306 152.396C270.617 152.136 269.94 151.884 269.275 151.64L268.586 153.518ZM390.375 191.42C390.54 190.856 390.733 190.257 390.951 189.623L389.06 188.972C388.834 189.629 388.631 190.258 388.456 190.858L390.375 191.42ZM393.024 184.276C393.496 183.145 394.006 181.958 394.546 180.721L392.713 179.921C392.17 181.164 391.656 182.361 391.178 183.505L393.024 184.276ZM396.895 175.406C397.409 174.251 397.936 173.065 398.472 171.853L396.642 171.045C396.108 172.254 395.581 173.438 395.068 174.593L396.895 175.406ZM400.802 166.512C401.308 165.334 401.814 164.139 402.318 162.927L400.472 162.159C399.971 163.363 399.467 164.551 398.965 165.723L400.802 166.512ZM404.507 157.506C404.976 156.302 405.438 155.086 405.89 153.862L404.013 153.171C403.567 154.382 403.109 155.586 402.643 156.779L404.507 157.506ZM407.823 148.339C408.232 147.101 408.625 145.858 408.998 144.612L407.083 144.038C406.715 145.265 406.328 146.49 405.924 147.712L407.823 148.339ZM410.548 138.952C410.863 137.676 411.151 136.4 411.411 135.128L409.451 134.728C409.197 135.973 408.915 137.222 408.606 138.474L410.548 138.952ZM412.385 129.323C412.554 128.01 412.685 126.703 412.775 125.407L410.779 125.27C410.693 126.524 410.566 127.79 410.401 129.067L412.385 129.323ZM412.871 119.476C412.817 118.143 412.707 116.825 412.538 115.527L410.555 115.786C410.716 117.021 410.82 118.28 410.872 119.558L412.871 119.476ZM411.31 109.682C410.929 108.402 410.473 107.149 409.938 105.928L408.106 106.731C408.607 107.873 409.035 109.049 409.394 110.253L411.31 109.682ZM406.997 100.696C406.239 99.6183 405.4 98.5777 404.475 97.5777L403.007 98.9357C403.871 99.8704 404.654 100.842 405.361 101.846L406.997 100.696ZM400.023 93.5888C399.49 93.1917 398.939 92.8042 398.369 92.4265L397.265 94.0938C397.804 94.4513 398.325 94.8175 398.827 95.192L400.023 93.5888Z" fill="#4F46E5"/>
<path d="M333.8 149.083L330.744 169.07L323.147 174.651L315.53 180.248L295.561 177.194L275.573 174.137L279.638 147.561L283.702 120.985L310.278 125.049L336.854 129.114L333.8 149.083Z" fill="#1D4ED8"/>
<path d="M290.929 144.706C291.057 144.726 291.11 144.807 291.088 144.951L289.809 153.313C289.793 153.417 289.757 153.489 289.702 153.529C289.649 153.562 289.562 153.569 289.442 153.551L287.937 153.32C287.842 153.306 287.777 153.275 287.743 153.23C287.709 153.184 287.699 153.117 287.713 153.029L288.995 144.643C289.018 144.492 289.094 144.426 289.221 144.445L290.929 144.706ZM291.514 153.867C291.427 153.854 291.365 153.828 291.33 153.79C291.297 153.744 291.287 153.678 291.3 153.59L292.197 147.724C292.208 147.653 292.232 147.599 292.27 147.564C292.316 147.531 292.367 147.518 292.423 147.527L293.856 147.746C293.976 147.764 294.025 147.841 294.005 147.976L293.915 148.562C293.905 148.625 293.92 148.66 293.96 148.666C293.984 148.67 294.014 148.658 294.051 148.631C294.433 148.372 294.796 148.183 295.14 148.064C295.484 147.946 295.836 147.914 296.194 147.969C296.616 148.033 296.959 148.188 297.224 148.432C297.488 148.676 297.654 148.979 297.721 149.339C297.724 149.372 297.737 149.391 297.761 149.394C297.793 149.399 297.832 149.385 297.878 149.351C298.222 149.07 298.593 148.857 298.99 148.714C299.395 148.572 299.78 148.53 300.147 148.586C300.704 148.671 301.12 148.91 301.394 149.302C301.676 149.696 301.772 150.191 301.68 150.789L301.032 155.03C301.002 155.221 300.892 155.302 300.701 155.272L299.375 155.07C299.287 155.056 299.23 155.031 299.203 154.994C299.177 154.95 299.171 154.884 299.185 154.796L299.802 150.758C299.842 150.495 299.802 150.277 299.682 150.104C299.562 149.931 299.37 149.824 299.108 149.784C298.893 149.751 298.672 149.778 298.447 149.866C298.23 149.955 298.036 150.072 297.868 150.218C297.811 150.266 297.767 150.312 297.736 150.357C297.713 150.402 297.696 150.46 297.685 150.532L297.089 154.427C297.06 154.618 296.95 154.699 296.759 154.669L295.445 154.469C295.365 154.456 295.308 154.431 295.273 154.393C295.247 154.349 295.241 154.282 295.254 154.195L295.872 150.157C295.912 149.894 295.872 149.676 295.752 149.503C295.632 149.33 295.436 149.222 295.165 149.181C294.934 149.146 294.71 149.172 294.493 149.261C294.275 149.35 294.036 149.505 293.774 149.726L293.145 153.836C293.131 153.931 293.096 153.999 293.041 154.04C292.987 154.072 292.904 154.08 292.793 154.063L291.514 153.867ZM305.823 155.432C305.223 155.838 304.561 155.985 303.836 155.874C303.239 155.783 302.789 155.551 302.488 155.179C302.187 154.799 302.076 154.35 302.156 153.832C302.258 153.163 302.647 152.672 303.322 152.36C303.997 152.048 304.875 151.962 305.953 152.102L306.389 152.132C306.437 152.139 306.478 152.134 306.514 152.115C306.559 152.089 306.585 152.048 306.594 151.992L306.632 151.741C306.68 151.431 306.629 151.179 306.479 150.984C306.329 150.79 306.091 150.668 305.765 150.618C305.207 150.533 304.756 150.709 304.413 151.145C304.369 151.22 304.311 151.252 304.239 151.241C304.199 151.235 304.164 151.225 304.133 151.213L302.981 150.755C302.911 150.728 302.882 150.679 302.893 150.607C302.901 150.559 302.926 150.502 302.968 150.435C303.23 150.003 303.622 149.708 304.143 149.551C304.672 149.396 305.299 149.374 306.024 149.484C306.971 149.629 307.63 149.909 307.998 150.324C308.368 150.731 308.504 151.253 308.406 151.891L307.765 156.084C307.751 156.179 307.724 156.245 307.686 156.28C307.648 156.314 307.586 156.325 307.498 156.312L306.268 156.124C306.188 156.112 306.132 156.075 306.101 156.013C306.078 155.952 306.067 155.865 306.068 155.751L306.096 155.486C306.099 155.413 306.073 155.373 306.017 155.364C305.985 155.359 305.92 155.382 305.823 155.432ZM306.4 153.259C306.411 153.187 306.407 153.133 306.388 153.098C306.369 153.062 306.324 153.039 306.252 153.028L305.914 153.001C305.448 152.954 305.021 153.003 304.632 153.147C304.252 153.285 304.036 153.525 303.984 153.867C303.948 154.106 304.002 154.31 304.147 154.479C304.294 154.64 304.514 154.743 304.809 154.788C305.175 154.844 305.502 154.784 305.79 154.608C306.085 154.441 306.248 154.25 306.281 154.035L306.4 153.259ZM316.387 150.91C316.546 150.935 316.612 151.034 316.586 151.21L316.461 152.022C316.427 152.245 316.322 152.323 316.145 152.255C316.029 152.213 315.915 152.183 315.804 152.166C315.74 152.156 315.667 152.153 315.585 152.157C315.373 152.157 315.279 152.237 315.304 152.395C315.343 152.621 315.351 152.806 315.329 152.949C315.273 153.316 315.111 153.629 314.843 153.89C314.583 154.151 314.22 154.336 313.756 154.445C313.299 154.554 312.764 154.562 312.15 154.468C311.704 154.4 311.368 154.385 311.142 154.424C310.924 154.464 310.806 154.544 310.788 154.663C310.772 154.767 310.816 154.851 310.921 154.916C311.034 154.974 311.225 155.032 311.493 155.089L313.187 155.446C313.968 155.614 314.527 155.879 314.863 156.24C315.207 156.602 315.34 157.034 315.263 157.536C315.168 158.157 314.798 158.61 314.151 158.894C313.504 159.178 312.64 159.238 311.556 159.072C309.239 158.718 308.159 158.027 308.316 156.999C308.355 156.744 308.487 156.545 308.713 156.4C308.94 156.247 309.247 156.131 309.634 156.052C309.684 156.043 309.711 156.027 309.715 156.003C309.719 155.979 309.698 155.952 309.654 155.92C309.227 155.627 309.041 155.297 309.097 154.93C309.13 154.715 309.264 154.532 309.499 154.38C309.743 154.222 310.051 154.102 310.422 154.02C310.525 153.987 310.54 153.941 310.468 153.881C309.75 153.404 309.446 152.804 309.557 152.079C309.65 151.473 309.982 151.031 310.555 150.752C311.135 150.474 311.911 150.409 312.883 150.558C313.703 150.683 314.313 150.96 314.712 151.388C314.762 151.436 314.811 151.464 314.858 151.471C314.922 151.481 314.982 151.462 315.038 151.413C315.218 151.253 315.441 151.124 315.709 151.027C315.978 150.921 316.204 150.882 316.387 150.91ZM312.277 153.558C312.684 153.621 313 153.575 313.227 153.423C313.464 153.263 313.605 153.032 313.651 152.729C313.702 152.395 313.639 152.116 313.461 151.893C313.293 151.664 313.005 151.518 312.599 151.456C312.217 151.397 311.899 151.451 311.645 151.616C311.4 151.782 311.252 152.028 311.202 152.355C311.156 152.657 311.226 152.921 311.411 153.145C311.606 153.362 311.895 153.5 312.277 153.558ZM310.927 156.47C310.683 156.416 310.451 156.442 310.231 156.546C310.02 156.645 309.9 156.793 309.869 156.992C309.824 157.287 309.953 157.535 310.257 157.736C310.56 157.938 311.078 158.094 311.811 158.206C312.345 158.288 312.766 158.275 313.076 158.168C313.385 158.068 313.56 157.883 313.601 157.612C313.629 157.429 313.572 157.269 313.43 157.134C313.288 156.998 313.063 156.898 312.754 156.835L310.927 156.47ZM318.291 155.273C318.223 155.719 318.315 156.104 318.567 156.428C318.828 156.745 319.182 156.937 319.628 157.005C319.914 157.049 320.186 157.03 320.444 156.947C320.71 156.857 320.989 156.688 321.279 156.439C321.316 156.412 321.35 156.401 321.382 156.406C321.406 156.409 321.444 156.427 321.496 156.46L322.301 156.95C322.354 156.982 322.375 157.026 322.367 157.082C322.361 157.122 322.339 157.159 322.301 157.194C321.836 157.677 321.367 157.997 320.895 158.153C320.424 158.301 319.862 158.325 319.209 158.225C318.596 158.131 318.063 157.911 317.61 157.565C317.158 157.219 316.829 156.785 316.623 156.265C316.419 155.736 316.364 155.162 316.459 154.54C316.561 153.871 316.795 153.304 317.16 152.838C317.526 152.364 317.973 152.025 318.501 151.821C319.038 151.617 319.596 151.56 320.178 151.649C320.783 151.742 321.3 151.959 321.729 152.302C322.158 152.637 322.466 153.075 322.652 153.617C322.838 154.159 322.878 154.776 322.772 155.469C322.757 155.573 322.734 155.643 322.704 155.679C322.682 155.716 322.622 155.731 322.525 155.725L318.464 155.104C318.368 155.089 318.311 155.145 318.291 155.273ZM320.875 154.445C320.963 154.459 321.02 154.459 321.046 154.447C321.073 154.427 321.093 154.381 321.104 154.309C321.135 154.102 321.119 153.888 321.055 153.666C320.991 153.444 320.878 153.252 320.716 153.088C320.553 152.925 320.341 152.823 320.078 152.783C319.68 152.722 319.332 152.812 319.034 153.051C318.737 153.291 318.559 153.631 318.499 154.07L320.875 154.445Z" fill="white"/>
<path d="M154.59 90.7764V110.996L147.924 117.662L141.24 124.345H121.039H100.819V97.4603V70.5752H127.704H154.59V90.7764Z" fill="#BE185D"/>
<path d="M116.639 92.8107C117.251 92.8107 117.815 92.9275 118.331 93.1611C118.847 93.3948 119.27 93.713 119.6 94.1159C119.938 94.5187 120.152 94.9699 120.24 95.4694C120.257 95.5258 120.265 95.5903 120.265 95.6628C120.265 95.7111 120.253 95.7434 120.228 95.7595C120.204 95.7756 120.168 95.7877 120.12 95.7957L118.488 95.9045C118.416 95.9045 118.367 95.8924 118.343 95.8683C118.327 95.8441 118.311 95.7957 118.295 95.7232C118.206 95.2801 118.029 94.9296 117.763 94.6718C117.497 94.414 117.143 94.2851 116.699 94.2851C115.41 94.2851 114.766 95.3164 114.766 97.3789C114.766 98.4505 114.927 99.232 115.249 99.7235C115.571 100.215 116.063 100.461 116.724 100.461C117.207 100.461 117.614 100.34 117.944 100.098C118.283 99.8564 118.557 99.4616 118.766 98.9138C118.79 98.8574 118.843 98.8292 118.923 98.8292C118.971 98.8292 119.008 98.8332 119.032 98.8413L120.216 99.0951C120.329 99.1353 120.373 99.2361 120.349 99.3972C120.269 99.7436 120.079 100.118 119.781 100.521C119.491 100.924 119.08 101.274 118.548 101.573C118.017 101.871 117.38 102.02 116.639 102.02C115.809 102.02 115.084 101.826 114.464 101.44C113.851 101.045 113.38 100.497 113.05 99.796C112.719 99.087 112.554 98.2692 112.554 97.3427C112.554 96.4242 112.719 95.6225 113.05 94.9377C113.38 94.2528 113.851 93.7291 114.464 93.3666C115.084 92.996 115.809 92.8107 116.639 92.8107ZM124.393 102.02C123.757 102.02 123.193 101.883 122.701 101.609C122.218 101.327 121.839 100.936 121.565 100.437C121.291 99.937 121.154 99.369 121.154 98.7325C121.154 98.0718 121.291 97.4877 121.565 96.9801C121.847 96.4725 122.234 96.0777 122.725 95.7957C123.225 95.5137 123.785 95.3728 124.405 95.3728C125.042 95.3728 125.606 95.5178 126.097 95.8078C126.589 96.0898 126.967 96.4846 127.233 96.9922C127.507 97.4998 127.644 98.0759 127.644 98.7204C127.644 99.3569 127.507 99.9249 127.233 100.424C126.959 100.924 126.576 101.315 126.085 101.597C125.594 101.879 125.03 102.02 124.393 102.02ZM124.405 100.787C124.848 100.787 125.183 100.614 125.408 100.267C125.642 99.9128 125.759 99.3891 125.759 98.6962C125.759 97.9953 125.642 97.4676 125.408 97.113C125.183 96.7505 124.848 96.5692 124.405 96.5692C123.962 96.5692 123.624 96.7505 123.39 97.113C123.156 97.4676 123.04 97.9953 123.04 98.6962C123.04 99.3811 123.156 99.9007 123.39 100.255C123.624 100.61 123.962 100.787 124.405 100.787ZM133.126 101.899C132.957 101.899 132.873 101.818 132.873 101.657V101.319C132.873 101.254 132.852 101.222 132.812 101.222C132.788 101.222 132.752 101.238 132.703 101.27C132.47 101.496 132.212 101.677 131.93 101.814C131.656 101.951 131.326 102.02 130.939 102.02C130.182 102.02 129.569 101.738 129.102 101.174C128.643 100.61 128.413 99.8 128.413 98.7446C128.413 98.0839 128.53 97.4998 128.764 96.9922C129.005 96.4766 129.328 96.0777 129.73 95.7957C130.133 95.5137 130.576 95.3728 131.06 95.3728C131.374 95.3728 131.656 95.4251 131.906 95.5299C132.164 95.6346 132.409 95.7957 132.643 96.0133C132.699 96.0536 132.74 96.0737 132.764 96.0737C132.82 96.0737 132.848 96.0213 132.848 95.9166V93.149C132.848 93.004 132.913 92.9315 133.042 92.9315H134.516C134.573 92.9315 134.617 92.9516 134.649 92.9919C134.689 93.0322 134.71 93.0886 134.71 93.1611V101.645C134.71 101.734 134.689 101.798 134.649 101.838C134.609 101.879 134.536 101.899 134.432 101.899H133.126ZM132.848 97.1614C132.663 96.96 132.478 96.8109 132.292 96.7142C132.115 96.6175 131.914 96.5692 131.688 96.5692C131.261 96.5692 130.923 96.7465 130.673 97.101C130.423 97.4474 130.298 97.9872 130.298 98.7204C130.298 99.4616 130.419 100.005 130.661 100.352C130.903 100.69 131.237 100.86 131.664 100.86C131.986 100.86 132.264 100.755 132.498 100.545C132.732 100.328 132.848 100.078 132.848 99.796V97.1614ZM137.675 99.2401C137.675 99.6913 137.824 100.058 138.122 100.34C138.428 100.614 138.807 100.751 139.258 100.751C139.548 100.751 139.814 100.69 140.056 100.569C140.306 100.441 140.555 100.231 140.805 99.941C140.837 99.9088 140.87 99.8927 140.902 99.8927C140.926 99.8927 140.966 99.9048 141.023 99.9289L141.893 100.292C141.949 100.316 141.977 100.356 141.977 100.412C141.977 100.453 141.961 100.493 141.929 100.533C141.542 101.081 141.127 101.468 140.684 101.693C140.241 101.911 139.689 102.02 139.029 102.02C138.408 102.02 137.848 101.883 137.349 101.609C136.849 101.335 136.458 100.956 136.176 100.473C135.894 99.9813 135.753 99.4214 135.753 98.7929C135.753 98.1161 135.898 97.5199 136.189 97.0043C136.479 96.4806 136.869 96.0777 137.361 95.7957C137.86 95.5137 138.404 95.3728 138.992 95.3728C139.605 95.3728 140.148 95.5097 140.624 95.7837C141.099 96.0495 141.47 96.4363 141.736 96.9439C142.002 97.4514 142.135 98.0557 142.135 98.7567C142.135 98.8614 142.122 98.9339 142.098 98.9742C142.082 99.0145 142.026 99.0387 141.929 99.0467H137.82C137.723 99.0467 137.675 99.1112 137.675 99.2401ZM140.104 98.0315C140.193 98.0315 140.249 98.0235 140.273 98.0074C140.298 97.9832 140.31 97.9349 140.31 97.8623C140.31 97.6529 140.261 97.4434 140.165 97.2339C140.068 97.0244 139.927 96.8512 139.742 96.7142C139.556 96.5773 139.331 96.5088 139.065 96.5088C138.662 96.5088 138.332 96.6498 138.074 96.9318C137.816 97.2138 137.691 97.5763 137.699 98.0195L140.104 98.0315Z" fill="white"/>
<path d="M412.724 41.9273L414.933 62.0262L409.035 69.3797L403.122 76.7539L383.041 78.9608L362.942 81.1697L360.005 54.4454L357.068 27.7212L383.792 24.7841L410.517 21.8471L412.724 41.9273Z" fill="#BE185D"/>
<path d="M369.972 57.8154C369.892 57.8242 369.825 57.8072 369.772 57.7644C369.726 57.7208 369.699 57.6549 369.689 57.5668L368.765 49.1577C368.748 49.0055 368.808 48.9219 368.944 48.907L371.431 48.6337C371.519 48.624 371.584 48.629 371.627 48.6486C371.67 48.6682 371.707 48.7128 371.739 48.7822L374.106 53.6163C374.137 53.6777 374.169 53.7067 374.201 53.7032C374.233 53.6996 374.257 53.6645 374.274 53.5978L375.462 48.4703C375.489 48.2809 375.567 48.1791 375.695 48.165L378.278 47.8811C378.398 47.8679 378.466 47.9334 378.482 48.0776L379.406 56.4867C379.418 56.5908 379.402 56.6695 379.359 56.7229C379.316 56.7682 379.242 56.7966 379.138 56.808L377.588 56.9783C377.492 56.9889 377.422 56.9804 377.379 56.9527C377.342 56.9162 377.319 56.8539 377.309 56.7658L376.652 50.7833C376.646 50.7272 376.631 50.7005 376.607 50.7032C376.583 50.7058 376.562 50.7405 376.545 50.8072L375.104 57.0568C375.078 57.1893 375.001 57.2626 374.873 57.2767L373.876 57.3863C373.732 57.4021 373.637 57.3478 373.591 57.2231L370.86 51.5171C370.829 51.4557 370.802 51.4263 370.778 51.4289C370.745 51.4324 370.733 51.4702 370.741 51.5423L371.39 57.4407C371.399 57.5288 371.39 57.5906 371.361 57.6262C371.34 57.6529 371.285 57.671 371.197 57.6807L369.972 57.8154ZM382.274 53.7886C382.323 54.2371 382.511 54.5852 382.838 54.8329C383.173 55.0718 383.564 55.1665 384.012 55.1173C384.301 55.0856 384.558 54.9965 384.785 54.8499C385.02 54.6945 385.245 54.459 385.462 54.1434C385.49 54.1078 385.52 54.0883 385.552 54.0848C385.576 54.0821 385.618 54.0897 385.677 54.1076L386.581 54.3729C386.64 54.3908 386.672 54.4278 386.678 54.4838C386.683 54.5239 386.671 54.5657 386.644 54.6092C386.319 55.1961 385.949 55.6258 385.533 55.8985C385.116 56.1631 384.58 56.3315 383.923 56.4037C383.306 56.4715 382.735 56.3965 382.208 56.1788C381.682 55.9611 381.252 55.6273 380.919 55.1776C380.585 54.7199 380.383 54.1787 380.315 53.554C380.241 52.8813 380.32 52.2728 380.552 51.7286C380.783 51.1763 381.127 50.7332 381.585 50.3992C382.051 50.0643 382.576 49.8647 383.161 49.8005C383.769 49.7336 384.325 49.8103 384.827 50.0307C385.329 50.2431 385.739 50.587 386.059 51.0625C386.379 51.538 386.577 52.1241 386.654 52.8209C386.665 52.925 386.661 52.9984 386.641 53.0411C386.63 53.0829 386.576 53.1131 386.481 53.1316L382.397 53.5805C382.301 53.5911 382.26 53.6604 382.274 53.7886ZM384.556 52.3219C384.644 52.3122 384.7 52.298 384.722 52.2794C384.743 52.2527 384.75 52.2034 384.742 52.1313C384.719 51.923 384.648 51.7201 384.529 51.5224C384.41 51.3248 384.251 51.168 384.052 51.0521C383.853 50.9362 383.621 50.8928 383.357 50.9218C382.956 50.9658 382.643 51.142 382.418 51.4505C382.192 51.759 382.108 52.133 382.164 52.5726L384.556 52.3219ZM392.402 55.3502C392.234 55.3687 392.141 55.2979 392.123 55.1377L392.086 54.8013C392.079 54.7373 392.056 54.7074 392.016 54.7118C391.992 54.7145 391.957 54.7344 391.913 54.7718C391.705 55.0215 391.469 55.2299 391.204 55.3969C390.946 55.5629 390.625 55.6671 390.241 55.7093C389.488 55.7921 388.849 55.5787 388.323 55.0691C387.804 54.5587 387.488 53.7789 387.372 52.7297C387.3 52.073 387.353 51.4796 387.529 50.9496C387.713 50.4106 387.99 49.979 388.36 49.6546C388.729 49.3303 389.154 49.1418 389.635 49.0889C389.947 49.0546 390.233 49.0759 390.493 49.1527C390.761 49.2286 391.023 49.362 391.279 49.5527C391.339 49.5866 391.381 49.6022 391.405 49.5995C391.461 49.5934 391.484 49.5383 391.472 49.4341L391.17 46.6831C391.154 46.539 391.21 46.4599 391.338 46.4458L392.804 46.2847C392.86 46.2786 392.906 46.2937 392.943 46.3303C392.987 46.3659 393.013 46.4198 393.021 46.4918L393.948 54.925C393.958 55.0131 393.945 55.0794 393.909 55.1238C393.873 55.1683 393.804 55.1962 393.699 55.2076L392.402 55.3502ZM391.608 50.6715C391.402 50.4915 391.202 50.3636 391.007 50.2877C390.82 50.211 390.615 50.1849 390.39 50.2096C389.966 50.2562 389.649 50.4694 389.439 50.8491C389.229 51.2207 389.164 51.771 389.244 52.4997C389.325 53.2365 389.504 53.7639 389.782 54.0819C390.06 54.3919 390.41 54.5235 390.835 54.4769C391.155 54.4417 391.42 54.3072 391.63 54.0734C391.838 53.8317 391.927 53.5706 391.896 53.2903L391.608 50.6715ZM396.359 47.3895C396.381 47.5897 396.283 47.7017 396.067 47.7255L394.77 47.8681C394.674 47.8786 394.603 47.8661 394.559 47.8305C394.514 47.7868 394.486 47.7169 394.475 47.6208L394.336 46.3594C394.319 46.1993 394.378 46.1117 394.514 46.0967L396.004 45.933C396.06 45.9269 396.106 45.942 396.143 45.9786C396.187 46.0142 396.213 46.0681 396.221 46.1402L396.359 47.3895ZM397.12 54.5399C397.131 54.644 397.116 54.7228 397.073 54.7761C397.029 54.8214 396.948 54.8507 396.827 54.8639L395.566 55.0025C395.47 55.0131 395.4 55.0005 395.355 54.9649C395.311 54.9292 395.284 54.8674 395.274 54.7793L394.627 48.8929C394.61 48.7407 394.67 48.6572 394.806 48.6422L396.272 48.4811C396.392 48.4679 396.459 48.5294 396.474 48.6655L397.12 54.5399ZM401.921 53.684C401.447 54.2306 400.845 54.5439 400.116 54.624C399.515 54.6901 399.021 54.5823 398.634 54.3006C398.245 54.011 398.022 53.6059 397.965 53.0853C397.891 52.4126 398.14 51.8381 398.712 51.3619C399.284 50.8857 400.109 50.5762 401.187 50.4333L401.616 50.3497C401.664 50.3445 401.703 50.328 401.732 50.3005C401.768 50.2641 401.784 50.2178 401.778 50.1618L401.75 49.9095C401.715 49.5971 401.601 49.3666 401.406 49.2177C401.212 49.0689 400.95 49.0126 400.622 49.0486C400.061 49.1103 399.671 49.3963 399.452 49.9067C399.428 49.9903 399.381 50.0361 399.309 50.044C399.269 50.0484 399.232 50.0484 399.199 50.0439L397.968 49.8996C397.894 49.8915 397.853 49.8514 397.845 49.7794C397.84 49.7313 397.849 49.6695 397.873 49.5939C398.014 49.1083 398.316 48.7225 398.779 48.4365C399.25 48.1497 399.85 47.9662 400.579 47.8862C401.532 47.7814 402.24 47.8819 402.703 48.1876C403.166 48.4854 403.432 48.9546 403.502 49.5953L403.966 53.8119C403.976 53.908 403.968 53.9778 403.94 54.0214C403.913 54.0649 403.855 54.0915 403.767 54.1012L402.529 54.2372C402.449 54.246 402.386 54.2246 402.34 54.1729C402.302 54.1204 402.268 54.0389 402.24 53.9286L402.199 53.6656C402.183 53.5944 402.147 53.5619 402.091 53.5681C402.059 53.5716 402.002 53.6102 401.921 53.684ZM401.917 51.4351C401.91 51.3631 401.892 51.3123 401.864 51.2829C401.837 51.2535 401.787 51.2428 401.715 51.2507L401.381 51.3117C400.919 51.3868 400.519 51.5442 400.181 51.7841C399.849 52.015 399.703 52.3027 399.741 52.647C399.767 52.8873 399.872 53.0703 400.056 53.1959C400.239 53.3136 400.479 53.3561 400.775 53.3236C401.144 53.2831 401.444 53.1406 401.677 52.8962C401.918 52.659 402.027 52.4322 402.003 52.216L401.917 51.4351Z" fill="white"/>
<path d="M101.738 179.944L107.125 199.433L102.476 207.633L97.8146 215.856L78.3435 221.238L58.8545 226.625L51.6916 200.712L44.5287 174.799L70.4421 167.636L96.3555 160.473L101.738 179.944Z" fill="#15803D"/>
<path d="M62.7413 192.026C64.0331 191.712 64.9069 191.504 65.3629 191.401C66.9245 191.071 68.1753 191.186 69.1155 191.745C70.0557 192.304 70.6885 193.253 71.014 194.592C71.3489 195.97 71.2152 197.143 70.6129 198.11C70.0106 199.077 68.9461 199.746 67.4194 200.117L64.8711 200.737C64.7771 200.76 64.7019 200.757 64.6454 200.729C64.5949 200.692 64.5572 200.622 64.5325 200.521L62.54 192.324C62.5191 192.238 62.5244 192.174 62.5559 192.133C62.5855 192.085 62.6473 192.049 62.7413 192.026ZM64.9977 193.02C64.9272 193.037 64.9053 193.1 64.932 193.21L66.265 198.694C66.2803 198.757 66.2985 198.798 66.3199 198.818C66.3491 198.835 66.395 198.837 66.4577 198.821L66.6808 198.767C67.6672 198.527 68.3401 198.123 68.6995 197.555C69.0648 196.977 69.119 196.16 68.8621 195.103C68.6242 194.124 68.2533 193.468 67.7493 193.135C67.2454 192.801 66.5689 192.713 65.7197 192.869L64.9977 193.02ZM76.5274 197.269C76.1268 197.872 75.5702 198.261 74.8578 198.434C74.2706 198.576 73.7667 198.533 73.3461 198.304C72.9237 198.066 72.6506 197.693 72.5269 197.184C72.367 196.527 72.54 195.925 73.0457 195.379C73.5515 194.833 74.33 194.42 75.3812 194.14L75.7954 194.002C75.8424 193.991 75.8787 193.969 75.9043 193.938C75.9358 193.897 75.9449 193.85 75.9316 193.795L75.8716 193.548C75.7974 193.243 75.6542 193.029 75.442 192.906C75.2298 192.784 74.9632 192.762 74.6422 192.84C74.0942 192.973 73.7442 193.307 73.5922 193.841C73.5799 193.927 73.5385 193.978 73.4681 193.996C73.4289 194.005 73.3927 194.01 73.3595 194.01L72.1195 194.025C72.0453 194.026 71.9996 193.992 71.9824 193.921C71.971 193.874 71.9724 193.812 71.9866 193.734C72.0641 193.234 72.3141 192.813 72.7364 192.469C73.1666 192.124 73.738 191.865 74.4504 191.692C75.382 191.466 76.0972 191.474 76.5959 191.718C77.0926 191.954 77.4171 192.385 77.5694 193.011L78.5713 197.133C78.5942 197.227 78.5947 197.297 78.5729 197.344C78.5511 197.391 78.4971 197.425 78.411 197.446L77.2014 197.74C77.1231 197.759 77.0578 197.746 77.0053 197.7C76.9607 197.653 76.9172 197.577 76.8749 197.471L76.8003 197.215C76.7754 197.147 76.7355 197.119 76.6807 197.132C76.6494 197.14 76.5983 197.186 76.5274 197.269ZM76.2342 195.04C76.217 194.969 76.1929 194.921 76.1618 194.895C76.1307 194.87 76.08 194.866 76.0095 194.883L75.6864 194.986C75.238 195.12 74.8615 195.328 74.5567 195.609C74.2579 195.881 74.1494 196.185 74.2313 196.521C74.2884 196.756 74.4162 196.924 74.6149 197.025C74.8117 197.118 75.0549 197.13 75.3446 197.059C75.7047 196.972 75.9843 196.792 76.1835 196.519C76.3923 196.253 76.4711 196.014 76.4197 195.803L76.2342 195.04ZM81.2695 191.477C81.1834 191.498 81.1517 191.556 81.1746 191.65L81.8625 194.48C81.9272 194.746 82.0365 194.923 82.1903 195.01C82.3422 195.089 82.5552 195.095 82.8292 195.028L83.4633 194.874C83.5181 194.861 83.5659 194.87 83.6068 194.902C83.6457 194.925 83.6728 194.968 83.688 195.031L83.8504 195.75C83.8884 195.907 83.8252 196.022 83.6605 196.095C83.3431 196.222 82.883 196.359 82.2802 196.505C81.7322 196.638 81.2741 196.613 80.906 196.429C80.5378 196.245 80.2938 195.906 80.1739 195.413L79.3747 192.125C79.3461 192.007 79.2809 191.961 79.1792 191.985L78.4628 192.16C78.3141 192.196 78.2235 192.147 78.1912 192.014L77.9799 191.145C77.9514 191.028 78.0076 190.952 78.1485 190.918L78.9588 190.721C79.0214 190.705 79.0501 190.653 79.0448 190.563L78.7753 188.738C78.7586 188.601 78.8012 188.52 78.903 188.496L80.183 188.184C80.2378 188.171 80.2856 188.18 80.3265 188.212C80.3751 188.241 80.408 188.291 80.4251 188.362L80.8533 190.123C80.8723 190.202 80.921 190.231 80.9993 190.212L82.2324 189.913C82.3733 189.878 82.459 189.924 82.4894 190.049L82.7006 190.918C82.733 191.051 82.6709 191.137 82.5143 191.175L81.2695 191.477ZM88.2135 194.429C87.8129 195.032 87.2563 195.42 86.5439 195.593C85.9567 195.736 85.4528 195.692 85.0322 195.463C84.6097 195.226 84.3366 194.853 84.2129 194.344C84.0531 193.686 84.2261 193.084 84.7318 192.539C85.2376 191.993 86.0161 191.58 87.0673 191.299L87.4815 191.161C87.5285 191.15 87.5648 191.129 87.5904 191.098C87.6219 191.057 87.631 191.009 87.6177 190.954L87.5577 190.708C87.4835 190.402 87.3403 190.188 87.1281 190.066C86.9159 189.943 86.6493 189.921 86.3283 189.999C85.7803 190.132 85.4303 190.466 85.2783 191C85.266 191.086 85.2246 191.138 85.1542 191.155C85.115 191.164 85.0788 191.169 85.0456 191.169L83.8056 191.184C83.7314 191.186 83.6857 191.151 83.6685 191.081C83.6571 191.034 83.6585 190.971 83.6727 190.893C83.7502 190.393 84.0001 189.972 84.4225 189.629C84.8527 189.284 85.4241 189.025 86.1365 188.852C87.0681 188.625 87.7833 188.634 88.282 188.877C88.7787 189.113 89.1032 189.544 89.2555 190.17L90.2574 194.292C90.2803 194.386 90.2808 194.457 90.259 194.503C90.2372 194.55 90.1832 194.584 90.0971 194.605L88.8875 194.899C88.8092 194.918 88.7439 194.905 88.6914 194.86C88.6468 194.812 88.6033 194.736 88.561 194.63L88.4864 194.375C88.4615 194.306 88.4216 194.278 88.3668 194.292C88.3355 194.299 88.2844 194.345 88.2135 194.429ZM87.9203 192.199C87.9031 192.128 87.879 192.08 87.8479 192.055C87.8168 192.029 87.766 192.025 87.6956 192.042L87.3725 192.146C86.9241 192.279 86.5476 192.487 86.2428 192.768C85.944 193.04 85.8355 193.344 85.9174 193.681C85.9745 193.916 86.1023 194.084 86.301 194.185C86.4978 194.278 86.741 194.289 87.0307 194.219C87.3908 194.131 87.6704 193.951 87.8696 193.679C88.0784 193.413 88.1572 193.174 88.1058 192.962L87.9203 192.199Z" fill="white"/>
<path d="M412.24 223.083L410.072 243.186L402.731 249.099L395.369 255.027L375.284 252.861L355.181 250.693L358.063 223.963L360.946 197.233L387.676 200.116L414.407 202.998L412.24 223.083Z" fill="#9E77ED"/>
<path d="M372.558 221.19C372.565 221.126 372.59 221.076 372.635 221.04C372.687 221.005 372.749 220.992 372.821 220.999L379.718 221.743C379.878 221.761 379.951 221.841 379.935 221.985L379.815 223.103C379.802 223.223 379.723 223.275 379.579 223.26L377.332 223.017C377.244 223.008 377.196 223.043 377.187 223.123L376.426 230.177C376.41 230.329 376.334 230.398 376.197 230.383L374.479 230.198C374.359 230.185 374.306 230.11 374.321 229.974L375.08 222.933C375.086 222.877 375.079 222.835 375.057 222.809C375.044 222.783 375.013 222.767 374.965 222.762L372.646 222.512C372.494 222.496 372.424 222.427 372.437 222.307L372.558 221.19ZM380.585 228.182C380.537 228.63 380.645 229.011 380.912 229.323C381.187 229.628 381.548 229.805 381.997 229.854C382.285 229.885 382.556 229.853 382.81 229.759C383.072 229.657 383.342 229.476 383.622 229.214C383.657 229.186 383.691 229.173 383.723 229.177C383.747 229.179 383.786 229.196 383.839 229.226L384.666 229.679C384.719 229.71 384.743 229.753 384.737 229.809C384.733 229.849 384.712 229.887 384.676 229.924C384.233 230.427 383.779 230.767 383.314 230.944C382.85 231.112 382.29 231.161 381.633 231.091C381.016 231.024 380.474 230.828 380.007 230.502C379.539 230.176 379.191 229.758 378.963 229.247C378.735 228.728 378.655 228.156 378.722 227.531C378.795 226.858 379.003 226.281 379.347 225.8C379.691 225.31 380.123 224.951 380.642 224.724C381.169 224.497 381.725 224.415 382.309 224.478C382.918 224.544 383.444 224.738 383.887 225.062C384.332 225.377 384.659 225.801 384.868 226.334C385.078 226.867 385.146 227.483 385.071 228.179C385.059 228.284 385.04 228.354 385.011 228.392C384.991 228.43 384.932 228.448 384.835 228.446L380.75 228.005C380.654 227.995 380.599 228.054 380.585 228.182ZM383.13 227.241C383.218 227.25 383.275 227.248 383.301 227.235C383.327 227.213 383.344 227.167 383.352 227.095C383.375 226.886 383.349 226.673 383.275 226.454C383.202 226.236 383.08 226.048 382.911 225.892C382.741 225.736 382.524 225.644 382.26 225.615C381.859 225.572 381.516 225.677 381.229 225.93C380.942 226.182 380.779 226.529 380.74 226.971L383.13 227.241ZM391.467 231.616C391.549 231.755 391.587 231.856 391.58 231.92C391.571 232 391.491 232.032 391.339 232.016L389.801 231.85C389.608 231.829 389.479 231.75 389.413 231.614L388.363 229.738C388.31 229.627 388.268 229.57 388.236 229.566C388.204 229.563 388.15 229.606 388.076 229.695L386.625 231.313C386.531 231.433 386.392 231.482 386.208 231.462L385.223 231.356C385.03 231.335 384.94 231.269 384.952 231.157C384.962 231.069 385.021 230.97 385.13 230.86L387.374 228.537C387.43 228.47 387.46 228.417 387.464 228.377C387.471 228.321 387.45 228.25 387.402 228.163L385.741 225.31C385.713 225.267 385.702 225.217 385.708 225.161C385.714 225.113 385.738 225.071 385.783 225.035C385.827 224.999 385.885 224.985 385.957 224.993L387.423 225.151C387.528 225.162 387.602 225.187 387.646 225.224C387.7 225.254 387.747 225.308 387.787 225.385L388.735 227.079C388.768 227.148 388.801 227.184 388.833 227.187C388.857 227.19 388.892 227.161 388.939 227.102L390.166 225.641C390.222 225.575 390.275 225.532 390.326 225.513C390.386 225.487 390.471 225.48 390.584 225.492L391.665 225.609C391.801 225.623 391.865 225.671 391.856 225.751C391.852 225.791 391.822 225.84 391.767 225.899L389.715 228.133C389.661 228.184 389.631 228.238 389.625 228.294C389.621 228.334 389.642 228.401 389.688 228.495L391.467 231.616ZM395.237 227.282C395.149 227.273 395.099 227.316 395.089 227.412L394.777 230.308C394.747 230.58 394.79 230.784 394.905 230.918C395.021 231.043 395.22 231.122 395.5 231.152L396.149 231.222C396.205 231.228 396.247 231.253 396.275 231.296C396.303 231.332 396.314 231.381 396.307 231.446L396.216 232.177C396.199 232.337 396.1 232.424 395.921 232.437C395.579 232.449 395.1 232.421 394.483 232.355C393.922 232.294 393.5 232.115 393.216 231.817C392.932 231.519 392.817 231.118 392.872 230.613L393.235 227.249C393.248 227.129 393.202 227.063 393.098 227.052L392.365 226.973C392.213 226.956 392.144 226.88 392.159 226.744L392.255 225.855C392.267 225.734 392.346 225.682 392.49 225.698L393.319 225.787C393.383 225.794 393.428 225.754 393.454 225.668L393.819 223.86C393.85 223.725 393.917 223.664 394.021 223.675L395.331 223.816C395.387 223.822 395.429 223.847 395.457 223.89C395.492 223.935 395.506 223.993 395.499 224.065L395.304 225.867C395.296 225.947 395.331 225.992 395.411 226.001L396.673 226.137C396.817 226.152 396.882 226.224 396.869 226.352L396.773 227.241C396.758 227.377 396.671 227.437 396.51 227.42L395.237 227.282Z" fill="white"/>
<path d="M261.291 59.691V79.9109L254.626 86.5762L247.942 93.2601H227.74H207.521V66.375V39.4898H234.406H261.291V59.691Z" fill="#EAAA08"/>
<path d="M220.438 61.8462C221.767 61.8462 222.666 61.8502 223.133 61.8583C224.728 61.9066 225.917 62.3135 226.698 63.0789C227.48 63.8443 227.871 64.9159 227.871 66.2936C227.871 67.7116 227.464 68.8194 226.65 69.6171C225.836 70.4147 224.644 70.8135 223.073 70.8135H220.45C220.353 70.8135 220.281 70.7934 220.233 70.7531C220.192 70.7048 220.172 70.6282 220.172 70.5235V62.0879C220.172 61.9993 220.192 61.9388 220.233 61.9066C220.273 61.8663 220.341 61.8462 220.438 61.8462ZM222.396 63.3448C222.323 63.3448 222.287 63.4012 222.287 63.514V69.1578C222.287 69.2223 222.295 69.2666 222.311 69.2908C222.335 69.3149 222.38 69.327 222.444 69.327H222.674C223.689 69.327 224.438 69.0934 224.922 68.6261C225.413 68.1507 225.659 67.3692 225.659 66.2815C225.659 65.2744 225.453 64.5493 225.043 64.1061C224.632 63.663 223.995 63.4173 223.133 63.3689L222.396 63.3448ZM232.596 70.1972C232.064 70.6887 231.431 70.9344 230.698 70.9344C230.094 70.9344 229.615 70.7733 229.26 70.451C228.906 70.1206 228.728 69.6936 228.728 69.1699C228.728 68.4931 229.039 67.9493 229.659 67.5384C230.279 67.1275 231.133 66.91 232.221 66.8858L232.656 66.8495C232.704 66.8495 232.745 66.8374 232.777 66.8133C232.817 66.781 232.837 66.7367 232.837 66.6803V66.4265C232.837 66.1123 232.749 65.8706 232.572 65.7014C232.394 65.5322 232.14 65.4476 231.81 65.4476C231.246 65.4476 230.827 65.6893 230.553 66.1727C230.521 66.2533 230.469 66.2936 230.396 66.2936C230.356 66.2936 230.32 66.2896 230.287 66.2815L229.079 66.0036C229.006 65.9874 228.97 65.9431 228.97 65.8706C228.97 65.8223 228.986 65.7618 229.018 65.6893C229.212 65.222 229.554 64.8716 230.046 64.6379C230.545 64.4043 231.162 64.2874 231.895 64.2874C232.853 64.2874 233.546 64.4647 233.973 64.8192C234.4 65.1656 234.614 65.6611 234.614 66.3057V70.5477C234.614 70.6443 234.598 70.7128 234.566 70.7531C234.533 70.7934 234.473 70.8135 234.384 70.8135H233.14C233.059 70.8135 232.999 70.7853 232.958 70.7289C232.926 70.6725 232.902 70.5879 232.886 70.4751L232.874 70.2093C232.866 70.1368 232.833 70.1005 232.777 70.1005C232.745 70.1005 232.684 70.1327 232.596 70.1972ZM232.837 67.9614C232.837 67.8889 232.825 67.8365 232.801 67.8043C232.777 67.772 232.729 67.7559 232.656 67.7559L232.318 67.7801C231.85 67.8043 231.435 67.9171 231.073 68.1185C230.718 68.3119 230.541 68.5818 230.541 68.9282C230.541 69.1699 230.626 69.3633 230.795 69.5083C230.964 69.6453 231.198 69.7138 231.496 69.7138C231.867 69.7138 232.181 69.605 232.439 69.3875C232.704 69.178 232.837 68.9645 232.837 68.7469V67.9614ZM238.572 65.6893C238.483 65.6893 238.439 65.7377 238.439 65.8344V68.7469C238.439 69.0209 238.503 69.2183 238.632 69.3391C238.761 69.4519 238.966 69.5083 239.248 69.5083H239.901C239.957 69.5083 240.002 69.5285 240.034 69.5687C240.066 69.601 240.082 69.6493 240.082 69.7138L240.07 70.451C240.07 70.6121 239.982 70.7088 239.804 70.741C239.466 70.7894 238.987 70.8135 238.366 70.8135C237.802 70.8135 237.363 70.6806 237.049 70.4147C236.735 70.1488 236.578 69.7621 236.578 69.2545V65.8706C236.578 65.7498 236.525 65.6893 236.42 65.6893H235.683C235.53 65.6893 235.454 65.6208 235.454 65.4839V64.5896C235.454 64.4687 235.526 64.4083 235.671 64.4083H236.505C236.569 64.4083 236.61 64.364 236.626 64.2753L236.795 62.4384C236.811 62.3014 236.872 62.2329 236.976 62.2329H238.294C238.35 62.2329 238.394 62.2531 238.427 62.2933C238.467 62.3336 238.487 62.39 238.487 62.4625V64.2753C238.487 64.3559 238.527 64.3962 238.608 64.3962H239.877C240.022 64.3962 240.094 64.4607 240.094 64.5896V65.4839C240.094 65.6208 240.014 65.6893 239.853 65.6893H238.572ZM244.622 70.1972C244.09 70.6887 243.458 70.9344 242.725 70.9344C242.12 70.9344 241.641 70.7733 241.286 70.451C240.932 70.1206 240.755 69.6936 240.755 69.1699C240.755 68.4931 241.065 67.9493 241.685 67.5384C242.306 67.1275 243.16 66.91 244.247 66.8858L244.682 66.8495C244.731 66.8495 244.771 66.8374 244.803 66.8133C244.844 66.781 244.864 66.7367 244.864 66.6803V66.4265C244.864 66.1123 244.775 65.8706 244.598 65.7014C244.421 65.5322 244.167 65.4476 243.837 65.4476C243.273 65.4476 242.854 65.6893 242.58 66.1727C242.547 66.2533 242.495 66.2936 242.423 66.2936C242.382 66.2936 242.346 66.2896 242.314 66.2815L241.105 66.0036C241.033 65.9874 240.996 65.9431 240.996 65.8706C240.996 65.8223 241.013 65.7618 241.045 65.6893C241.238 65.222 241.581 64.8716 242.072 64.6379C242.572 64.4043 243.188 64.2874 243.921 64.2874C244.88 64.2874 245.573 64.4647 246 64.8192C246.427 65.1656 246.64 65.6611 246.64 66.3057V70.5477C246.64 70.6443 246.624 70.7128 246.592 70.7531C246.56 70.7934 246.499 70.8135 246.411 70.8135H245.166C245.085 70.8135 245.025 70.7853 244.985 70.7289C244.952 70.6725 244.928 70.5879 244.912 70.4751L244.9 70.2093C244.892 70.1368 244.86 70.1005 244.803 70.1005C244.771 70.1005 244.711 70.1327 244.622 70.1972ZM244.864 67.9614C244.864 67.8889 244.852 67.8365 244.828 67.8043C244.803 67.772 244.755 67.7559 244.682 67.7559L244.344 67.7801C243.877 67.8043 243.462 67.9171 243.099 68.1185C242.745 68.3119 242.568 68.5818 242.568 68.9282C242.568 69.1699 242.652 69.3633 242.821 69.5083C242.991 69.6453 243.224 69.7138 243.522 69.7138C243.893 69.7138 244.207 69.605 244.465 69.3875C244.731 69.178 244.864 68.9645 244.864 68.7469V67.9614Z" fill="white"/>
<path d="M150.453 240.846L303.864 242.34C304.574 242.347 305.156 242.929 305.164 243.639L307.203 438.099C307.211 438.81 306.641 439.38 305.93 439.373L152.52 437.879C151.809 437.872 151.227 437.29 151.22 436.58L149.18 242.12C149.173 241.409 149.743 240.839 150.453 240.846Z" fill="white" stroke="#818CF8" stroke-width="2"/>
<path d="M303.865 242.483L150.455 240.988C149.823 240.982 149.317 241.489 149.324 242.121L151.363 436.581C151.37 437.213 151.887 437.729 152.518 437.736L305.928 439.23C306.56 439.236 307.066 438.729 307.06 438.098L305.02 243.637C305.014 243.006 304.496 242.489 303.865 242.483Z" stroke="#818CF8" stroke-width="2"/>
<path d="M142.16 230.742L295.571 232.236C296.281 232.243 296.863 232.825 296.871 233.535L298.91 427.995C298.918 428.706 298.348 429.276 297.637 429.269L144.227 427.775C143.516 427.768 142.934 427.186 142.927 426.476L140.887 232.016C140.88 231.305 141.45 230.735 142.16 230.742Z" fill="white" stroke="#818CF8" stroke-width="2"/>
<path d="M295.572 232.38L142.162 230.885C141.53 230.879 141.024 231.386 141.031 232.018L143.07 426.478C143.077 427.11 143.594 427.626 144.225 427.633L297.635 429.127C298.267 429.133 298.773 428.626 298.767 427.995L296.727 233.534C296.721 232.903 296.203 232.386 295.572 232.38Z" stroke="#818CF8" stroke-width="2.2868"/>
<path d="M135.667 217.645L288.03 219.129C289.008 219.138 289.809 219.939 289.82 220.917L291.845 414.049C291.855 415.027 291.071 415.812 290.093 415.803L137.73 414.319C136.752 414.309 135.951 413.509 135.94 412.531L133.915 219.399C133.905 218.42 134.689 217.635 135.667 217.645Z" fill="white" stroke="#818CF8"/>
<path d="M155.135 256.2L268.689 257.306" stroke="#818CF8" stroke-width="2" stroke-linecap="round"/>
<path d="M155.253 267.555L268.808 268.661" stroke="#818CF8" stroke-width="2" stroke-linecap="round"/>
<path d="M155.373 278.91L268.927 280.016" stroke="#818CF8" stroke-width="2" stroke-linecap="round"/>
<path d="M155.492 290.266L269.046 291.372" stroke="#818CF8" stroke-width="2" stroke-linecap="round"/>
<path d="M155.611 301.621L269.165 302.727" stroke="#818CF8" stroke-width="2" stroke-linecap="round"/>
<path d="M155.729 312.976L269.284 314.082" stroke="#818CF8" stroke-width="2" stroke-linecap="round"/>
<path d="M155.85 324.331L269.404 325.437" stroke="#818CF8" stroke-width="2" stroke-linecap="round"/>
<path d="M155.969 335.687L269.523 336.793" stroke="#818CF8" stroke-width="2" stroke-linecap="round"/>
<path d="M156.088 347.042L211.729 347.584" stroke="#818CF8" stroke-width="2" stroke-linecap="round"/>
<path d="M288.037 219.764L135.674 218.28C135.047 218.274 134.544 218.778 134.55 219.405L136.576 412.537C136.583 413.164 137.096 413.677 137.724 413.684L290.086 415.168C290.713 415.174 291.216 414.67 291.21 414.043L289.184 220.911C289.178 220.284 288.664 219.77 288.037 219.764Z" stroke="#818CF8" stroke-width="2.27118"/>
</g>
<defs>
<clipPath id="clip0_334_11338">
<rect width="416" height="366" fill="white"/>
</clipPath>
</defs>
</svg>
