<svg width="416" height="366" viewBox="0 0 416 366" fill="none" xmlns="http://www.w3.org/2000/svg">
<g clip-path="url(#clip0_331_10991)">
<path d="M56.1 19.9952L58.9809 40.0088L53.3332 47.5557L47.6698 55.1238L27.6747 58.002L7.66107 60.8828L3.83058 34.2719L8.79942e-05 7.66107L26.611 3.83057L53.2218 8.19679e-05L56.1 19.9952Z" fill="#4F46E5"/>
<path d="M17.185 27.994C17.1758 27.9302 17.1883 27.8755 17.2224 27.8298C17.2645 27.7831 17.3215 27.7545 17.3932 27.7442L24.2595 26.7559C24.419 26.7329 24.509 26.7932 24.5297 26.9367L24.6898 28.0492C24.7071 28.1688 24.6439 28.239 24.5004 28.2596L22.2634 28.5816C22.1757 28.5943 22.1376 28.6404 22.1491 28.7202L23.1598 35.7419C23.1816 35.8935 23.1248 35.979 22.9892 35.9985L21.2786 36.2447C21.159 36.2619 21.0894 36.2028 21.0699 36.0672L20.0609 29.0574C20.0528 29.0016 20.0351 28.9634 20.0078 28.9429C19.9884 28.9213 19.9548 28.9139 19.9069 28.9208L17.5982 29.2532C17.4467 29.275 17.3623 29.2261 17.3451 29.1064L17.185 27.994ZM26.6946 32.7789C26.7589 33.2255 26.9586 33.5671 27.2939 33.8038C27.6359 34.0313 28.0303 34.1129 28.4769 34.0486C28.7639 34.0073 29.0185 33.9096 29.2405 33.7555C29.4694 33.5924 29.6867 33.3494 29.8926 33.0268C29.9199 32.9903 29.9495 32.9697 29.9814 32.9651C30.0054 32.9617 30.047 32.9679 30.1062 32.9838L31.0192 33.2187C31.0784 33.2346 31.1121 33.2704 31.1201 33.3263C31.1259 33.3661 31.1156 33.4083 31.0895 33.4528C30.7848 34.0502 30.4292 34.4921 30.0227 34.7785C29.6151 35.0569 29.0843 35.2432 28.4304 35.3374C27.8163 35.4257 27.2426 35.37 26.7091 35.17C26.1756 34.97 25.7349 34.6509 25.3869 34.2126C25.0378 33.7663 24.8184 33.2321 24.7289 32.6101C24.6325 31.9402 24.6911 31.3294 24.9047 30.7777C25.1172 30.218 25.4465 29.7636 25.8928 29.4145C26.3471 29.0642 26.8653 28.8472 27.4474 28.7634C28.0535 28.6761 28.6113 28.7342 29.1209 28.9376C29.6293 29.1331 30.0512 29.4631 30.3867 29.9276C30.7222 30.3921 30.9399 30.9713 31.0397 31.6651C31.0546 31.7687 31.053 31.8422 31.0348 31.8856C31.0246 31.9277 30.9722 31.9597 30.8777 31.9814L26.8106 32.5669C26.7149 32.5806 26.6762 32.6513 26.6946 32.7789ZM28.9268 31.2366C29.0145 31.224 29.0692 31.208 29.0908 31.1886C29.1113 31.1612 29.1164 31.1117 29.106 31.0399C29.0762 30.8325 28.9985 30.6321 28.8729 30.4385C28.7474 30.2449 28.5832 30.0936 28.3802 29.9844C28.1773 29.8752 27.9442 29.8396 27.6811 29.8775C27.2823 29.9349 26.9755 30.1215 26.7605 30.4373C26.5454 30.7532 26.4735 31.1298 26.5446 31.5673L28.9268 31.2366ZM38.088 33.41C38.2021 33.5238 38.2637 33.6126 38.2729 33.6764C38.2844 33.7561 38.2143 33.8069 38.0628 33.8287L36.5317 34.0491C36.3403 34.0767 36.1955 34.0324 36.0974 33.9163L34.6156 32.3591C34.5369 32.2646 34.4816 32.2197 34.4497 32.2243C34.4178 32.2289 34.3769 32.2836 34.3268 32.3885L33.3222 34.3157C33.2608 34.4548 33.1384 34.5376 32.955 34.564L31.9741 34.7052C31.7827 34.7327 31.679 34.6907 31.6629 34.579C31.6503 34.4913 31.6832 34.3807 31.7617 34.2473L33.3602 31.4409C33.3977 31.3623 33.4136 31.303 33.4078 31.2631C33.3998 31.2073 33.3621 31.1436 33.2948 31.0718L30.9782 28.7191C30.9405 28.6838 30.9177 28.6383 30.9096 28.5825C30.9028 28.5346 30.9164 28.4879 30.9505 28.4423C30.9846 28.3967 31.0376 28.3687 31.1094 28.3584L32.5687 28.1483C32.6724 28.1334 32.7505 28.1384 32.8029 28.1634C32.8622 28.1793 32.9209 28.2197 32.9791 28.2846L34.3171 29.6915C34.3662 29.7495 34.4067 29.7763 34.4386 29.7717C34.4625 29.7682 34.4898 29.7317 34.5205 29.6622L35.3476 27.9436C35.3851 27.865 35.4261 27.8103 35.4705 27.7794C35.5217 27.7395 35.6031 27.7115 35.7148 27.6954L36.7914 27.5405C36.9269 27.5209 37.0005 27.5511 37.0119 27.6308C37.0177 27.6707 37.0012 27.726 36.9626 27.7967L35.528 30.4696C35.4882 30.5323 35.4723 30.5915 35.4804 30.6474C35.4861 30.6872 35.5232 30.747 35.5916 30.8267L38.088 33.41ZM40.6664 28.2769C40.5787 28.2896 40.5417 28.3437 40.5555 28.4394L40.9705 31.3223C41.0095 31.5934 41.1014 31.7796 41.2463 31.8809C41.3899 31.9741 41.6013 32.0007 41.8804 31.9605L42.5264 31.8675C42.5822 31.8595 42.6289 31.8731 42.6666 31.9084C42.7031 31.9357 42.7259 31.9813 42.7351 32.0451L42.8282 32.7765C42.8511 32.936 42.7772 33.0443 42.6063 33.1014C42.2783 33.1975 41.8072 33.2897 41.1932 33.3781C40.6349 33.4585 40.1814 33.3895 39.8325 33.1711C39.4836 32.9527 39.273 32.5923 39.2006 32.0899L38.7185 28.7405C38.7013 28.6208 38.6409 28.5685 38.5372 28.5834L37.8075 28.6885C37.656 28.7103 37.5705 28.6534 37.5509 28.5178L37.4235 27.6326C37.4063 27.513 37.4695 27.4429 37.613 27.4222L38.4384 27.3034C38.5022 27.2942 38.5358 27.2446 38.5391 27.1546L38.4448 25.3122C38.4413 25.1744 38.4913 25.098 38.595 25.0831L39.8989 24.8954C39.9547 24.8873 40.0014 24.901 40.039 24.9362C40.0847 24.9704 40.1126 25.0233 40.123 25.0951L40.3812 26.8894C40.3927 26.9692 40.4383 27.0033 40.5181 26.9918L41.7741 26.811C41.9176 26.7904 41.9986 26.8438 42.017 26.9714L42.1444 27.8566C42.1639 27.9922 42.0939 28.0714 41.9344 28.0944L40.6664 28.2769Z" fill="white"/>
<path d="M199.672 210.312C200.062 210.702 200.696 210.702 201.086 210.312L207.45 203.948C207.841 203.557 207.841 202.924 207.45 202.534C207.06 202.143 206.426 202.143 206.036 202.534L200.379 208.19L194.722 202.534C194.332 202.143 193.699 202.143 193.308 202.534C192.917 202.924 192.917 203.557 193.308 203.948L199.672 210.312ZM41.0112 70.0872C40.9627 70.7875 40.9252 71.4892 40.903 72.1902L42.902 72.2534C42.9233 71.5812 42.9593 70.9049 43.0064 70.2254L41.0112 70.0872ZM41.252 78.5666C41.4841 79.9878 41.8399 81.3884 42.3594 82.7513L44.2282 82.0389C43.7631 80.8187 43.4392 79.5509 43.2258 78.2442L41.252 78.5666ZM45.7299 88.3358C46.6393 89.3673 47.7015 90.3456 48.9363 91.2631L50.1291 89.6578C49.0007 88.8193 48.0426 87.9348 47.2302 87.0132L45.7299 88.3358ZM54.4907 94.4383C55.7066 94.9752 57.0231 95.4765 58.4477 95.9398L59.0662 94.0379C57.7004 93.5937 56.4475 93.1161 55.2987 92.6087L54.4907 94.4383ZM64.56 97.5472C65.8581 97.8197 67.2242 98.0689 68.6616 98.2937L68.9705 96.3177C67.5649 96.0979 66.2329 95.8548 64.9709 95.5899L64.56 97.5472ZM74.8728 99.0666C76.208 99.1945 77.5941 99.3052 79.033 99.3979L79.1616 97.4021C77.7424 97.3106 76.377 97.2016 75.0636 97.0757L74.8728 99.0666ZM85.2556 99.6766C85.9469 99.695 86.6488 99.7098 87.3613 99.721L87.3928 97.7213C86.6874 97.7102 85.9928 97.6955 85.3089 97.6773L85.2556 99.6766ZM128.285 61.7536C128.285 61.2742 128.341 60.6911 128.463 60.0173L126.495 59.6613C126.357 60.421 126.285 61.1265 126.285 61.7536H128.285ZM130.178 54.7115C130.657 53.6255 131.228 52.4939 131.892 51.3475L130.161 50.3457C129.461 51.555 128.857 52.7515 128.348 53.904L130.178 54.7115ZM135.102 46.6825C135.88 45.724 136.725 44.7864 137.636 43.888L136.232 42.4636C135.265 43.4168 134.371 44.4096 133.549 45.4224L135.102 46.6825ZM141.986 40.3091C143.006 39.6192 144.084 38.9852 145.219 38.4214L144.329 36.6303C143.11 37.2355 141.956 37.9149 140.866 38.6526L141.986 40.3091ZM150.47 36.4675C151.646 36.1666 152.871 35.939 154.146 35.7954L153.922 33.808C152.555 33.9619 151.239 34.2063 149.974 34.5299L150.47 36.4675ZM159.764 35.7142C160.969 35.8093 162.212 35.9764 163.494 36.2227L163.871 34.2586C162.519 33.9988 161.202 33.8215 159.921 33.7204L159.764 35.7142ZM168.975 37.6975C170.128 38.0933 171.308 38.5505 172.516 39.0732L173.31 37.2379C172.057 36.6952 170.829 36.2191 169.625 35.8058L168.975 37.6975ZM177.649 41.6113C178.725 42.2077 179.821 42.8541 180.935 43.5531L181.998 41.8587C180.854 41.1413 179.728 40.4765 178.619 39.862L177.649 41.6113ZM185.711 46.7904C186.711 47.5181 187.726 48.2866 188.754 49.0975L189.993 47.527C188.945 46.7006 187.91 45.9164 186.888 45.1731L185.711 46.7904ZM193.193 52.7873C193.682 53.2145 194.174 53.6509 194.669 54.0968L196.007 52.6109C195.505 52.1583 195.005 51.7151 194.509 51.2811L193.193 52.7873ZM270.119 62.307C270.485 62.8583 270.887 63.4128 271.324 63.9677L272.896 62.7311C272.49 62.2156 272.12 61.7047 271.786 61.2012L270.119 62.307ZM275.532 68.387C276.503 69.2503 277.551 70.0997 278.671 70.9243L279.857 69.3142C278.785 68.5246 277.785 67.7136 276.861 66.8923L275.532 68.387ZM283.754 74.2036C284.901 74.8498 286.097 75.4655 287.337 76.0432L288.181 74.2303C286.988 73.6744 285.838 73.0822 284.735 72.461L283.754 74.2036ZM292.952 78.2792C294.208 78.6982 295.497 79.0754 296.815 79.4047L297.3 77.4644C296.033 77.1477 294.793 76.785 293.584 76.3819L292.952 78.2792ZM302.755 80.5214C304.074 80.6888 305.415 80.8056 306.774 80.8667L306.864 78.8687C305.56 78.8101 304.273 78.698 303.007 78.5373L302.755 80.5214ZM312.821 80.7631C314.146 80.6575 315.484 80.4958 316.832 80.2738L316.506 78.3004C315.215 78.5132 313.932 78.6682 312.662 78.7694L312.821 80.7631ZM322.721 78.9229C323.991 78.5478 325.266 78.1158 326.544 77.6236L325.825 75.7573C324.597 76.2302 323.373 76.6449 322.155 77.0048L322.721 78.9229ZM332.033 75.1364C333.199 74.5268 334.364 73.8637 335.528 73.1446L334.477 71.4431C333.354 72.1373 332.229 72.7769 331.106 73.3642L332.033 75.1364ZM340.49 69.7243C341.531 68.9291 342.569 68.0859 343.604 67.1929L342.297 65.6791C341.292 66.5463 340.285 67.3643 339.276 68.1347L340.49 69.7243ZM347.975 63.0902C348.891 62.159 349.802 61.1857 350.708 60.1692L349.215 58.8384C348.33 59.831 347.441 60.7803 346.549 61.6877L347.975 63.0902ZM354.541 55.5646C354.952 55.0367 355.362 54.4992 355.77 53.9519L354.167 52.7558C353.767 53.2922 353.366 53.8188 352.963 54.3358L354.541 55.5646ZM345.939 154.309C346.588 154.168 347.228 154.02 347.86 153.867L347.387 151.923C346.771 152.073 346.147 152.217 345.514 152.354L345.939 154.309ZM353.488 152.263C354.755 151.847 355.983 151.403 357.173 150.933L356.439 149.073C355.286 149.528 354.094 149.959 352.863 150.363L353.488 152.263ZM362.528 148.529C363.719 147.925 364.866 147.292 365.969 146.635L364.945 144.917C363.881 145.551 362.774 146.162 361.623 146.746L362.528 148.529ZM370.858 143.354C371.922 142.553 372.936 141.726 373.902 140.877L372.582 139.375C371.654 140.19 370.679 140.985 369.654 141.757L370.858 143.354ZM378.097 136.734C378.991 135.742 379.829 134.731 380.615 133.706L379.027 132.489C378.273 133.473 377.468 134.444 376.611 135.396L378.097 136.734ZM383.915 128.822C384.596 127.674 385.219 126.517 385.788 125.358L383.992 124.477C383.446 125.59 382.848 126.7 382.195 127.802L383.915 128.822ZM388.071 119.919C388.516 118.657 388.901 117.403 389.232 116.163L387.3 115.648C386.982 116.838 386.612 118.042 386.184 119.254L388.071 119.919ZM390.41 110.383C390.6 109.036 390.725 107.723 390.793 106.457L388.796 106.35C388.731 107.558 388.611 108.813 388.429 110.103L390.41 110.383ZM390.669 100.52C390.598 99.8383 390.509 99.1815 390.401 98.5522L388.43 98.8901C388.53 99.4732 388.613 100.086 388.679 100.725L390.669 100.52ZM201.379 209.605C201.379 208.945 201.382 208.293 201.387 207.647L199.387 207.631C199.382 208.282 199.379 208.94 199.379 209.605H201.379ZM201.503 201.872C201.546 200.562 201.601 199.282 201.665 198.031L199.668 197.927C199.603 199.191 199.548 200.484 199.504 201.806L201.503 201.872ZM202.054 192.276C202.164 190.965 202.287 189.69 202.422 188.451L200.434 188.234C200.297 189.491 200.173 190.782 200.061 192.109L202.054 192.276ZM203.159 182.766C203.357 181.459 203.57 180.198 203.796 178.98L201.83 178.614C201.599 179.855 201.383 181.138 201.181 182.466L203.159 182.766ZM205.008 173.364C205.326 172.08 205.662 170.855 206.012 169.685L204.096 169.111C203.736 170.313 203.393 171.569 203.067 172.882L205.008 173.364ZM207.884 164.285C208.377 163.051 208.889 161.897 209.417 160.818L207.62 159.939C207.07 161.065 206.538 162.264 206.027 163.543L207.884 164.285ZM212.243 155.921C212.992 154.824 213.758 153.843 214.533 152.966L213.035 151.642C212.202 152.583 211.386 153.63 210.591 154.792L212.243 155.921ZM218.651 149.255C219.725 148.507 220.794 147.914 221.842 147.449L221.03 145.621C219.867 146.137 218.686 146.793 217.507 147.615L218.651 149.255ZM227.121 146.027C227.755 145.959 228.364 145.93 228.945 145.93V143.93C228.297 143.93 227.617 143.963 226.91 144.038L227.121 146.027ZM228.945 145.93C229.664 145.93 230.38 145.93 231.097 145.933L231.106 143.933C230.383 143.93 229.664 143.93 228.945 143.93V145.93ZM237.509 146.111C238.864 146.192 240.269 146.311 241.751 146.483L241.982 144.496C240.46 144.32 239.018 144.198 237.629 144.114L237.509 146.111ZM248.058 147.48C249.377 147.741 250.762 148.047 252.225 148.404L252.699 146.462C251.21 146.097 249.796 145.785 248.447 145.518L248.058 147.48ZM258.413 150.099C259.719 150.491 261.081 150.921 262.503 151.391L263.131 149.492C261.692 149.017 260.313 148.581 258.989 148.183L258.413 150.099ZM268.586 153.518C269.245 153.76 269.916 154.009 270.6 154.267L271.306 152.396C270.617 152.136 269.94 151.884 269.275 151.64L268.586 153.518ZM390.375 191.42C390.54 190.856 390.733 190.257 390.951 189.623L389.06 188.972C388.834 189.629 388.631 190.258 388.456 190.858L390.375 191.42ZM393.024 184.276C393.496 183.145 394.006 181.958 394.546 180.721L392.713 179.921C392.17 181.164 391.656 182.361 391.178 183.505L393.024 184.276ZM396.895 175.406C397.409 174.251 397.936 173.065 398.472 171.853L396.642 171.045C396.108 172.254 395.581 173.438 395.068 174.593L396.895 175.406ZM400.802 166.512C401.308 165.334 401.814 164.139 402.318 162.927L400.472 162.159C399.971 163.363 399.467 164.551 398.965 165.723L400.802 166.512ZM404.507 157.506C404.976 156.302 405.438 155.086 405.89 153.862L404.013 153.171C403.567 154.382 403.109 155.586 402.643 156.779L404.507 157.506ZM407.823 148.339C408.232 147.101 408.625 145.858 408.998 144.612L407.083 144.038C406.715 145.265 406.328 146.49 405.924 147.712L407.823 148.339ZM410.548 138.952C410.863 137.676 411.151 136.4 411.411 135.128L409.451 134.728C409.197 135.973 408.915 137.222 408.606 138.474L410.548 138.952ZM412.385 129.323C412.554 128.01 412.685 126.703 412.775 125.407L410.779 125.27C410.693 126.524 410.566 127.79 410.401 129.067L412.385 129.323ZM412.871 119.476C412.817 118.143 412.707 116.825 412.538 115.527L410.555 115.786C410.716 117.021 410.82 118.28 410.872 119.558L412.871 119.476ZM411.31 109.682C410.929 108.402 410.473 107.149 409.938 105.928L408.106 106.731C408.607 107.873 409.035 109.049 409.394 110.253L411.31 109.682ZM406.997 100.696C406.239 99.6183 405.4 98.5777 404.475 97.5777L403.007 98.9357C403.871 99.8704 404.654 100.842 405.361 101.846L406.997 100.696ZM400.023 93.5888C399.49 93.1917 398.939 92.8042 398.369 92.4265L397.265 94.0938C397.804 94.4513 398.325 94.8175 398.827 95.192L400.023 93.5888Z" fill="#C7D2FE"/>
<path d="M333.8 149.083L330.744 169.07L323.147 174.651L315.53 180.248L295.561 177.194L275.573 174.137L279.638 147.561L283.702 120.985L310.278 125.049L336.854 129.114L333.8 149.083Z" fill="#1D4ED8"/>
<path d="M290.929 144.706C291.057 144.726 291.109 144.807 291.087 144.951L289.808 153.313C289.793 153.417 289.757 153.489 289.702 153.529C289.648 153.562 289.562 153.569 289.442 153.551L287.937 153.32C287.841 153.306 287.777 153.275 287.743 153.23C287.709 153.184 287.699 153.117 287.712 153.029L288.995 144.643C289.018 144.492 289.093 144.426 289.221 144.445L290.929 144.706ZM291.514 153.867C291.426 153.854 291.365 153.828 291.33 153.79C291.296 153.744 291.286 153.678 291.3 153.59L292.197 147.724C292.208 147.653 292.232 147.599 292.27 147.564C292.316 147.531 292.367 147.518 292.423 147.527L293.856 147.746C293.976 147.764 294.025 147.841 294.004 147.976L293.915 148.562C293.905 148.625 293.92 148.66 293.96 148.666C293.984 148.67 294.014 148.658 294.051 148.631C294.433 148.372 294.796 148.183 295.14 148.064C295.484 147.946 295.835 147.914 296.194 147.969C296.616 148.033 296.959 148.188 297.223 148.432C297.488 148.676 297.653 148.979 297.72 149.339C297.723 149.372 297.737 149.391 297.761 149.394C297.793 149.399 297.832 149.385 297.877 149.351C298.222 149.07 298.593 148.857 298.99 148.714C299.394 148.572 299.78 148.53 300.146 148.586C300.704 148.671 301.12 148.91 301.394 149.302C301.676 149.696 301.771 150.191 301.68 150.789L301.031 155.03C301.002 155.221 300.892 155.302 300.701 155.272L299.375 155.07C299.287 155.056 299.23 155.031 299.203 154.994C299.177 154.95 299.171 154.884 299.184 154.796L299.802 150.758C299.842 150.495 299.802 150.277 299.682 150.104C299.562 149.931 299.37 149.824 299.107 149.784C298.892 149.751 298.672 149.778 298.447 149.866C298.229 149.955 298.036 150.072 297.867 150.218C297.811 150.266 297.767 150.312 297.736 150.357C297.713 150.402 297.696 150.46 297.685 150.532L297.089 154.427C297.06 154.618 296.95 154.699 296.758 154.669L295.444 154.469C295.365 154.456 295.307 154.431 295.272 154.393C295.247 154.349 295.24 154.282 295.254 154.195L295.871 150.157C295.912 149.894 295.872 149.676 295.751 149.503C295.631 149.33 295.436 149.222 295.165 149.181C294.934 149.146 294.71 149.172 294.492 149.261C294.275 149.35 294.035 149.505 293.773 149.726L293.145 153.836C293.13 153.931 293.095 153.999 293.04 154.04C292.986 154.072 292.904 154.08 292.792 154.063L291.514 153.867ZM305.823 155.432C305.223 155.838 304.56 155.985 303.836 155.874C303.238 155.783 302.789 155.551 302.487 155.179C302.187 154.799 302.076 154.35 302.155 153.832C302.258 153.163 302.646 152.672 303.322 152.36C303.997 152.048 304.874 151.962 305.953 152.102L306.389 152.132C306.436 152.139 306.478 152.134 306.514 152.115C306.558 152.089 306.585 152.048 306.593 151.992L306.632 151.741C306.679 151.431 306.628 151.179 306.479 150.984C306.329 150.79 306.091 150.668 305.764 150.618C305.207 150.533 304.756 150.709 304.412 151.145C304.368 151.22 304.31 151.252 304.239 151.241C304.199 151.235 304.164 151.225 304.133 151.213L302.98 150.755C302.911 150.728 302.882 150.679 302.893 150.607C302.9 150.559 302.925 150.502 302.968 150.435C303.23 150.003 303.621 149.708 304.143 149.551C304.672 149.396 305.299 149.374 306.023 149.484C306.971 149.629 307.629 149.909 307.998 150.324C308.367 150.731 308.504 151.253 308.406 151.891L307.765 156.084C307.75 156.179 307.724 156.245 307.686 156.28C307.648 156.314 307.585 156.325 307.498 156.312L306.267 156.124C306.188 156.112 306.132 156.075 306.101 156.013C306.077 155.952 306.066 155.865 306.067 155.751L306.096 155.486C306.099 155.413 306.072 155.373 306.017 155.364C305.985 155.359 305.92 155.382 305.823 155.432ZM306.4 153.259C306.411 153.187 306.407 153.133 306.388 153.098C306.369 153.062 306.323 153.039 306.252 153.028L305.913 153.001C305.448 152.954 305.021 153.003 304.632 153.147C304.252 153.285 304.036 153.525 303.984 153.867C303.947 154.106 304.002 154.31 304.147 154.479C304.293 154.64 304.514 154.743 304.809 154.788C305.175 154.844 305.502 154.784 305.79 154.608C306.084 154.441 306.248 154.25 306.281 154.035L306.4 153.259ZM316.386 150.91C316.546 150.935 316.612 151.034 316.585 151.21L316.461 152.022C316.427 152.245 316.321 152.323 316.144 152.255C316.028 152.213 315.915 152.183 315.803 152.166C315.739 152.156 315.667 152.153 315.585 152.157C315.373 152.157 315.279 152.237 315.304 152.395C315.342 152.621 315.351 152.806 315.329 152.949C315.273 153.316 315.111 153.629 314.843 153.89C314.583 154.151 314.22 154.336 313.755 154.445C313.298 154.554 312.763 154.562 312.15 154.468C311.704 154.4 311.368 154.385 311.142 154.424C310.924 154.464 310.806 154.544 310.788 154.663C310.772 154.767 310.816 154.851 310.92 154.916C311.034 154.974 311.224 155.032 311.493 155.089L313.187 155.446C313.968 155.614 314.526 155.879 314.862 156.24C315.206 156.602 315.34 157.034 315.263 157.536C315.168 158.157 314.797 158.61 314.151 158.894C313.504 159.178 312.639 159.238 311.556 159.072C309.238 158.718 308.158 158.027 308.315 156.999C308.354 156.744 308.487 156.545 308.713 156.4C308.94 156.247 309.247 156.131 309.634 156.052C309.684 156.043 309.711 156.027 309.715 156.003C309.718 155.979 309.698 155.952 309.654 155.92C309.226 155.627 309.04 155.297 309.096 154.93C309.129 154.715 309.263 154.532 309.498 154.38C309.743 154.222 310.05 154.102 310.421 154.02C310.524 153.987 310.54 153.941 310.467 153.881C309.749 153.404 309.446 152.804 309.557 152.079C309.649 151.473 309.982 151.031 310.554 150.752C311.135 150.474 311.911 150.409 312.883 150.558C313.703 150.683 314.313 150.96 314.712 151.388C314.762 151.436 314.81 151.464 314.858 151.471C314.922 151.481 314.982 151.462 315.038 151.413C315.217 151.253 315.441 151.124 315.708 151.027C315.977 150.921 316.203 150.882 316.386 150.91ZM312.277 153.558C312.683 153.621 313 153.575 313.227 153.423C313.463 153.263 313.605 153.032 313.651 152.729C313.702 152.395 313.639 152.116 313.461 151.893C313.292 151.664 313.005 151.518 312.599 151.456C312.216 151.397 311.898 151.451 311.645 151.616C311.399 151.782 311.252 152.028 311.202 152.355C311.156 152.657 311.225 152.921 311.411 153.145C311.606 153.362 311.895 153.5 312.277 153.558ZM310.927 156.47C310.683 156.416 310.451 156.442 310.231 156.546C310.02 156.645 309.9 156.793 309.869 156.992C309.824 157.287 309.953 157.535 310.257 157.736C310.56 157.938 311.078 158.094 311.811 158.206C312.344 158.288 312.766 158.275 313.076 158.168C313.385 158.068 313.56 157.883 313.601 157.612C313.629 157.429 313.572 157.269 313.43 157.134C313.287 156.998 313.062 156.898 312.754 156.835L310.927 156.47ZM318.291 155.273C318.223 155.719 318.314 156.104 318.567 156.428C318.828 156.745 319.181 156.937 319.627 157.005C319.914 157.049 320.186 157.03 320.443 156.947C320.71 156.857 320.988 156.688 321.279 156.439C321.316 156.412 321.35 156.401 321.382 156.406C321.406 156.409 321.444 156.427 321.496 156.46L322.301 156.95C322.353 156.982 322.375 157.026 322.366 157.082C322.36 157.122 322.338 157.159 322.3 157.194C321.835 157.677 321.367 157.997 320.895 158.153C320.424 158.301 319.862 158.325 319.209 158.225C318.595 158.131 318.062 157.911 317.61 157.565C317.158 157.219 316.829 156.785 316.623 156.265C316.419 155.736 316.364 155.162 316.459 154.54C316.561 153.871 316.795 153.304 317.159 152.838C317.525 152.364 317.972 152.025 318.501 151.821C319.037 151.617 319.596 151.56 320.178 151.649C320.783 151.742 321.3 151.959 321.728 152.302C322.158 152.637 322.466 153.075 322.652 153.617C322.838 154.159 322.878 154.776 322.772 155.469C322.756 155.573 322.733 155.643 322.703 155.679C322.681 155.716 322.622 155.731 322.525 155.725L318.463 155.104C318.368 155.089 318.31 155.145 318.291 155.273ZM320.875 154.445C320.962 154.459 321.019 154.459 321.046 154.447C321.073 154.427 321.092 154.381 321.103 154.309C321.135 154.102 321.119 153.888 321.055 153.666C320.991 153.444 320.878 153.252 320.715 153.088C320.553 152.925 320.34 152.823 320.077 152.783C319.679 152.722 319.331 152.812 319.034 153.051C318.736 153.291 318.558 153.631 318.499 154.07L320.875 154.445Z" fill="white"/>
<path d="M154.59 90.7764V110.996L147.924 117.662L141.24 124.345H121.039H100.819V97.4603V70.5752H127.704H154.59V90.7764Z" fill="#BE185D"/>
<path d="M116.639 92.8107C117.251 92.8107 117.815 92.9275 118.331 93.1612C118.847 93.3948 119.27 93.7131 119.6 94.1159C119.938 94.5188 120.152 94.97 120.24 95.4695C120.257 95.5259 120.265 95.5904 120.265 95.6629C120.265 95.7112 120.253 95.7434 120.228 95.7595C120.204 95.7757 120.168 95.7877 120.12 95.7958L118.488 95.9046C118.416 95.9046 118.367 95.8925 118.343 95.8683C118.327 95.8441 118.311 95.7958 118.295 95.7233C118.206 95.2802 118.029 94.9297 117.763 94.6719C117.497 94.414 117.143 94.2851 116.699 94.2851C115.41 94.2851 114.766 95.3164 114.766 97.379C114.766 98.4506 114.927 99.2321 115.249 99.7236C115.571 100.215 116.063 100.461 116.724 100.461C117.207 100.461 117.614 100.34 117.944 100.098C118.283 99.8565 118.557 99.4617 118.766 98.9138C118.79 98.8574 118.843 98.8292 118.923 98.8292C118.972 98.8292 119.008 98.8333 119.032 98.8413L120.216 99.0951C120.329 99.1354 120.373 99.2361 120.349 99.3972C120.269 99.7437 120.079 100.118 119.781 100.521C119.491 100.924 119.08 101.275 118.549 101.573C118.017 101.871 117.38 102.02 116.639 102.02C115.809 102.02 115.084 101.826 114.464 101.44C113.851 101.045 113.38 100.497 113.05 99.7961C112.719 99.0871 112.554 98.2693 112.554 97.3427C112.554 96.4242 112.719 95.6226 113.05 94.9377C113.38 94.2529 113.851 93.7292 114.464 93.3666C115.084 92.996 115.809 92.8107 116.639 92.8107ZM124.393 102.02C123.757 102.02 123.193 101.883 122.701 101.609C122.218 101.327 121.839 100.936 121.565 100.437C121.291 99.9371 121.154 99.3691 121.154 98.7326C121.154 98.0719 121.291 97.4878 121.565 96.9802C121.847 96.4726 122.234 96.0778 122.725 95.7958C123.225 95.5138 123.785 95.3728 124.405 95.3728C125.042 95.3728 125.606 95.5178 126.097 95.8079C126.589 96.0899 126.967 96.4847 127.233 96.9923C127.507 97.4998 127.644 98.0759 127.644 98.7205C127.644 99.357 127.507 99.925 127.233 100.425C126.959 100.924 126.577 101.315 126.085 101.597C125.594 101.879 125.03 102.02 124.393 102.02ZM124.405 100.787C124.848 100.787 125.183 100.614 125.408 100.267C125.642 99.9129 125.759 99.3892 125.759 98.6963C125.759 97.9953 125.642 97.4676 125.408 97.1131C125.183 96.7505 124.848 96.5693 124.405 96.5693C123.962 96.5693 123.624 96.7505 123.39 97.1131C123.156 97.4676 123.04 97.9953 123.04 98.6963C123.04 99.3811 123.156 99.9008 123.39 100.255C123.624 100.61 123.962 100.787 124.405 100.787ZM133.126 101.899C132.957 101.899 132.873 101.818 132.873 101.657V101.319C132.873 101.254 132.852 101.222 132.812 101.222C132.788 101.222 132.752 101.238 132.703 101.27C132.47 101.496 132.212 101.677 131.93 101.814C131.656 101.951 131.326 102.02 130.939 102.02C130.182 102.02 129.569 101.738 129.102 101.174C128.643 100.61 128.413 99.8001 128.413 98.7446C128.413 98.084 128.53 97.4998 128.764 96.9923C129.005 96.4766 129.328 96.0778 129.73 95.7958C130.133 95.5138 130.576 95.3728 131.06 95.3728C131.374 95.3728 131.656 95.4252 131.906 95.5299C132.164 95.6347 132.409 95.7958 132.643 96.0133C132.699 96.0536 132.74 96.0738 132.764 96.0738C132.82 96.0738 132.848 96.0214 132.848 95.9167V93.1491C132.848 93.0041 132.913 92.9316 133.042 92.9316H134.516C134.573 92.9316 134.617 92.9517 134.649 92.992C134.689 93.0323 134.71 93.0887 134.71 93.1612V101.645C134.71 101.734 134.689 101.798 134.649 101.838C134.609 101.879 134.536 101.899 134.432 101.899H133.126ZM132.848 97.1615C132.663 96.96 132.478 96.811 132.293 96.7143C132.115 96.6176 131.914 96.5693 131.688 96.5693C131.261 96.5693 130.923 96.7465 130.673 97.101C130.423 97.4475 130.298 97.9873 130.298 98.7205C130.298 99.4617 130.419 100.006 130.661 100.352C130.903 100.69 131.237 100.86 131.664 100.86C131.986 100.86 132.264 100.755 132.498 100.545C132.732 100.328 132.848 100.078 132.848 99.7961V97.1615ZM137.675 99.2401C137.675 99.6913 137.824 100.058 138.122 100.34C138.428 100.614 138.807 100.751 139.258 100.751C139.548 100.751 139.814 100.69 140.056 100.57C140.306 100.441 140.555 100.231 140.805 99.9411C140.837 99.9089 140.87 99.8928 140.902 99.8928C140.926 99.8928 140.966 99.9048 141.023 99.929L141.893 100.292C141.949 100.316 141.977 100.356 141.977 100.412C141.977 100.453 141.961 100.493 141.929 100.533C141.542 101.081 141.127 101.468 140.684 101.693C140.241 101.911 139.689 102.02 139.029 102.02C138.408 102.02 137.848 101.883 137.349 101.609C136.849 101.335 136.458 100.956 136.176 100.473C135.894 99.9814 135.753 99.4214 135.753 98.793C135.753 98.1162 135.899 97.52 136.189 97.0043C136.479 96.4806 136.869 96.0778 137.361 95.7958C137.86 95.5138 138.404 95.3728 138.992 95.3728C139.605 95.3728 140.149 95.5098 140.624 95.7837C141.099 96.0496 141.47 96.4363 141.736 96.9439C142.002 97.4515 142.135 98.0558 142.135 98.7567C142.135 98.8615 142.122 98.934 142.098 98.9743C142.082 99.0145 142.026 99.0387 141.929 99.0468H137.82C137.723 99.0468 137.675 99.1112 137.675 99.2401ZM140.104 98.0316C140.193 98.0316 140.249 98.0235 140.273 98.0074C140.298 97.9833 140.31 97.9349 140.31 97.8624C140.31 97.6529 140.261 97.4434 140.165 97.234C140.068 97.0245 139.927 96.8513 139.742 96.7143C139.556 96.5773 139.331 96.5088 139.065 96.5088C138.662 96.5088 138.332 96.6498 138.074 96.9318C137.816 97.2138 137.691 97.5764 137.699 98.0195L140.104 98.0316Z" fill="white"/>
<path d="M412.724 41.9273L414.933 62.0262L409.035 69.3797L403.122 76.7539L383.041 78.9608L362.942 81.1697L360.005 54.4454L357.068 27.7212L383.793 24.7841L410.517 21.8471L412.724 41.9273Z" fill="#BE185D"/>
<path d="M369.972 57.8154C369.892 57.8243 369.825 57.8073 369.772 57.7645C369.726 57.7208 369.699 57.655 369.689 57.5669L368.765 49.1577C368.748 49.0056 368.808 48.922 368.944 48.907L371.431 48.6337C371.519 48.6241 371.584 48.629 371.627 48.6487C371.67 48.6683 371.707 48.7128 371.739 48.7823L374.106 53.6164C374.137 53.6778 374.169 53.7067 374.201 53.7032C374.233 53.6997 374.257 53.6646 374.274 53.5979L375.461 48.4704C375.489 48.2809 375.567 48.1791 375.695 48.165L378.278 47.8812C378.398 47.868 378.466 47.9335 378.482 48.0776L379.406 56.4868C379.418 56.5909 379.402 56.6696 379.359 56.7229C379.316 56.7683 379.242 56.7966 379.138 56.8081L377.588 56.9784C377.492 56.989 377.422 56.9804 377.378 56.9528C377.342 56.9163 377.319 56.854 377.309 56.7659L376.652 50.7834C376.646 50.7273 376.631 50.7006 376.607 50.7032C376.582 50.7059 376.562 50.7405 376.545 50.8073L375.104 57.0568C375.078 57.1894 375.001 57.2627 374.873 57.2768L373.876 57.3864C373.732 57.4022 373.637 57.3478 373.591 57.2232L370.86 51.5172C370.829 51.4557 370.801 51.4263 370.777 51.429C370.745 51.4325 370.733 51.4703 370.741 51.5424L371.389 57.4408C371.399 57.5289 371.39 57.5907 371.361 57.6263C371.34 57.6529 371.285 57.6711 371.197 57.6808L369.972 57.8154ZM382.274 53.7886C382.323 54.2371 382.511 54.5852 382.838 54.833C383.172 55.0718 383.564 55.1666 384.012 55.1173C384.301 55.0856 384.558 54.9965 384.785 54.85C385.02 54.6946 385.245 54.459 385.462 54.1435C385.49 54.1079 385.52 54.0884 385.552 54.0848C385.576 54.0822 385.618 54.0898 385.676 54.1077L386.581 54.373C386.64 54.3909 386.672 54.4278 386.678 54.4839C386.683 54.5239 386.671 54.5657 386.643 54.6093C386.319 55.1961 385.949 55.6259 385.533 55.8985C385.116 56.1632 384.579 56.3316 383.923 56.4038C383.306 56.4715 382.734 56.3966 382.208 56.1788C381.681 55.9611 381.252 55.6274 380.919 55.1777C380.585 54.72 380.383 54.1788 380.315 53.5541C380.241 52.8814 380.32 52.2729 380.552 51.7286C380.783 51.1764 381.127 50.7332 381.585 50.3992C382.051 50.0644 382.576 49.8648 383.16 49.8006C383.769 49.7337 384.325 49.8104 384.827 50.0308C385.329 50.2431 385.739 50.587 386.059 51.0626C386.379 51.5381 386.577 52.1242 386.654 52.8209C386.665 52.9251 386.661 52.9985 386.641 53.0411C386.63 53.0829 386.576 53.1131 386.481 53.1317L382.397 53.5806C382.3 53.5912 382.259 53.6605 382.274 53.7886ZM384.556 52.322C384.644 52.3123 384.699 52.2981 384.722 52.2795C384.743 52.2528 384.75 52.2034 384.742 52.1313C384.719 51.9231 384.648 51.7202 384.529 51.5225C384.41 51.3248 384.251 51.1681 384.052 51.0521C383.853 50.9362 383.621 50.8928 383.357 50.9219C382.956 50.9659 382.643 51.1421 382.418 51.4506C382.192 51.7591 382.108 52.1331 382.164 52.5727L384.556 52.322ZM392.402 55.3503C392.234 55.3688 392.141 55.2979 392.123 55.1378L392.086 54.8014C392.079 54.7373 392.056 54.7075 392.016 54.7119C391.992 54.7145 391.957 54.7345 391.913 54.7718C391.705 55.0216 391.469 55.23 391.203 55.3969C390.946 55.563 390.625 55.6671 390.241 55.7094C389.488 55.7921 388.849 55.5787 388.322 55.0692C387.804 54.5587 387.488 53.7789 387.372 52.7298C387.3 52.0731 387.352 51.4797 387.529 50.9496C387.713 50.4106 387.99 49.979 388.36 49.6547C388.729 49.3304 389.154 49.1418 389.635 49.089C389.947 49.0547 390.233 49.0759 390.493 49.1528C390.761 49.2287 391.022 49.362 391.278 49.5527C391.339 49.5866 391.381 49.6023 391.405 49.5996C391.461 49.5934 391.484 49.5383 391.472 49.4342L391.17 46.6832C391.154 46.5391 391.21 46.4599 391.338 46.4458L392.804 46.2848C392.86 46.2786 392.906 46.2938 392.943 46.3303C392.987 46.366 393.013 46.4198 393.021 46.4919L393.948 54.9251C393.958 55.0132 393.945 55.0794 393.909 55.1239C393.873 55.1683 393.803 55.1963 393.699 55.2077L392.402 55.3503ZM391.608 50.6715C391.402 50.4916 391.201 50.3637 391.007 50.2878C390.82 50.2111 390.614 50.185 390.39 50.2096C389.966 50.2563 389.649 50.4695 389.439 50.8491C389.229 51.2208 389.164 51.771 389.244 52.4998C389.325 53.2366 389.504 53.764 389.782 54.082C390.06 54.3919 390.41 54.5236 390.835 54.4769C391.155 54.4417 391.42 54.3072 391.629 54.0735C391.838 53.8317 391.927 53.5707 391.896 53.2904L391.608 50.6715ZM396.358 47.3896C396.38 47.5898 396.283 47.7018 396.067 47.7255L394.77 47.8681C394.674 47.8787 394.603 47.8662 394.559 47.8305C394.513 47.7869 394.486 47.717 394.475 47.6209L394.336 46.3595C394.319 46.1993 394.378 46.1118 394.514 46.0968L396.004 45.9331C396.06 45.9269 396.106 45.9421 396.143 45.9786C396.187 46.0143 396.213 46.0681 396.221 46.1402L396.358 47.3896ZM397.12 54.54C397.131 54.6441 397.116 54.7228 397.073 54.7761C397.029 54.8215 396.947 54.8507 396.827 54.8639L395.566 55.0026C395.47 55.0131 395.4 55.0006 395.355 54.9649C395.311 54.9293 395.284 54.8674 395.274 54.7793L394.627 48.8929C394.61 48.7408 394.67 48.6572 394.806 48.6422L396.272 48.4812C396.392 48.468 396.459 48.5294 396.474 48.6656L397.12 54.54ZM401.921 53.684C401.446 54.2306 400.845 54.544 400.116 54.6241C399.515 54.6901 399.021 54.5823 398.633 54.3007C398.245 54.0111 398.022 53.606 397.965 53.0854C397.891 52.4127 398.14 51.8382 398.712 51.362C399.283 50.8858 400.109 50.5762 401.187 50.4334L401.616 50.3498C401.664 50.3445 401.702 50.3281 401.732 50.3006C401.768 50.2641 401.784 50.2179 401.777 50.1618L401.75 49.9095C401.715 49.5972 401.601 49.3666 401.406 49.2178C401.211 49.069 400.95 49.0126 400.622 49.0487C400.061 49.1103 399.671 49.3964 399.451 49.9068C399.428 49.9904 399.381 50.0362 399.308 50.0441C399.268 50.0485 399.232 50.0485 399.199 50.044L397.967 49.8997C397.894 49.8916 397.853 49.8515 397.845 49.7794C397.839 49.7314 397.849 49.6696 397.873 49.594C398.014 49.1083 398.316 48.7225 398.779 48.4366C399.25 48.1498 399.85 47.9663 400.579 47.8862C401.532 47.7815 402.24 47.882 402.703 48.1877C403.166 48.4854 403.432 48.9546 403.502 49.5953L403.966 53.8119C403.976 53.908 403.968 53.9779 403.94 54.0214C403.913 54.065 403.855 54.0916 403.767 54.1013L402.529 54.2373C402.449 54.2461 402.386 54.2246 402.34 54.173C402.302 54.1204 402.268 54.039 402.24 53.9286L402.199 53.6657C402.183 53.5945 402.147 53.562 402.091 53.5681C402.059 53.5716 402.002 53.6103 401.921 53.684ZM401.917 51.4352C401.909 51.3631 401.892 51.3124 401.864 51.283C401.837 51.2536 401.787 51.2429 401.715 51.2508L401.381 51.3118C400.919 51.3869 400.519 51.5443 400.181 51.7841C399.849 52.0151 399.703 52.3027 399.74 52.6471C399.767 52.8874 399.872 53.0703 400.056 53.196C400.239 53.3137 400.479 53.3562 400.775 53.3236C401.144 53.2832 401.444 53.1407 401.677 52.8963C401.918 52.659 402.027 52.4323 402.003 52.216L401.917 51.4352Z" fill="white"/>
<path d="M101.738 179.944L107.125 199.433L102.476 207.633L97.8148 215.856L78.3437 221.238L58.8547 226.625L51.6918 200.712L44.5289 174.799L70.4423 167.636L96.3557 160.473L101.738 179.944Z" fill="#15803D"/>
<path d="M62.7413 192.026C64.0331 191.712 64.907 191.504 65.363 191.401C66.9245 191.071 68.1754 191.186 69.1156 191.745C70.0558 192.304 70.6886 193.253 71.014 194.592C71.349 195.97 71.2153 197.143 70.6129 198.11C70.0106 199.077 68.9461 199.746 67.4195 200.117L64.8712 200.737C64.7772 200.76 64.702 200.757 64.6455 200.73C64.5949 200.692 64.5573 200.622 64.5325 200.521L62.5401 192.324C62.5191 192.238 62.5244 192.174 62.556 192.133C62.5856 192.085 62.6474 192.049 62.7413 192.026ZM64.9977 193.02C64.9273 193.037 64.9054 193.1 64.932 193.21L66.2651 198.694C66.2803 198.757 66.2986 198.798 66.32 198.818C66.3492 198.835 66.3951 198.837 66.4577 198.821L66.6808 198.767C67.6673 198.527 68.3402 198.123 68.6996 197.555C69.0648 196.977 69.119 196.16 68.8621 195.103C68.6242 194.124 68.2533 193.468 67.7494 193.135C67.2454 192.801 66.5689 192.713 65.7198 192.869L64.9977 193.02ZM76.5275 197.269C76.1268 197.872 75.5703 198.261 74.8579 198.434C74.2707 198.576 73.7668 198.533 73.3462 198.304C72.9237 198.066 72.6506 197.693 72.5269 197.184C72.3671 196.527 72.54 195.925 73.0458 195.379C73.5516 194.834 74.3301 194.42 75.3813 194.14L75.7955 194.002C75.8424 193.991 75.8787 193.969 75.9043 193.938C75.9359 193.897 75.945 193.85 75.9316 193.795L75.8717 193.548C75.7975 193.243 75.6543 193.029 75.4421 192.906C75.2299 192.784 74.9633 192.762 74.6423 192.84C74.0943 192.973 73.7443 193.307 73.5922 193.841C73.58 193.927 73.5386 193.978 73.4681 193.996C73.429 194.005 73.3928 194.01 73.3596 194.01L72.1196 194.025C72.0453 194.026 71.9996 193.992 71.9825 193.921C71.9711 193.874 71.9725 193.812 71.9867 193.734C72.0642 193.234 72.3141 192.813 72.7365 192.47C73.1667 192.125 73.738 191.865 74.4505 191.692C75.3821 191.466 76.0973 191.474 76.5959 191.718C77.0927 191.954 77.4172 192.385 77.5694 193.011L78.5714 197.133C78.5942 197.227 78.5947 197.297 78.5729 197.344C78.5511 197.391 78.4972 197.425 78.4111 197.446L77.2015 197.74C77.1232 197.759 77.0578 197.746 77.0054 197.7C76.9607 197.653 76.9173 197.577 76.8749 197.471L76.8004 197.215C76.7755 197.147 76.7356 197.119 76.6808 197.132C76.6495 197.14 76.5983 197.186 76.5275 197.269ZM76.2342 195.04C76.2171 194.969 76.193 194.921 76.1619 194.896C76.1308 194.87 76.08 194.866 76.0096 194.883L75.6864 194.986C75.2381 195.12 74.8615 195.328 74.5568 195.609C74.258 195.881 74.1495 196.185 74.2313 196.521C74.2884 196.756 74.4163 196.924 74.615 197.025C74.8117 197.118 75.0549 197.13 75.3446 197.059C75.7048 196.972 75.9844 196.792 76.1835 196.52C76.3924 196.253 76.4712 196.014 76.4198 195.803L76.2342 195.04ZM81.2696 191.477C81.1834 191.498 81.1518 191.556 81.1746 191.65L81.8626 194.48C81.9273 194.746 82.0365 194.923 82.1904 195.01C82.3423 195.089 82.5552 195.095 82.8292 195.028L83.4634 194.874C83.5182 194.861 83.566 194.87 83.6068 194.902C83.6458 194.925 83.6728 194.969 83.6881 195.031L83.8504 195.75C83.8885 195.907 83.8252 196.022 83.6606 196.095C83.3432 196.222 82.8831 196.359 82.2803 196.505C81.7322 196.638 81.2741 196.613 80.906 196.429C80.5379 196.245 80.2939 195.906 80.174 195.413L79.3747 192.125C79.3462 192.007 79.281 191.961 79.1792 191.986L78.4629 192.16C78.3141 192.196 78.2236 192.147 78.1912 192.014L77.98 191.145C77.9514 191.028 78.0076 190.952 78.1486 190.918L78.9589 190.721C79.0215 190.706 79.0502 190.653 79.0449 190.563L78.7754 188.738C78.7587 188.601 78.8013 188.52 78.903 188.496L80.1831 188.184C80.2379 188.171 80.2857 188.18 80.3265 188.212C80.3752 188.241 80.4081 188.291 80.4252 188.362L80.8534 190.123C80.8724 190.202 80.9211 190.231 80.9994 190.212L82.2324 189.913C82.3733 189.878 82.459 189.924 82.4895 190.049L82.7007 190.918C82.7331 191.051 82.6709 191.137 82.5144 191.175L81.2696 191.477ZM88.2135 194.429C87.8129 195.032 87.2564 195.42 86.544 195.593C85.9568 195.736 85.4529 195.693 85.0323 195.463C84.6098 195.226 84.3367 194.853 84.213 194.344C84.0532 193.686 84.2261 193.085 84.7319 192.539C85.2377 191.993 86.0162 191.58 87.0674 191.299L87.4816 191.161C87.5285 191.15 87.5648 191.129 87.5904 191.098C87.622 191.057 87.6311 191.009 87.6177 190.954L87.5578 190.708C87.4836 190.402 87.3404 190.188 87.1282 190.066C86.916 189.943 86.6494 189.921 86.3284 189.999C85.7804 190.132 85.4303 190.466 85.2783 191C85.2661 191.086 85.2247 191.138 85.1542 191.155C85.1151 191.165 85.0789 191.169 85.0457 191.169L83.8057 191.184C83.7314 191.186 83.6857 191.151 83.6686 191.081C83.6572 191.034 83.6586 190.971 83.6727 190.893C83.7503 190.394 84.0002 189.972 84.4226 189.629C84.8528 189.284 85.4241 189.025 86.1366 188.852C87.0682 188.625 87.7834 188.634 88.282 188.877C88.7788 189.113 89.1033 189.544 89.2555 190.171L90.2575 194.292C90.2803 194.386 90.2808 194.457 90.259 194.504C90.2372 194.55 90.1833 194.584 90.0972 194.605L88.8876 194.899C88.8093 194.918 88.7439 194.905 88.6914 194.86C88.6468 194.813 88.6033 194.736 88.561 194.63L88.4865 194.375C88.4615 194.306 88.4217 194.279 88.3669 194.292C88.3355 194.299 88.2844 194.345 88.2135 194.429ZM87.9203 192.199C87.9032 192.129 87.8791 192.081 87.848 192.055C87.8169 192.029 87.7661 192.025 87.6956 192.042L87.3725 192.146C86.9242 192.279 86.5476 192.487 86.2429 192.768C85.9441 193.04 85.8356 193.344 85.9174 193.681C85.9745 193.916 86.1024 194.084 86.3011 194.185C86.4978 194.278 86.741 194.289 87.0307 194.219C87.3908 194.131 87.6705 193.951 87.8696 193.679C88.0785 193.413 88.1573 193.174 88.1059 192.962L87.9203 192.199Z" fill="white"/>
<path d="M412.241 223.083L410.073 243.186L402.731 249.099L395.369 255.027L375.284 252.861L355.181 250.693L358.064 223.963L360.946 197.233L387.677 200.116L414.407 202.998L412.241 223.083Z" fill="#9E77ED"/>
<path d="M372.558 221.19C372.565 221.126 372.59 221.076 372.635 221.04C372.687 221.005 372.749 220.992 372.821 220.999L379.718 221.743C379.879 221.761 379.951 221.841 379.935 221.985L379.815 223.103C379.802 223.223 379.723 223.275 379.579 223.26L377.332 223.017C377.244 223.008 377.196 223.043 377.187 223.123L376.426 230.177C376.41 230.329 376.334 230.398 376.197 230.383L374.479 230.198C374.359 230.185 374.306 230.11 374.321 229.974L375.08 222.933C375.086 222.877 375.079 222.835 375.057 222.809C375.044 222.783 375.013 222.767 374.965 222.762L372.646 222.512C372.494 222.496 372.424 222.427 372.437 222.307L372.558 221.19ZM380.585 228.182C380.537 228.63 380.646 229.011 380.912 229.323C381.187 229.628 381.549 229.805 381.997 229.854C382.286 229.885 382.556 229.853 382.81 229.759C383.072 229.657 383.343 229.476 383.622 229.214C383.657 229.186 383.691 229.173 383.723 229.177C383.747 229.179 383.786 229.196 383.84 229.226L384.666 229.679C384.719 229.71 384.743 229.753 384.737 229.809C384.733 229.849 384.712 229.887 384.676 229.924C384.233 230.427 383.779 230.767 383.314 230.944C382.85 231.112 382.29 231.161 381.633 231.091C381.016 231.024 380.474 230.828 380.007 230.502C379.539 230.176 379.191 229.758 378.963 229.247C378.735 228.728 378.655 228.156 378.723 227.531C378.795 226.858 379.003 226.281 379.347 225.8C379.691 225.31 380.123 224.951 380.642 224.724C381.169 224.497 381.725 224.415 382.309 224.478C382.918 224.544 383.444 224.738 383.888 225.062C384.332 225.377 384.659 225.801 384.869 226.334C385.078 226.867 385.146 227.483 385.071 228.179C385.059 228.284 385.04 228.354 385.011 228.392C384.991 228.43 384.932 228.448 384.835 228.446L380.75 228.005C380.654 227.995 380.599 228.054 380.585 228.182ZM383.13 227.241C383.218 227.25 383.275 227.248 383.301 227.235C383.327 227.213 383.344 227.167 383.352 227.095C383.375 226.886 383.349 226.673 383.275 226.454C383.202 226.236 383.08 226.048 382.911 225.892C382.741 225.736 382.524 225.644 382.26 225.615C381.859 225.572 381.516 225.677 381.229 225.93C380.943 226.182 380.779 226.529 380.74 226.971L383.13 227.241ZM391.467 231.616C391.549 231.755 391.587 231.856 391.58 231.92C391.571 232 391.491 232.032 391.339 232.016L389.801 231.85C389.608 231.829 389.479 231.75 389.413 231.614L388.363 229.738C388.31 229.627 388.268 229.57 388.236 229.566C388.204 229.563 388.151 229.606 388.076 229.695L386.625 231.313C386.531 231.433 386.392 231.482 386.208 231.462L385.223 231.356C385.03 231.335 384.94 231.269 384.952 231.157C384.962 231.069 385.021 230.97 385.13 230.86L387.374 228.537C387.43 228.47 387.46 228.417 387.465 228.377C387.471 228.321 387.45 228.25 387.402 228.163L385.741 225.31C385.713 225.267 385.702 225.217 385.709 225.161C385.714 225.113 385.738 225.071 385.783 225.035C385.827 224.999 385.885 224.985 385.958 224.993L387.423 225.151C387.528 225.162 387.602 225.187 387.647 225.224C387.7 225.254 387.747 225.308 387.787 225.385L388.735 227.079C388.768 227.148 388.801 227.184 388.833 227.187C388.857 227.19 388.892 227.161 388.939 227.102L390.166 225.641C390.222 225.575 390.275 225.532 390.326 225.513C390.386 225.487 390.471 225.48 390.584 225.492L391.665 225.609C391.801 225.623 391.865 225.671 391.856 225.751C391.852 225.791 391.822 225.84 391.767 225.899L389.715 228.133C389.661 228.184 389.631 228.238 389.625 228.294C389.621 228.334 389.642 228.401 389.688 228.495L391.467 231.616ZM395.237 227.282C395.149 227.273 395.099 227.316 395.089 227.412L394.777 230.308C394.747 230.58 394.79 230.784 394.905 230.918C395.022 231.043 395.22 231.122 395.5 231.152L396.149 231.222C396.205 231.228 396.247 231.253 396.275 231.296C396.303 231.332 396.314 231.381 396.307 231.446L396.216 232.177C396.199 232.337 396.1 232.424 395.921 232.437C395.579 232.449 395.1 232.421 394.483 232.355C393.922 232.294 393.5 232.115 393.216 231.817C392.932 231.519 392.817 231.118 392.872 230.613L393.235 227.249C393.248 227.129 393.202 227.063 393.098 227.052L392.365 226.973C392.213 226.956 392.144 226.88 392.159 226.744L392.255 225.855C392.268 225.734 392.346 225.682 392.49 225.698L393.319 225.787C393.384 225.794 393.428 225.754 393.454 225.668L393.819 223.86C393.85 223.725 393.917 223.664 394.021 223.675L395.331 223.816C395.387 223.822 395.429 223.847 395.457 223.89C395.492 223.935 395.506 223.993 395.499 224.065L395.304 225.867C395.296 225.947 395.331 225.992 395.411 226.001L396.673 226.137C396.817 226.152 396.882 226.224 396.869 226.352L396.773 227.241C396.758 227.377 396.671 227.437 396.51 227.42L395.237 227.282Z" fill="white"/>
<path d="M261.291 59.691V79.9109L254.625 86.5762L247.941 93.2601H227.74H207.52V66.375V39.4898H234.405H261.291V59.691Z" fill="#EAAA08"/>
<path d="M220.438 61.8461C221.768 61.8461 222.666 61.8501 223.133 61.8582C224.729 61.9065 225.917 62.3134 226.698 63.0788C227.48 63.8442 227.871 64.9158 227.871 66.2935C227.871 67.7116 227.464 68.8194 226.65 69.617C225.836 70.4147 224.644 70.8135 223.073 70.8135H220.45C220.354 70.8135 220.281 70.7933 220.233 70.753C220.192 70.7047 220.172 70.6282 220.172 70.5234V62.0878C220.172 61.9992 220.192 61.9388 220.233 61.9065C220.273 61.8663 220.342 61.8461 220.438 61.8461ZM222.396 63.3447C222.324 63.3447 222.287 63.4011 222.287 63.5139V69.1578C222.287 69.2222 222.295 69.2665 222.311 69.2907C222.336 69.3149 222.38 69.327 222.444 69.327H222.674C223.689 69.327 224.439 69.0933 224.922 68.626C225.413 68.1507 225.659 67.3691 225.659 66.2815C225.659 65.2743 225.454 64.5492 225.043 64.1061C224.632 63.663 223.995 63.4172 223.133 63.3689L222.396 63.3447ZM232.596 70.1971C232.064 70.6886 231.432 70.9343 230.698 70.9343C230.094 70.9343 229.615 70.7732 229.26 70.4509C228.906 70.1206 228.729 69.6936 228.729 69.1699C228.729 68.4931 229.039 67.9492 229.659 67.5383C230.279 67.1274 231.134 66.9099 232.221 66.8857L232.656 66.8495C232.705 66.8495 232.745 66.8374 232.777 66.8132C232.817 66.781 232.838 66.7367 232.838 66.6803V66.4265C232.838 66.1123 232.749 65.8706 232.572 65.7014C232.394 65.5322 232.141 65.4476 231.81 65.4476C231.246 65.4476 230.827 65.6893 230.553 66.1727C230.521 66.2533 230.469 66.2935 230.396 66.2935C230.356 66.2935 230.32 66.2895 230.288 66.2815L229.079 66.0035C229.006 65.9874 228.97 65.9431 228.97 65.8706C228.97 65.8222 228.986 65.7618 229.019 65.6893C229.212 65.222 229.554 64.8715 230.046 64.6378C230.545 64.4042 231.162 64.2874 231.895 64.2874C232.854 64.2874 233.547 64.4646 233.974 64.8191C234.401 65.1656 234.614 65.6611 234.614 66.3056V70.5476C234.614 70.6443 234.598 70.7128 234.566 70.753C234.534 70.7933 234.473 70.8135 234.384 70.8135H233.14C233.059 70.8135 232.999 70.7853 232.958 70.7289C232.926 70.6725 232.902 70.5879 232.886 70.4751L232.874 70.2092C232.866 70.1367 232.834 70.1004 232.777 70.1004C232.745 70.1004 232.684 70.1327 232.596 70.1971ZM232.838 67.9613C232.838 67.8888 232.825 67.8364 232.801 67.8042C232.777 67.772 232.729 67.7559 232.656 67.7559L232.318 67.78C231.851 67.8042 231.436 67.917 231.073 68.1184C230.719 68.3118 230.541 68.5817 230.541 68.9282C230.541 69.1699 230.626 69.3632 230.795 69.5083C230.964 69.6452 231.198 69.7137 231.496 69.7137C231.867 69.7137 232.181 69.6049 232.439 69.3874C232.705 69.1779 232.838 68.9644 232.838 68.7469V67.9613ZM238.572 65.6893C238.483 65.6893 238.439 65.7376 238.439 65.8343V68.7469C238.439 69.0208 238.503 69.2182 238.632 69.3391C238.761 69.4519 238.967 69.5083 239.249 69.5083H239.901C239.958 69.5083 240.002 69.5284 240.034 69.5687C240.066 69.6009 240.082 69.6493 240.082 69.7137L240.07 70.4509C240.07 70.6121 239.982 70.7087 239.805 70.741C239.466 70.7893 238.987 70.8135 238.366 70.8135C237.802 70.8135 237.363 70.6805 237.049 70.4147C236.735 70.1488 236.578 69.762 236.578 69.2545V65.8706C236.578 65.7497 236.525 65.6893 236.421 65.6893H235.683C235.53 65.6893 235.454 65.6208 235.454 65.4838V64.5895C235.454 64.4686 235.526 64.4082 235.671 64.4082H236.505C236.57 64.4082 236.61 64.3639 236.626 64.2753L236.795 62.4383C236.811 62.3013 236.872 62.2328 236.977 62.2328H238.294C238.35 62.2328 238.395 62.253 238.427 62.2933C238.467 62.3336 238.487 62.39 238.487 62.4625V64.2753C238.487 64.3558 238.527 64.3961 238.608 64.3961H239.877C240.022 64.3961 240.095 64.4606 240.095 64.5895V65.4838C240.095 65.6208 240.014 65.6893 239.853 65.6893H238.572ZM244.622 70.1971C244.09 70.6886 243.458 70.9343 242.725 70.9343C242.121 70.9343 241.641 70.7732 241.287 70.4509C240.932 70.1206 240.755 69.6936 240.755 69.1699C240.755 68.4931 241.065 67.9492 241.685 67.5383C242.306 67.1274 243.16 66.9099 244.248 66.8857L244.683 66.8495C244.731 66.8495 244.771 66.8374 244.804 66.8132C244.844 66.781 244.864 66.7367 244.864 66.6803V66.4265C244.864 66.1123 244.775 65.8706 244.598 65.7014C244.421 65.5322 244.167 65.4476 243.837 65.4476C243.273 65.4476 242.854 65.6893 242.58 66.1727C242.548 66.2533 242.495 66.2935 242.423 66.2935C242.382 66.2935 242.346 66.2895 242.314 66.2815L241.105 66.0035C241.033 65.9874 240.997 65.9431 240.997 65.8706C240.997 65.8222 241.013 65.7618 241.045 65.6893C241.238 65.222 241.581 64.8715 242.072 64.6378C242.572 64.4042 243.188 64.2874 243.921 64.2874C244.88 64.2874 245.573 64.4646 246 64.8191C246.427 65.1656 246.64 65.6611 246.64 66.3056V70.5476C246.64 70.6443 246.624 70.7128 246.592 70.753C246.56 70.7933 246.5 70.8135 246.411 70.8135H245.166C245.086 70.8135 245.025 70.7853 244.985 70.7289C244.953 70.6725 244.928 70.5879 244.912 70.4751L244.9 70.2092C244.892 70.1367 244.86 70.1004 244.804 70.1004C244.771 70.1004 244.711 70.1327 244.622 70.1971ZM244.864 67.9613C244.864 67.8888 244.852 67.8364 244.828 67.8042C244.804 67.772 244.755 67.7559 244.683 67.7559L244.344 67.78C243.877 67.8042 243.462 67.917 243.099 68.1184C242.745 68.3118 242.568 68.5817 242.568 68.9282C242.568 69.1699 242.652 69.3632 242.822 69.5083C242.991 69.6452 243.224 69.7137 243.522 69.7137C243.893 69.7137 244.207 69.6049 244.465 69.3874C244.731 69.1779 244.864 68.9644 244.864 68.7469V67.9613Z" fill="white"/>
<path d="M150.453 240.846L303.863 242.34C304.574 242.347 305.156 242.929 305.164 243.639L307.203 438.099C307.211 438.81 306.641 439.38 305.93 439.373L152.52 437.879C151.809 437.872 151.227 437.29 151.22 436.58L149.18 242.12C149.173 241.409 149.743 240.839 150.453 240.846Z" fill="white" stroke="#A5B4FC" stroke-width="2"/>
<path d="M303.865 242.483L150.455 240.988C149.823 240.982 149.317 241.489 149.323 242.121L151.363 436.581C151.37 437.212 151.887 437.729 152.518 437.735L305.928 439.23C306.56 439.236 307.066 438.729 307.06 438.097L305.02 243.637C305.014 243.006 304.496 242.489 303.865 242.483Z" stroke="#A5B4FC" stroke-width="2"/>
<path d="M142.16 230.742L295.57 232.236C296.281 232.243 296.863 232.825 296.871 233.535L298.91 427.995C298.918 428.706 298.348 429.276 297.637 429.269L144.227 427.775C143.516 427.768 142.934 427.186 142.927 426.476L140.887 232.016C140.88 231.305 141.45 230.735 142.16 230.742Z" fill="white" stroke="#A5B4FC" stroke-width="2"/>
<path d="M295.572 232.38L142.162 230.885C141.53 230.879 141.024 231.386 141.03 232.018L143.07 426.478C143.077 427.11 143.594 427.626 144.225 427.633L297.635 429.127C298.267 429.133 298.773 428.626 298.767 427.995L296.727 233.534C296.721 232.903 296.203 232.386 295.572 232.38Z" stroke="#A5B4FC" stroke-width="2.2868"/>
<path d="M135.667 217.645L288.03 219.129C289.008 219.138 289.809 219.939 289.82 220.917L291.845 414.049C291.855 415.027 291.071 415.812 290.093 415.803L137.73 414.319C136.752 414.309 135.951 413.509 135.94 412.53L133.915 219.398C133.905 218.42 134.689 217.635 135.667 217.645Z" fill="white" stroke="#A5B4FC"/>
<path d="M155.135 256.2L268.689 257.306" stroke="#A5B4FC" stroke-width="2" stroke-linecap="round"/>
<path d="M155.254 267.555L268.808 268.661" stroke="#A5B4FC" stroke-width="2" stroke-linecap="round"/>
<path d="M155.373 278.91L268.927 280.016" stroke="#A5B4FC" stroke-width="2" stroke-linecap="round"/>
<path d="M155.492 290.266L269.046 291.372" stroke="#A5B4FC" stroke-width="2" stroke-linecap="round"/>
<path d="M155.611 301.621L269.165 302.727" stroke="#A5B4FC" stroke-width="2" stroke-linecap="round"/>
<path d="M155.73 312.976L269.284 314.082" stroke="#A5B4FC" stroke-width="2" stroke-linecap="round"/>
<path d="M155.85 324.331L269.404 325.437" stroke="#A5B4FC" stroke-width="2" stroke-linecap="round"/>
<path d="M155.969 335.687L269.523 336.793" stroke="#A5B4FC" stroke-width="2" stroke-linecap="round"/>
<path d="M156.088 347.042L211.729 347.584" stroke="#A5B4FC" stroke-width="2" stroke-linecap="round"/>
<path d="M288.037 219.764L135.674 218.28C135.047 218.274 134.544 218.778 134.55 219.405L136.576 412.537C136.583 413.164 137.096 413.677 137.723 413.684L290.086 415.168C290.713 415.174 291.216 414.67 291.21 414.043L289.184 220.911C289.178 220.284 288.664 219.77 288.037 219.764Z" stroke="#A5B4FC" stroke-width="2.27118"/>
</g>
<defs>
<clipPath id="clip0_331_10991">
<rect width="416" height="366" fill="white"/>
</clipPath>
</defs>
</svg>
