<svg width="416" height="366" viewBox="0 0 416 366" fill="none" xmlns="http://www.w3.org/2000/svg">
<g clip-path="url(#clip0_101_255)">
<path d="M298.611 258.727L130.667 257.325C129.285 257.313 128.176 258.265 128.19 259.45L130.423 441.943C130.437 443.128 131.57 444.098 132.952 444.11L300.896 445.512C302.279 445.524 303.388 444.572 303.373 443.387L301.141 260.894C301.126 259.709 299.993 258.739 298.611 258.727Z" fill="white"/>
<path d="M298.624 259.799L130.68 258.397C129.989 258.391 129.435 258.867 129.442 259.46L131.675 441.953C131.682 442.546 132.248 443.031 132.939 443.037L300.883 444.439C301.574 444.445 302.129 443.969 302.121 443.377L299.889 260.883C299.881 260.29 299.315 259.805 298.624 259.799Z" stroke="#94A3B8" stroke-width="2"/>
<path d="M121.601 247.904L289.545 249.306C290.525 249.315 291.056 249.971 291.062 250.465L293.295 432.958C293.301 433.452 292.786 434.1 291.805 434.091L123.862 432.689C122.881 432.681 122.35 432.025 122.344 431.531L120.111 249.038C120.105 248.544 120.62 247.896 121.601 247.904Z" fill="white" stroke="#94A3B8" stroke-width="2"/>
<path d="M281.283 237.413L114.486 236.021C113.113 236.009 112.012 236.954 112.026 238.131L114.244 419.378C114.258 420.555 115.383 421.519 116.756 421.53L283.553 422.923C284.926 422.934 286.027 421.99 286.013 420.812L283.795 239.565C283.781 238.388 282.656 237.425 281.283 237.413Z" fill="white"/>
<path d="M135.803 272.673L260.116 273.711" stroke="#94A3B8" stroke-width="2" stroke-linecap="round"/>
<path d="M135.934 283.329L260.246 284.367" stroke="#94A3B8" stroke-width="2" stroke-linecap="round"/>
<path d="M136.064 293.985L260.376 295.023" stroke="#94A3B8" stroke-width="2" stroke-linecap="round"/>
<path d="M136.194 304.642L260.507 305.68" stroke="#94A3B8" stroke-width="2" stroke-linecap="round"/>
<path d="M136.324 315.298L260.637 316.336" stroke="#94A3B8" stroke-width="2" stroke-linecap="round"/>
<path d="M136.455 325.955L260.767 326.993" stroke="#94A3B8" stroke-width="2" stroke-linecap="round"/>
<path d="M136.586 336.611L260.899 337.649" stroke="#94A3B8" stroke-width="2" stroke-linecap="round"/>
<path d="M136.717 347.268L261.029 348.306" stroke="#94A3B8" stroke-width="2" stroke-linecap="round"/>
<path d="M136.847 357.924L197.76 358.433" stroke="#94A3B8" stroke-width="2" stroke-linecap="round"/>
<path d="M281.296 238.479L114.499 237.087C113.813 237.081 113.262 237.553 113.269 238.142L115.487 419.389C115.494 419.978 116.056 420.459 116.743 420.465L283.54 421.858C284.226 421.863 284.777 421.391 284.77 420.802L282.552 239.555C282.545 238.967 281.983 238.485 281.296 238.479Z" stroke="#94A3B8" stroke-width="2"/>
<g opacity="0.8">
<rect width="56.9039" height="56.9039" rx="4.74199" transform="matrix(-1 8.74228e-08 8.74228e-08 1 92.9038 27.3206)" fill="#475569"/>
<path d="M61.2139 59.856C61.2139 59.1257 61.3135 58.4729 61.5126 57.8975C61.7118 57.3222 62.0327 56.78 62.4752 56.271C62.94 55.762 63.5485 55.242 64.3009 54.7109C64.9648 54.2241 65.4959 53.7925 65.8942 53.4163C66.3147 53.0401 66.6134 52.6639 66.7905 52.2877C66.9896 51.9115 67.0892 51.4911 67.0892 51.0264C67.0892 50.3182 66.8236 49.7871 66.2925 49.4331C65.7836 49.0569 65.0644 48.8688 64.1349 48.8688C63.2055 48.8688 62.2871 49.0126 61.3798 49.3003C60.4725 49.588 59.5431 49.9752 58.5916 50.4621L56.8323 46.9103C57.9166 46.3128 59.0895 45.826 60.3508 45.4498C61.6122 45.0736 62.9953 44.8855 64.5001 44.8855C66.8015 44.8855 68.5829 45.4387 69.8443 46.5452C71.1278 47.6517 71.7695 49.0569 71.7695 50.7608C71.7695 51.6681 71.6257 52.4537 71.338 53.1176C71.0503 53.7815 70.6188 54.4011 70.0435 54.9765C69.4681 55.5297 68.7489 56.1272 67.8859 56.7689C67.2441 57.2336 66.7462 57.632 66.3921 57.9639C66.0381 58.2958 65.7946 58.6167 65.6619 58.9265C65.5512 59.2363 65.4959 59.6236 65.4959 60.0883V61.0509L61.2139 61.0509V59.856ZM60.6828 66.5943C60.6828 65.5764 60.9594 64.8682 61.5126 64.4699C62.0659 64.0495 62.7408 63.8392 63.5375 63.8392C64.312 63.8392 64.9759 64.0495 65.5291 64.4699C66.0823 64.8682 66.3589 65.5764 66.3589 66.5943C66.3589 67.568 66.0823 68.2762 65.5291 68.7187C64.9759 69.1392 64.312 69.3494 63.5375 69.3494C62.7408 69.3494 62.0659 69.1392 61.5126 68.7187C60.9594 68.2762 60.6828 67.568 60.6828 66.5943Z" fill="white"/>
<rect width="56.9039" height="56.9039" rx="4.74199" transform="matrix(-1 8.74228e-08 8.74228e-08 1 164.702 27.3206)" fill="#475569"/>
<path d="M133.012 59.856C133.012 59.1257 133.111 58.4729 133.31 57.8975C133.51 57.3222 133.831 56.78 134.273 56.271C134.738 55.762 135.346 55.242 136.099 54.7109C136.763 54.2241 137.294 53.7925 137.692 53.4163C138.113 53.0401 138.411 52.6639 138.588 52.2877C138.787 51.9115 138.887 51.4911 138.887 51.0264C138.887 50.3182 138.621 49.7871 138.09 49.4331C137.581 49.0569 136.862 48.8688 135.933 48.8688C135.003 48.8688 134.085 49.0126 133.178 49.3003C132.27 49.588 131.341 49.9752 130.389 50.4621L128.63 46.9103C129.714 46.3128 130.887 45.826 132.149 45.4498C133.41 45.0736 134.793 44.8855 136.298 44.8855C138.599 44.8855 140.381 45.4387 141.642 46.5452C142.926 47.6517 143.567 49.0569 143.567 50.7608C143.567 51.6681 143.424 52.4537 143.136 53.1176C142.848 53.7815 142.417 54.4011 141.841 54.9765C141.266 55.5297 140.547 56.1272 139.684 56.7689C139.042 57.2336 138.544 57.632 138.19 57.9639C137.836 58.2958 137.592 58.6167 137.46 58.9265C137.349 59.2363 137.294 59.6236 137.294 60.0883V61.0509L133.012 61.0509V59.856ZM132.481 66.5943C132.481 65.5764 132.757 64.8682 133.31 64.4699C133.864 64.0495 134.539 63.8392 135.335 63.8392C136.11 63.8392 136.774 64.0495 137.327 64.4699C137.88 64.8682 138.157 65.5764 138.157 66.5943C138.157 67.568 137.88 68.2762 137.327 68.7187C136.774 69.1392 136.11 69.3494 135.335 69.3494C134.539 69.3494 133.864 69.1392 133.31 68.7187C132.757 68.2762 132.481 67.568 132.481 66.5943Z" fill="white"/>
<rect width="56.9039" height="56.9039" rx="4.74199" transform="matrix(-1 8.74228e-08 8.74228e-08 1 236.5 27.3206)" fill="#475569"/>
<path d="M204.811 59.856C204.811 59.1257 204.91 58.4729 205.109 57.8975C205.308 57.3222 205.629 56.78 206.072 56.271C206.537 55.762 207.145 55.242 207.898 54.7109C208.561 54.2241 209.093 53.7925 209.491 53.4163C209.911 53.0401 210.21 52.6639 210.387 52.2877C210.586 51.9115 210.686 51.4911 210.686 51.0264C210.686 50.3182 210.42 49.7871 209.889 49.4331C209.38 49.0569 208.661 48.8688 207.732 48.8688C206.802 48.8688 205.884 49.0126 204.977 49.3003C204.069 49.588 203.14 49.9752 202.188 50.4621L200.429 46.9103C201.513 46.3128 202.686 45.826 203.948 45.4498C205.209 45.0736 206.592 44.8855 208.097 44.8855C210.398 44.8855 212.18 45.4387 213.441 46.5452C214.724 47.6517 215.366 49.0569 215.366 50.7608C215.366 51.6681 215.222 52.4537 214.935 53.1176C214.647 53.7815 214.216 54.4011 213.64 54.9765C213.065 55.5297 212.346 56.1272 211.483 56.7689C210.841 57.2336 210.343 57.632 209.989 57.9639C209.635 58.2958 209.391 58.6167 209.259 58.9265C209.148 59.2363 209.093 59.6236 209.093 60.0883V61.0509L204.811 61.0509V59.856ZM204.279 66.5943C204.279 65.5764 204.556 64.8682 205.109 64.4699C205.663 64.0495 206.337 63.8392 207.134 63.8392C207.909 63.8392 208.573 64.0495 209.126 64.4699C209.679 64.8682 209.956 65.5764 209.956 66.5943C209.956 67.568 209.679 68.2762 209.126 68.7187C208.573 69.1392 207.909 69.3494 207.134 69.3494C206.337 69.3494 205.663 69.1392 205.109 68.7187C204.556 68.2762 204.279 67.568 204.279 66.5943Z" fill="white"/>
<rect width="56.9039" height="56.9039" rx="4.74199" transform="matrix(-1 8.74228e-08 8.74228e-08 1 308.298 27.3206)" fill="#475569"/>
<path d="M276.608 59.856C276.608 59.1257 276.708 58.4729 276.907 57.8975C277.106 57.3222 277.427 56.78 277.87 56.271C278.334 55.762 278.943 55.242 279.695 54.7109C280.359 54.2241 280.89 53.7925 281.289 53.4163C281.709 53.0401 282.008 52.6639 282.185 52.2877C282.384 51.9115 282.484 51.4911 282.484 51.0264C282.484 50.3182 282.218 49.7871 281.687 49.4331C281.178 49.0569 280.459 48.8688 279.529 48.8688C278.6 48.8688 277.682 49.0126 276.774 49.3003C275.867 49.588 274.938 49.9752 273.986 50.4621L272.227 46.9103C273.311 46.3128 274.484 45.826 275.745 45.4498C277.007 45.0736 278.39 44.8855 279.895 44.8855C282.196 44.8855 283.977 45.4387 285.239 46.5452C286.522 47.6517 287.164 49.0569 287.164 50.7608C287.164 51.6681 287.02 52.4537 286.733 53.1176C286.445 53.7815 286.013 54.4011 285.438 54.9765C284.863 55.5297 284.143 56.1272 283.28 56.7689C282.639 57.2336 282.141 57.632 281.787 57.9639C281.433 58.2958 281.189 58.6167 281.056 58.9265C280.946 59.2363 280.89 59.6236 280.89 60.0883V61.0509L276.608 61.0509V59.856ZM276.077 66.5943C276.077 65.5764 276.354 64.8682 276.907 64.4699C277.46 64.0495 278.135 63.8392 278.932 63.8392C279.707 63.8392 280.37 64.0495 280.924 64.4699C281.477 64.8682 281.753 65.5764 281.753 66.5943C281.753 67.568 281.477 68.2762 280.924 68.7187C280.37 69.1392 279.707 69.3494 278.932 69.3494C278.135 69.3494 277.46 69.1392 276.907 68.7187C276.354 68.2762 276.077 67.568 276.077 66.5943Z" fill="white"/>
<rect width="56.9039" height="56.9039" rx="4.74199" transform="matrix(-1 8.74228e-08 8.74228e-08 1 380.097 27.3206)" fill="#475569"/>
<path d="M348.407 59.856C348.407 59.1257 348.506 58.4729 348.705 57.8975C348.905 57.3222 349.226 56.78 349.668 56.271C350.133 55.762 350.741 55.242 351.494 54.7109C352.158 54.2241 352.689 53.7925 353.087 53.4163C353.508 53.0401 353.806 52.6639 353.983 52.2877C354.182 51.9115 354.282 51.4911 354.282 51.0264C354.282 50.3182 354.017 49.7871 353.485 49.4331C352.976 49.0569 352.257 48.8688 351.328 48.8688C350.398 48.8688 349.48 49.0126 348.573 49.3003C347.665 49.588 346.736 49.9752 345.784 50.4621L344.025 46.9103C345.109 46.3128 346.282 45.826 347.544 45.4498C348.805 45.0736 350.188 44.8855 351.693 44.8855C353.994 44.8855 355.776 45.4387 357.037 46.5452C358.321 47.6517 358.962 49.0569 358.962 50.7608C358.962 51.6681 358.819 52.4537 358.531 53.1176C358.243 53.7815 357.812 54.4011 357.236 54.9765C356.661 55.5297 355.942 56.1272 355.079 56.7689C354.437 57.2336 353.939 57.632 353.585 57.9639C353.231 58.2958 352.988 58.6167 352.855 58.9265C352.744 59.2363 352.689 59.6236 352.689 60.0883V61.0509L348.407 61.0509V59.856ZM347.876 66.5943C347.876 65.5764 348.152 64.8682 348.705 64.4699C349.259 64.0495 349.934 63.8392 350.73 63.8392C351.505 63.8392 352.169 64.0495 352.722 64.4699C353.275 64.8682 353.552 65.5764 353.552 66.5943C353.552 67.568 353.275 68.2762 352.722 68.7187C352.169 69.1392 351.505 69.3494 350.73 69.3494C349.934 69.3494 349.259 69.1392 348.705 68.7187C348.152 68.2762 347.876 67.568 347.876 66.5943Z" fill="white"/>
<rect width="56.9039" height="56.9039" rx="4.74199" transform="matrix(-1 8.74228e-08 8.74228e-08 1 92.9038 99.1188)" fill="#475569"/>
<path d="M61.2139 131.654C61.2139 130.924 61.3135 130.271 61.5126 129.696C61.7118 129.12 62.0327 128.578 62.4752 128.069C62.94 127.56 63.5485 127.04 64.3009 126.509C64.9648 126.022 65.4959 125.591 65.8942 125.215C66.3147 124.838 66.6134 124.462 66.7905 124.086C66.9896 123.71 67.0892 123.289 67.0892 122.825C67.0892 122.116 66.8236 121.585 66.2925 121.231C65.7836 120.855 65.0644 120.667 64.1349 120.667C63.2055 120.667 62.2871 120.811 61.3798 121.099C60.4725 121.386 59.5431 121.773 58.5916 122.26L56.8323 118.709C57.9166 118.111 59.0895 117.624 60.3508 117.248C61.6122 116.872 62.9953 116.684 64.5001 116.684C66.8015 116.684 68.5829 117.237 69.8443 118.343C71.1278 119.45 71.7695 120.855 71.7695 122.559C71.7695 123.466 71.6257 124.252 71.338 124.916C71.0503 125.58 70.6188 126.199 70.0435 126.775C69.4681 127.328 68.7489 127.925 67.8859 128.567C67.2441 129.032 66.7462 129.43 66.3921 129.762C66.0381 130.094 65.7946 130.415 65.6619 130.725C65.5512 131.035 65.4959 131.422 65.4959 131.887V132.849L61.2139 132.849V131.654ZM60.6828 138.393C60.6828 137.375 60.9594 136.666 61.5126 136.268C62.0659 135.848 62.7408 135.637 63.5375 135.637C64.312 135.637 64.9759 135.848 65.5291 136.268C66.0823 136.666 66.3589 137.375 66.3589 138.393C66.3589 139.366 66.0823 140.074 65.5291 140.517C64.9759 140.937 64.312 141.148 63.5375 141.148C62.7408 141.148 62.0659 140.937 61.5126 140.517C60.9594 140.074 60.6828 139.366 60.6828 138.393Z" fill="white"/>
<rect width="56.9039" height="56.9039" rx="4.74199" transform="matrix(-1 8.74228e-08 8.74228e-08 1 164.702 99.1188)" fill="#475569"/>
<path d="M133.012 131.654C133.012 130.924 133.111 130.271 133.31 129.696C133.51 129.12 133.831 128.578 134.273 128.069C134.738 127.56 135.346 127.04 136.099 126.509C136.763 126.022 137.294 125.591 137.692 125.215C138.113 124.838 138.411 124.462 138.588 124.086C138.787 123.71 138.887 123.289 138.887 122.825C138.887 122.116 138.621 121.585 138.09 121.231C137.581 120.855 136.862 120.667 135.933 120.667C135.003 120.667 134.085 120.811 133.178 121.099C132.27 121.386 131.341 121.773 130.389 122.26L128.63 118.709C129.714 118.111 130.887 117.624 132.149 117.248C133.41 116.872 134.793 116.684 136.298 116.684C138.599 116.684 140.381 117.237 141.642 118.343C142.926 119.45 143.567 120.855 143.567 122.559C143.567 123.466 143.424 124.252 143.136 124.916C142.848 125.58 142.417 126.199 141.841 126.775C141.266 127.328 140.547 127.925 139.684 128.567C139.042 129.032 138.544 129.43 138.19 129.762C137.836 130.094 137.592 130.415 137.46 130.725C137.349 131.035 137.294 131.422 137.294 131.887V132.849L133.012 132.849V131.654ZM132.481 138.393C132.481 137.375 132.757 136.666 133.31 136.268C133.864 135.848 134.539 135.637 135.335 135.637C136.11 135.637 136.774 135.848 137.327 136.268C137.88 136.666 138.157 137.375 138.157 138.393C138.157 139.366 137.88 140.074 137.327 140.517C136.774 140.937 136.11 141.148 135.335 141.148C134.539 141.148 133.864 140.937 133.31 140.517C132.757 140.074 132.481 139.366 132.481 138.393Z" fill="white"/>
<rect width="56.9039" height="56.9039" rx="4.74199" transform="matrix(-1 8.74228e-08 8.74228e-08 1 236.5 99.1188)" fill="#475569"/>
<path d="M204.811 131.654C204.811 130.924 204.91 130.271 205.109 129.696C205.308 129.12 205.629 128.578 206.072 128.069C206.537 127.56 207.145 127.04 207.898 126.509C208.561 126.022 209.093 125.591 209.491 125.215C209.911 124.838 210.21 124.462 210.387 124.086C210.586 123.71 210.686 123.289 210.686 122.825C210.686 122.116 210.42 121.585 209.889 121.231C209.38 120.855 208.661 120.667 207.732 120.667C206.802 120.667 205.884 120.811 204.977 121.099C204.069 121.386 203.14 121.773 202.188 122.26L200.429 118.709C201.513 118.111 202.686 117.624 203.948 117.248C205.209 116.872 206.592 116.684 208.097 116.684C210.398 116.684 212.18 117.237 213.441 118.343C214.724 119.45 215.366 120.855 215.366 122.559C215.366 123.466 215.222 124.252 214.935 124.916C214.647 125.58 214.216 126.199 213.64 126.775C213.065 127.328 212.346 127.925 211.483 128.567C210.841 129.032 210.343 129.43 209.989 129.762C209.635 130.094 209.391 130.415 209.259 130.725C209.148 131.035 209.093 131.422 209.093 131.887V132.849L204.811 132.849V131.654ZM204.279 138.393C204.279 137.375 204.556 136.666 205.109 136.268C205.663 135.848 206.337 135.637 207.134 135.637C207.909 135.637 208.573 135.848 209.126 136.268C209.679 136.666 209.956 137.375 209.956 138.393C209.956 139.366 209.679 140.074 209.126 140.517C208.573 140.937 207.909 141.148 207.134 141.148C206.337 141.148 205.663 140.937 205.109 140.517C204.556 140.074 204.279 139.366 204.279 138.393Z" fill="white"/>
<rect width="56.9039" height="56.9039" rx="4.74199" transform="matrix(-1 8.74228e-08 8.74228e-08 1 308.298 99.1188)" fill="#475569"/>
<path d="M276.608 131.654C276.608 130.924 276.708 130.271 276.907 129.696C277.106 129.12 277.427 128.578 277.87 128.069C278.334 127.56 278.943 127.04 279.695 126.509C280.359 126.022 280.89 125.591 281.289 125.215C281.709 124.838 282.008 124.462 282.185 124.086C282.384 123.71 282.484 123.289 282.484 122.825C282.484 122.116 282.218 121.585 281.687 121.231C281.178 120.855 280.459 120.667 279.529 120.667C278.6 120.667 277.682 120.811 276.774 121.099C275.867 121.386 274.938 121.773 273.986 122.26L272.227 118.709C273.311 118.111 274.484 117.624 275.745 117.248C277.007 116.872 278.39 116.684 279.895 116.684C282.196 116.684 283.977 117.237 285.239 118.343C286.522 119.45 287.164 120.855 287.164 122.559C287.164 123.466 287.02 124.252 286.733 124.916C286.445 125.58 286.013 126.199 285.438 126.775C284.863 127.328 284.143 127.925 283.28 128.567C282.639 129.032 282.141 129.43 281.787 129.762C281.433 130.094 281.189 130.415 281.056 130.725C280.946 131.035 280.89 131.422 280.89 131.887V132.849L276.608 132.849V131.654ZM276.077 138.393C276.077 137.375 276.354 136.666 276.907 136.268C277.46 135.848 278.135 135.637 278.932 135.637C279.707 135.637 280.37 135.848 280.924 136.268C281.477 136.666 281.753 137.375 281.753 138.393C281.753 139.366 281.477 140.074 280.924 140.517C280.37 140.937 279.707 141.148 278.932 141.148C278.135 141.148 277.46 140.937 276.907 140.517C276.354 140.074 276.077 139.366 276.077 138.393Z" fill="white"/>
<rect width="56.9039" height="56.9039" rx="4.74199" transform="matrix(-1 8.74228e-08 8.74228e-08 1 380.097 99.1188)" fill="#475569"/>
<path d="M348.407 131.654C348.407 130.924 348.506 130.271 348.705 129.696C348.905 129.12 349.226 128.578 349.668 128.069C350.133 127.56 350.741 127.04 351.494 126.509C352.158 126.022 352.689 125.591 353.087 125.215C353.508 124.838 353.806 124.462 353.983 124.086C354.182 123.71 354.282 123.289 354.282 122.825C354.282 122.116 354.017 121.585 353.485 121.231C352.976 120.855 352.257 120.667 351.328 120.667C350.398 120.667 349.48 120.811 348.573 121.099C347.665 121.386 346.736 121.773 345.784 122.26L344.025 118.709C345.109 118.111 346.282 117.624 347.544 117.248C348.805 116.872 350.188 116.684 351.693 116.684C353.994 116.684 355.776 117.237 357.037 118.343C358.321 119.45 358.962 120.855 358.962 122.559C358.962 123.466 358.819 124.252 358.531 124.916C358.243 125.58 357.812 126.199 357.236 126.775C356.661 127.328 355.942 127.925 355.079 128.567C354.437 129.032 353.939 129.43 353.585 129.762C353.231 130.094 352.988 130.415 352.855 130.725C352.744 131.035 352.689 131.422 352.689 131.887V132.849L348.407 132.849V131.654ZM347.876 138.393C347.876 137.375 348.152 136.666 348.705 136.268C349.259 135.848 349.934 135.637 350.73 135.637C351.505 135.637 352.169 135.848 352.722 136.268C353.275 136.666 353.552 137.375 353.552 138.393C353.552 139.366 353.275 140.074 352.722 140.517C352.169 140.937 351.505 141.148 350.73 141.148C349.934 141.148 349.259 140.937 348.705 140.517C348.152 140.074 347.876 139.366 347.876 138.393Z" fill="white"/>
</g>
<path d="M99 192.167H98V193.167H99V192.167ZM316.38 192.167V193.167H317.38V192.167H316.38ZM206.983 226.387C207.373 226.777 208.006 226.777 208.397 226.387L214.761 220.023C215.151 219.632 215.151 218.999 214.761 218.608C214.37 218.218 213.737 218.218 213.347 218.608L207.69 224.265L202.033 218.608C201.642 218.218 201.009 218.218 200.619 218.608C200.228 218.999 200.228 219.632 200.619 220.023L206.983 226.387ZM98 176.769V179.335H100V176.769H98ZM98 189.6V192.167H100V189.6H98ZM99 193.167H101.013V191.167H99V193.167ZM109.064 193.167H113.089V191.167H109.064V193.167ZM121.141 193.167H125.166V191.167H121.141V193.167ZM133.217 193.167H137.243V191.167H133.217V193.167ZM145.294 193.167H149.319V191.167H145.294V193.167ZM157.37 193.167H161.396V191.167H157.37V193.167ZM169.447 193.167H173.473V191.167H169.447V193.167ZM181.524 193.167H185.549V191.167H181.524V193.167ZM193.6 193.167H197.626V191.167H193.6V193.167ZM205.677 193.167H207.69V191.167H205.677V193.167ZM207.69 193.167H209.703V191.167H207.69V193.167ZM217.754 193.167H221.779V191.167H217.754V193.167ZM229.83 193.167H233.856V191.167H229.83V193.167ZM241.907 193.167H245.932V191.167H241.907V193.167ZM253.984 193.167H258.009V191.167H253.984V193.167ZM266.06 193.167H270.086V191.167H266.06V193.167ZM278.137 193.167H282.162V191.167H278.137V193.167ZM290.213 193.167H294.239V191.167H290.213V193.167ZM302.29 193.167H306.316V191.167H302.29V193.167ZM314.367 193.167H316.38V191.167H314.367V193.167ZM317.38 192.167V189.6H315.38V192.167H317.38ZM317.38 179.335V176.769H315.38V179.335H317.38ZM206.69 192.167V194.029H208.69V192.167H206.69ZM206.69 201.476V205.199H208.69V201.476H206.69ZM206.69 212.647V216.37H208.69V212.647H206.69ZM206.69 223.818V225.679H208.69V223.818H206.69Z" fill="#E2E8F0"/>
</g>
<defs>
<clipPath id="clip0_101_255">
<rect width="416" height="366" fill="white"/>
</clipPath>
</defs>
</svg>
