<svg width="416" height="366" viewBox="0 0 416 366" fill="none" xmlns="http://www.w3.org/2000/svg">
<g clip-path="url(#clip0_101_173)">
<path d="M298.611 257.727L130.667 256.325C129.285 256.313 128.176 257.265 128.19 258.45L130.423 440.943C130.437 442.128 131.57 443.098 132.952 443.11L300.896 444.512C302.279 444.524 303.388 443.572 303.373 442.387L301.141 259.894C301.126 258.709 299.993 257.739 298.611 257.727Z" fill="white"/>
<path d="M298.624 258.799L130.68 257.397C129.989 257.391 129.435 257.867 129.442 258.46L131.675 440.953C131.682 441.546 132.248 442.031 132.939 442.037L300.883 443.439C301.574 443.445 302.129 442.969 302.121 442.376L299.889 259.883C299.881 259.29 299.315 258.805 298.624 258.799Z" stroke="#94A3B8" stroke-width="2"/>
<path d="M121.601 246.904L289.545 248.306C290.525 248.315 291.056 248.971 291.062 249.465L293.295 431.958C293.301 432.452 292.786 433.1 291.805 433.091L123.862 431.689C122.881 431.681 122.35 431.025 122.344 430.531L120.111 248.038C120.105 247.544 120.62 246.896 121.601 246.904Z" fill="white" stroke="#94A3B8" stroke-width="2"/>
<path d="M281.283 236.413L114.486 235.021C113.113 235.009 112.012 235.954 112.026 237.131L114.244 418.378C114.258 419.555 115.383 420.519 116.756 420.53L283.553 421.923C284.926 421.934 286.027 420.99 286.013 419.812L283.795 238.565C283.781 237.388 282.656 236.425 281.283 236.413Z" fill="white"/>
<path d="M135.803 271.673L260.115 272.711" stroke="#94A3B8" stroke-width="2" stroke-linecap="round"/>
<path d="M135.934 282.329L260.246 283.367" stroke="#94A3B8" stroke-width="2" stroke-linecap="round"/>
<path d="M136.064 292.985L260.376 294.023" stroke="#94A3B8" stroke-width="2" stroke-linecap="round"/>
<path d="M136.194 303.642L260.506 304.68" stroke="#94A3B8" stroke-width="2" stroke-linecap="round"/>
<path d="M136.324 314.299L260.636 315.336" stroke="#94A3B8" stroke-width="2" stroke-linecap="round"/>
<path d="M136.455 324.955L260.767 325.993" stroke="#94A3B8" stroke-width="2" stroke-linecap="round"/>
<path d="M136.586 335.611L260.898 336.649" stroke="#94A3B8" stroke-width="2" stroke-linecap="round"/>
<path d="M136.717 346.268L261.028 347.306" stroke="#94A3B8" stroke-width="2" stroke-linecap="round"/>
<path d="M136.847 356.924L197.759 357.433" stroke="#94A3B8" stroke-width="2" stroke-linecap="round"/>
<path d="M281.296 237.479L114.499 236.087C113.813 236.081 113.262 236.553 113.269 237.142L115.487 418.389C115.494 418.977 116.056 419.459 116.743 419.465L283.54 420.858C284.226 420.863 284.777 420.391 284.77 419.802L282.552 238.555C282.545 237.967 281.983 237.485 281.296 237.479Z" stroke="#94A3B8" stroke-width="2"/>
<g opacity="0.8">
<rect width="56.9039" height="56.9039" rx="4.74199" transform="matrix(-1 8.74228e-08 8.74228e-08 1 100.904 28)" fill="white"/>
<path d="M69.2139 60.5354C69.2139 59.8052 69.3135 59.1523 69.5126 58.577C69.7118 58.0016 70.0327 57.4595 70.4752 56.9505C70.94 56.4415 71.5485 55.9215 72.3009 55.3904C72.9648 54.9035 73.4959 54.472 73.8942 54.0958C74.3147 53.7196 74.6134 53.3434 74.7905 52.9672C74.9896 52.591 75.0892 52.1706 75.0892 51.7058C75.0892 50.9977 74.8236 50.4666 74.2925 50.1125C73.7836 49.7363 73.0644 49.5482 72.1349 49.5482C71.2055 49.5482 70.2871 49.6921 69.3798 49.9798C68.4725 50.2674 67.5431 50.6547 66.5916 51.1415L64.8323 47.5898C65.9166 46.9923 67.0895 46.5055 68.3508 46.1293C69.6122 45.7531 70.9953 45.565 72.5001 45.565C74.8015 45.565 76.5829 46.1182 77.8443 47.2247C79.1278 48.3311 79.7695 49.7363 79.7695 51.4403C79.7695 52.3476 79.6257 53.1332 79.338 53.7971C79.0503 54.4609 78.6188 55.0806 78.0435 55.6559C77.4681 56.2092 76.7489 56.8066 75.8859 57.4484C75.2441 57.9131 74.7462 58.3114 74.3921 58.6434C74.0381 58.9753 73.7946 59.2962 73.6619 59.606C73.5512 59.9158 73.4959 60.3031 73.4959 60.7678V61.7304L69.2139 61.7304V60.5354ZM68.6828 67.2738C68.6828 66.2558 68.9594 65.5477 69.5126 65.1494C70.0659 64.7289 70.7408 64.5187 71.5375 64.5187C72.312 64.5187 72.9759 64.7289 73.5291 65.1494C74.0823 65.5477 74.3589 66.2558 74.3589 67.2738C74.3589 68.2475 74.0823 68.9556 73.5291 69.3982C72.9759 69.8187 72.312 70.0289 71.5375 70.0289C70.7408 70.0289 70.0659 69.8187 69.5126 69.3982C68.9594 68.9556 68.6828 68.2475 68.6828 67.2738Z" fill="#475569"/>
<rect width="56.9039" height="56.9039" rx="4.74199" transform="matrix(-1 8.74228e-08 8.74228e-08 1 172.702 28)" fill="white"/>
<path d="M141.012 60.5354C141.012 59.8052 141.111 59.1523 141.31 58.577C141.51 58.0016 141.831 57.4595 142.273 56.9505C142.738 56.4415 143.346 55.9215 144.099 55.3904C144.763 54.9035 145.294 54.472 145.692 54.0958C146.113 53.7196 146.411 53.3434 146.588 52.9672C146.787 52.591 146.887 52.1706 146.887 51.7058C146.887 50.9977 146.621 50.4666 146.09 50.1125C145.581 49.7363 144.862 49.5482 143.933 49.5482C143.003 49.5482 142.085 49.6921 141.178 49.9798C140.27 50.2674 139.341 50.6547 138.389 51.1415L136.63 47.5898C137.714 46.9923 138.887 46.5055 140.149 46.1293C141.41 45.7531 142.793 45.565 144.298 45.565C146.599 45.565 148.381 46.1182 149.642 47.2247C150.926 48.3311 151.567 49.7363 151.567 51.4403C151.567 52.3476 151.424 53.1332 151.136 53.7971C150.848 54.4609 150.417 55.0806 149.841 55.6559C149.266 56.2092 148.547 56.8066 147.684 57.4484C147.042 57.9131 146.544 58.3114 146.19 58.6434C145.836 58.9753 145.592 59.2962 145.46 59.606C145.349 59.9158 145.294 60.3031 145.294 60.7678V61.7304L141.012 61.7304V60.5354ZM140.481 67.2738C140.481 66.2558 140.757 65.5477 141.31 65.1494C141.864 64.7289 142.539 64.5187 143.335 64.5187C144.11 64.5187 144.774 64.7289 145.327 65.1494C145.88 65.5477 146.157 66.2558 146.157 67.2738C146.157 68.2475 145.88 68.9556 145.327 69.3982C144.774 69.8187 144.11 70.0289 143.335 70.0289C142.539 70.0289 141.864 69.8187 141.31 69.3982C140.757 68.9556 140.481 68.2475 140.481 67.2738Z" fill="#475569"/>
<rect width="56.9039" height="56.9039" rx="4.74199" transform="matrix(-1 8.74228e-08 8.74228e-08 1 244.5 28)" fill="white"/>
<path d="M212.811 60.5354C212.811 59.8052 212.91 59.1523 213.109 58.577C213.308 58.0016 213.629 57.4595 214.072 56.9505C214.537 56.4415 215.145 55.9215 215.898 55.3904C216.561 54.9035 217.093 54.472 217.491 54.0958C217.911 53.7196 218.21 53.3434 218.387 52.9672C218.586 52.591 218.686 52.1706 218.686 51.7058C218.686 50.9977 218.42 50.4666 217.889 50.1125C217.38 49.7363 216.661 49.5482 215.732 49.5482C214.802 49.5482 213.884 49.6921 212.977 49.9798C212.069 50.2674 211.14 50.6547 210.188 51.1415L208.429 47.5898C209.513 46.9923 210.686 46.5055 211.948 46.1293C213.209 45.7531 214.592 45.565 216.097 45.565C218.398 45.565 220.18 46.1182 221.441 47.2247C222.724 48.3311 223.366 49.7363 223.366 51.4403C223.366 52.3476 223.222 53.1332 222.935 53.7971C222.647 54.4609 222.216 55.0806 221.64 55.6559C221.065 56.2092 220.346 56.8066 219.483 57.4484C218.841 57.9131 218.343 58.3114 217.989 58.6434C217.635 58.9753 217.391 59.2962 217.259 59.606C217.148 59.9158 217.093 60.3031 217.093 60.7678V61.7304L212.811 61.7304V60.5354ZM212.279 67.2738C212.279 66.2558 212.556 65.5477 213.109 65.1494C213.663 64.7289 214.337 64.5187 215.134 64.5187C215.909 64.5187 216.573 64.7289 217.126 65.1494C217.679 65.5477 217.956 66.2558 217.956 67.2738C217.956 68.2475 217.679 68.9556 217.126 69.3982C216.573 69.8187 215.909 70.0289 215.134 70.0289C214.337 70.0289 213.663 69.8187 213.109 69.3982C212.556 68.9556 212.279 68.2475 212.279 67.2738Z" fill="#475569"/>
<rect width="56.9039" height="56.9039" rx="4.74199" transform="matrix(-1 8.74228e-08 8.74228e-08 1 316.298 28)" fill="white"/>
<path d="M284.608 60.5354C284.608 59.8052 284.708 59.1523 284.907 58.577C285.106 58.0016 285.427 57.4595 285.87 56.9505C286.334 56.4415 286.943 55.9215 287.695 55.3904C288.359 54.9035 288.89 54.472 289.289 54.0958C289.709 53.7196 290.008 53.3434 290.185 52.9672C290.384 52.591 290.484 52.1706 290.484 51.7058C290.484 50.9977 290.218 50.4666 289.687 50.1125C289.178 49.7363 288.459 49.5482 287.529 49.5482C286.6 49.5482 285.682 49.6921 284.774 49.9798C283.867 50.2674 282.938 50.6547 281.986 51.1415L280.227 47.5898C281.311 46.9923 282.484 46.5055 283.745 46.1293C285.007 45.7531 286.39 45.565 287.895 45.565C290.196 45.565 291.977 46.1182 293.239 47.2247C294.522 48.3311 295.164 49.7363 295.164 51.4403C295.164 52.3476 295.02 53.1332 294.733 53.7971C294.445 54.4609 294.013 55.0806 293.438 55.6559C292.863 56.2092 292.143 56.8066 291.28 57.4484C290.639 57.9131 290.141 58.3114 289.787 58.6434C289.433 58.9753 289.189 59.2962 289.056 59.606C288.946 59.9158 288.89 60.3031 288.89 60.7678V61.7304L284.608 61.7304V60.5354ZM284.077 67.2738C284.077 66.2558 284.354 65.5477 284.907 65.1494C285.46 64.7289 286.135 64.5187 286.932 64.5187C287.707 64.5187 288.37 64.7289 288.924 65.1494C289.477 65.5477 289.753 66.2558 289.753 67.2738C289.753 68.2475 289.477 68.9556 288.924 69.3982C288.37 69.8187 287.707 70.0289 286.932 70.0289C286.135 70.0289 285.46 69.8187 284.907 69.3982C284.354 68.9556 284.077 68.2475 284.077 67.2738Z" fill="#475569"/>
<rect width="56.9039" height="56.9039" rx="4.74199" transform="matrix(-1 8.74228e-08 8.74228e-08 1 388.097 28)" fill="white"/>
<path d="M356.407 60.5354C356.407 59.8052 356.506 59.1523 356.705 58.577C356.905 58.0016 357.226 57.4595 357.668 56.9505C358.133 56.4415 358.741 55.9215 359.494 55.3904C360.158 54.9035 360.689 54.472 361.087 54.0958C361.508 53.7196 361.806 53.3434 361.983 52.9672C362.182 52.591 362.282 52.1706 362.282 51.7058C362.282 50.9977 362.017 50.4666 361.485 50.1125C360.976 49.7363 360.257 49.5482 359.328 49.5482C358.398 49.5482 357.48 49.6921 356.573 49.9798C355.665 50.2674 354.736 50.6547 353.784 51.1415L352.025 47.5898C353.109 46.9923 354.282 46.5055 355.544 46.1293C356.805 45.7531 358.188 45.565 359.693 45.565C361.994 45.565 363.776 46.1182 365.037 47.2247C366.321 48.3311 366.962 49.7363 366.962 51.4403C366.962 52.3476 366.819 53.1332 366.531 53.7971C366.243 54.4609 365.812 55.0806 365.236 55.6559C364.661 56.2092 363.942 56.8066 363.079 57.4484C362.437 57.9131 361.939 58.3114 361.585 58.6434C361.231 58.9753 360.988 59.2962 360.855 59.606C360.744 59.9158 360.689 60.3031 360.689 60.7678V61.7304L356.407 61.7304V60.5354ZM355.876 67.2738C355.876 66.2558 356.152 65.5477 356.705 65.1494C357.259 64.7289 357.934 64.5187 358.73 64.5187C359.505 64.5187 360.169 64.7289 360.722 65.1494C361.275 65.5477 361.552 66.2558 361.552 67.2738C361.552 68.2475 361.275 68.9556 360.722 69.3982C360.169 69.8187 359.505 70.0289 358.73 70.0289C357.934 70.0289 357.259 69.8187 356.705 69.3982C356.152 68.9556 355.876 68.2475 355.876 67.2738Z" fill="#475569"/>
<rect width="56.9039" height="56.9039" rx="4.74199" transform="matrix(-1 8.74228e-08 8.74228e-08 1 100.904 99.7982)" fill="white"/>
<path d="M69.2139 132.334C69.2139 131.603 69.3135 130.951 69.5126 130.375C69.7118 129.8 70.0327 129.258 70.4752 128.749C70.94 128.24 71.5485 127.72 72.3009 127.189C72.9648 126.702 73.4959 126.27 73.8942 125.894C74.3147 125.518 74.6134 125.142 74.7905 124.765C74.9896 124.389 75.0892 123.969 75.0892 123.504C75.0892 122.796 74.8236 122.265 74.2925 121.911C73.7836 121.535 73.0644 121.346 72.1349 121.346C71.2055 121.346 70.2871 121.49 69.3798 121.778C68.4725 122.066 67.5431 122.453 66.5916 122.94L64.8323 119.388C65.9166 118.791 67.0895 118.304 68.3508 117.927C69.6122 117.551 70.9953 117.363 72.5001 117.363C74.8015 117.363 76.5829 117.916 77.8443 119.023C79.1278 120.129 79.7695 121.535 79.7695 123.238C79.7695 124.146 79.6257 124.931 79.338 125.595C79.0503 126.259 78.6188 126.879 78.0435 127.454C77.4681 128.007 76.7489 128.605 75.8859 129.247C75.2441 129.711 74.7462 130.11 74.3921 130.442C74.0381 130.774 73.7946 131.094 73.6619 131.404C73.5512 131.714 73.4959 132.101 73.4959 132.566V133.529L69.2139 133.529V132.334ZM68.6828 139.072C68.6828 138.054 68.9594 137.346 69.5126 136.948C70.0659 136.527 70.7408 136.317 71.5375 136.317C72.312 136.317 72.9759 136.527 73.5291 136.948C74.0823 137.346 74.3589 138.054 74.3589 139.072C74.3589 140.046 74.0823 140.754 73.5291 141.196C72.9759 141.617 72.312 141.827 71.5375 141.827C70.7408 141.827 70.0659 141.617 69.5126 141.196C68.9594 140.754 68.6828 140.046 68.6828 139.072Z" fill="#475569"/>
<rect width="56.9039" height="56.9039" rx="4.74199" transform="matrix(-1 8.74228e-08 8.74228e-08 1 172.702 99.7982)" fill="white"/>
<path d="M141.012 132.334C141.012 131.603 141.111 130.951 141.31 130.375C141.51 129.8 141.831 129.258 142.273 128.749C142.738 128.24 143.346 127.72 144.099 127.189C144.763 126.702 145.294 126.27 145.692 125.894C146.113 125.518 146.411 125.142 146.588 124.765C146.787 124.389 146.887 123.969 146.887 123.504C146.887 122.796 146.621 122.265 146.09 121.911C145.581 121.535 144.862 121.346 143.933 121.346C143.003 121.346 142.085 121.49 141.178 121.778C140.27 122.066 139.341 122.453 138.389 122.94L136.63 119.388C137.714 118.791 138.887 118.304 140.149 117.927C141.41 117.551 142.793 117.363 144.298 117.363C146.599 117.363 148.381 117.916 149.642 119.023C150.926 120.129 151.567 121.535 151.567 123.238C151.567 124.146 151.424 124.931 151.136 125.595C150.848 126.259 150.417 126.879 149.841 127.454C149.266 128.007 148.547 128.605 147.684 129.247C147.042 129.711 146.544 130.11 146.19 130.442C145.836 130.774 145.592 131.094 145.46 131.404C145.349 131.714 145.294 132.101 145.294 132.566V133.529L141.012 133.529V132.334ZM140.481 139.072C140.481 138.054 140.757 137.346 141.31 136.948C141.864 136.527 142.539 136.317 143.335 136.317C144.11 136.317 144.774 136.527 145.327 136.948C145.88 137.346 146.157 138.054 146.157 139.072C146.157 140.046 145.88 140.754 145.327 141.196C144.774 141.617 144.11 141.827 143.335 141.827C142.539 141.827 141.864 141.617 141.31 141.196C140.757 140.754 140.481 140.046 140.481 139.072Z" fill="#475569"/>
<rect width="56.9039" height="56.9039" rx="4.74199" transform="matrix(-1 8.74228e-08 8.74228e-08 1 244.5 99.7982)" fill="white"/>
<path d="M212.811 132.334C212.811 131.603 212.91 130.951 213.109 130.375C213.308 129.8 213.629 129.258 214.072 128.749C214.537 128.24 215.145 127.72 215.898 127.189C216.561 126.702 217.093 126.27 217.491 125.894C217.911 125.518 218.21 125.142 218.387 124.765C218.586 124.389 218.686 123.969 218.686 123.504C218.686 122.796 218.42 122.265 217.889 121.911C217.38 121.535 216.661 121.346 215.732 121.346C214.802 121.346 213.884 121.49 212.977 121.778C212.069 122.066 211.14 122.453 210.188 122.94L208.429 119.388C209.513 118.791 210.686 118.304 211.948 117.927C213.209 117.551 214.592 117.363 216.097 117.363C218.398 117.363 220.18 117.916 221.441 119.023C222.724 120.129 223.366 121.535 223.366 123.238C223.366 124.146 223.222 124.931 222.935 125.595C222.647 126.259 222.216 126.879 221.64 127.454C221.065 128.007 220.346 128.605 219.483 129.247C218.841 129.711 218.343 130.11 217.989 130.442C217.635 130.774 217.391 131.094 217.259 131.404C217.148 131.714 217.093 132.101 217.093 132.566V133.529L212.811 133.529V132.334ZM212.279 139.072C212.279 138.054 212.556 137.346 213.109 136.948C213.663 136.527 214.337 136.317 215.134 136.317C215.909 136.317 216.573 136.527 217.126 136.948C217.679 137.346 217.956 138.054 217.956 139.072C217.956 140.046 217.679 140.754 217.126 141.196C216.573 141.617 215.909 141.827 215.134 141.827C214.337 141.827 213.663 141.617 213.109 141.196C212.556 140.754 212.279 140.046 212.279 139.072Z" fill="#475569"/>
<rect width="56.9039" height="56.9039" rx="4.74199" transform="matrix(-1 8.74228e-08 8.74228e-08 1 316.298 99.7982)" fill="white"/>
<path d="M284.608 132.334C284.608 131.603 284.708 130.951 284.907 130.375C285.106 129.8 285.427 129.258 285.87 128.749C286.334 128.24 286.943 127.72 287.695 127.189C288.359 126.702 288.89 126.27 289.289 125.894C289.709 125.518 290.008 125.142 290.185 124.765C290.384 124.389 290.484 123.969 290.484 123.504C290.484 122.796 290.218 122.265 289.687 121.911C289.178 121.535 288.459 121.346 287.529 121.346C286.6 121.346 285.682 121.49 284.774 121.778C283.867 122.066 282.938 122.453 281.986 122.94L280.227 119.388C281.311 118.791 282.484 118.304 283.745 117.927C285.007 117.551 286.39 117.363 287.895 117.363C290.196 117.363 291.977 117.916 293.239 119.023C294.522 120.129 295.164 121.535 295.164 123.238C295.164 124.146 295.02 124.931 294.733 125.595C294.445 126.259 294.013 126.879 293.438 127.454C292.863 128.007 292.143 128.605 291.28 129.247C290.639 129.711 290.141 130.11 289.787 130.442C289.433 130.774 289.189 131.094 289.056 131.404C288.946 131.714 288.89 132.101 288.89 132.566V133.529L284.608 133.529V132.334ZM284.077 139.072C284.077 138.054 284.354 137.346 284.907 136.948C285.46 136.527 286.135 136.317 286.932 136.317C287.707 136.317 288.37 136.527 288.924 136.948C289.477 137.346 289.753 138.054 289.753 139.072C289.753 140.046 289.477 140.754 288.924 141.196C288.37 141.617 287.707 141.827 286.932 141.827C286.135 141.827 285.46 141.617 284.907 141.196C284.354 140.754 284.077 140.046 284.077 139.072Z" fill="#475569"/>
<rect width="56.9039" height="56.9039" rx="4.74199" transform="matrix(-1 8.74228e-08 8.74228e-08 1 388.097 99.7982)" fill="white"/>
<path d="M356.407 132.334C356.407 131.603 356.506 130.951 356.705 130.375C356.905 129.8 357.226 129.258 357.668 128.749C358.133 128.24 358.741 127.72 359.494 127.189C360.158 126.702 360.689 126.27 361.087 125.894C361.508 125.518 361.806 125.142 361.983 124.765C362.182 124.389 362.282 123.969 362.282 123.504C362.282 122.796 362.017 122.265 361.485 121.911C360.976 121.535 360.257 121.346 359.328 121.346C358.398 121.346 357.48 121.49 356.573 121.778C355.665 122.066 354.736 122.453 353.784 122.94L352.025 119.388C353.109 118.791 354.282 118.304 355.544 117.927C356.805 117.551 358.188 117.363 359.693 117.363C361.994 117.363 363.776 117.916 365.037 119.023C366.321 120.129 366.962 121.535 366.962 123.238C366.962 124.146 366.819 124.931 366.531 125.595C366.243 126.259 365.812 126.879 365.236 127.454C364.661 128.007 363.942 128.605 363.079 129.247C362.437 129.711 361.939 130.11 361.585 130.442C361.231 130.774 360.988 131.094 360.855 131.404C360.744 131.714 360.689 132.101 360.689 132.566V133.529L356.407 133.529V132.334ZM355.876 139.072C355.876 138.054 356.152 137.346 356.705 136.948C357.259 136.527 357.934 136.317 358.73 136.317C359.505 136.317 360.169 136.527 360.722 136.948C361.275 137.346 361.552 138.054 361.552 139.072C361.552 140.046 361.275 140.754 360.722 141.196C360.169 141.617 359.505 141.827 358.73 141.827C357.934 141.827 357.259 141.617 356.705 141.196C356.152 140.754 355.876 140.046 355.876 139.072Z" fill="#475569"/>
</g>
<path d="M99 192.167H98V193.167H99V192.167ZM316.38 192.167V193.167H317.38V192.167H316.38ZM206.983 226.387C207.373 226.777 208.006 226.777 208.397 226.387L214.761 220.023C215.151 219.632 215.151 218.999 214.761 218.608C214.37 218.218 213.737 218.218 213.347 218.608L207.69 224.265L202.033 218.608C201.642 218.218 201.009 218.218 200.619 218.608C200.228 218.999 200.228 219.632 200.619 220.023L206.983 226.387ZM98 176.769V179.335H100V176.769H98ZM98 189.6V192.167H100V189.6H98ZM99 193.167H101.013V191.167H99V193.167ZM109.064 193.167H113.089V191.167H109.064V193.167ZM121.141 193.167H125.166V191.167H121.141V193.167ZM133.217 193.167H137.243V191.167H133.217V193.167ZM145.294 193.167H149.319V191.167H145.294V193.167ZM157.37 193.167H161.396V191.167H157.37V193.167ZM169.447 193.167H173.473V191.167H169.447V193.167ZM181.524 193.167H185.549V191.167H181.524V193.167ZM193.6 193.167H197.626V191.167H193.6V193.167ZM205.677 193.167H207.69V191.167H205.677V193.167ZM207.69 193.167H209.703V191.167H207.69V193.167ZM217.754 193.167H221.779V191.167H217.754V193.167ZM229.83 193.167H233.856V191.167H229.83V193.167ZM241.907 193.167H245.932V191.167H241.907V193.167ZM253.984 193.167H258.009V191.167H253.984V193.167ZM266.06 193.167H270.086V191.167H266.06V193.167ZM278.137 193.167H282.162V191.167H278.137V193.167ZM290.213 193.167H294.239V191.167H290.213V193.167ZM302.29 193.167H306.316V191.167H302.29V193.167ZM314.367 193.167H316.38V191.167H314.367V193.167ZM317.38 192.167V189.6H315.38V192.167H317.38ZM317.38 179.335V176.769H315.38V179.335H317.38ZM206.69 192.167V194.029H208.69V192.167H206.69ZM206.69 201.476V205.199H208.69V201.476H206.69ZM206.69 212.647V216.37H208.69V212.647H206.69ZM206.69 223.818V225.679H208.69V223.818H206.69Z" fill="#64748B"/>
</g>
<defs>
<clipPath id="clip0_101_173">
<rect width="416" height="366" fill="white"/>
</clipPath>
</defs>
</svg>
