<svg width="380" height="390" viewBox="0 0 380 390" fill="none" xmlns="http://www.w3.org/2000/svg">
<g clip-path="url(#clip0_331_10683)">
<path d="M273.123 265.735L119.713 264.241C118.45 264.229 117.437 265.243 117.45 266.506L119.49 460.965C119.503 462.228 120.538 463.262 121.8 463.274L275.211 464.769C276.474 464.781 277.487 463.767 277.473 462.504L275.434 268.044C275.421 266.782 274.386 265.748 273.123 265.735Z" fill="white"/>
<path d="M273.135 266.878L119.725 265.384C119.093 265.378 118.587 265.885 118.594 266.516L120.633 460.977C120.64 461.608 121.157 462.125 121.788 462.131L275.198 463.625C275.83 463.631 276.336 463.124 276.33 462.493L274.29 268.032C274.284 267.401 273.766 266.884 273.135 266.878Z" stroke="#94A3B8" stroke-width="2"/>
<path d="M111.43 254.137L264.841 255.631C265.551 255.638 266.133 256.22 266.141 256.931L268.18 451.39C268.188 452.101 267.618 452.671 266.907 452.665L113.497 451.17C112.786 451.163 112.204 450.582 112.197 449.871L110.157 255.411C110.15 254.701 110.72 254.13 111.43 254.137Z" fill="white" stroke="#94A3B8" stroke-width="2"/>
<path d="M257.295 243.024L104.932 241.54C103.678 241.528 102.672 242.535 102.685 243.789L104.711 436.921C104.724 438.175 105.751 439.202 107.005 439.214L259.368 440.698C260.622 440.711 261.628 439.704 261.615 438.449L259.59 245.317C259.576 244.063 258.549 243.036 257.295 243.024Z" fill="white"/>
<path d="M124.405 280.595L237.959 281.701" stroke="#94A3B8" stroke-width="2" stroke-linecap="round"/>
<path d="M124.523 291.95L238.078 293.056" stroke="#94A3B8" stroke-width="2" stroke-linecap="round"/>
<path d="M124.643 303.305L238.197 304.411" stroke="#94A3B8" stroke-width="2" stroke-linecap="round"/>
<path d="M124.762 314.661L238.316 315.768" stroke="#94A3B8" stroke-width="2" stroke-linecap="round"/>
<path d="M124.881 326.016L238.435 327.122" stroke="#94A3B8" stroke-width="2" stroke-linecap="round"/>
<path d="M125 337.371L238.554 338.477" stroke="#94A3B8" stroke-width="2" stroke-linecap="round"/>
<path d="M125.12 348.726L238.674 349.832" stroke="#94A3B8" stroke-width="2" stroke-linecap="round"/>
<path d="M125.239 360.083L238.793 361.189" stroke="#94A3B8" stroke-width="2" stroke-linecap="round"/>
<path d="M125.357 371.438L180.999 371.979" stroke="#94A3B8" stroke-width="2" stroke-linecap="round"/>
<path d="M257.307 244.16L104.944 242.676C104.317 242.67 103.814 243.173 103.821 243.8L105.846 436.933C105.853 437.56 106.366 438.073 106.994 438.079L259.356 439.563C259.983 439.569 260.486 439.066 260.48 438.439L258.454 245.306C258.448 244.679 257.934 244.166 257.307 244.16Z" stroke="#94A3B8" stroke-width="2"/>
<g opacity="0.8">
<rect width="56.9039" height="56.9039" rx="4.74199" transform="matrix(-1 8.74228e-08 8.74228e-08 1 74.9038 27.3206)" fill="white"/>
<path d="M43.2136 59.856C43.2136 59.1257 43.3132 58.4729 43.5124 57.8975C43.7115 57.3222 44.0324 56.78 44.475 56.271C44.9397 55.762 45.5483 55.242 46.3007 54.7109C46.9645 54.2241 47.4956 53.7925 47.894 53.4163C48.3144 53.0401 48.6132 52.6639 48.7902 52.2877C48.9894 51.9115 49.089 51.4911 49.089 51.0264C49.089 50.3182 48.8234 49.7871 48.2923 49.4331C47.7833 49.0569 47.0641 48.8688 46.1347 48.8688C45.2053 48.8688 44.2869 49.0126 43.3796 49.3003C42.4723 49.588 41.5429 49.9752 40.5913 50.4621L38.832 46.9103C39.9164 46.3128 41.0892 45.826 42.3506 45.4498C43.612 45.0736 44.995 44.8855 46.4998 44.8855C48.8013 44.8855 50.5827 45.4387 51.8441 46.5452C53.1275 47.6517 53.7693 49.0569 53.7693 50.7608C53.7693 51.6681 53.6255 52.4537 53.3378 53.1176C53.0501 53.7815 52.6186 54.4011 52.0432 54.9765C51.4679 55.5297 50.7487 56.1272 49.8856 56.7689C49.2439 57.2336 48.746 57.632 48.3919 57.9639C48.0378 58.2958 47.7944 58.6167 47.6616 58.9265C47.551 59.2363 47.4956 59.6236 47.4956 60.0883V61.0509L43.2136 61.0509V59.856ZM42.6825 66.5943C42.6825 65.5764 42.9591 64.8682 43.5124 64.4699C44.0656 64.0495 44.7406 63.8392 45.5372 63.8392C46.3117 63.8392 46.9756 64.0495 47.5288 64.4699C48.0821 64.8682 48.3587 65.5764 48.3587 66.5943C48.3587 67.568 48.0821 68.2762 47.5288 68.7187C46.9756 69.1392 46.3117 69.3494 45.5372 69.3494C44.7406 69.3494 44.0656 69.1392 43.5124 68.7187C42.9591 68.2762 42.6825 67.568 42.6825 66.5943Z" fill="#475569"/>
<rect width="56.9039" height="56.9039" rx="4.74199" transform="matrix(-1 8.74228e-08 8.74228e-08 1 146.702 27.3206)" fill="white"/>
<path d="M115.012 59.856C115.012 59.1257 115.112 58.4729 115.311 57.8975C115.51 57.3222 115.831 56.78 116.273 56.271C116.738 55.762 117.347 55.242 118.099 54.7109C118.763 54.2241 119.294 53.7925 119.692 53.4163C120.113 53.0401 120.412 52.6639 120.589 52.2877C120.788 51.9115 120.887 51.4911 120.887 51.0264C120.887 50.3182 120.622 49.7871 120.091 49.4331C119.582 49.0569 118.862 48.8688 117.933 48.8688C117.004 48.8688 116.085 49.0126 115.178 49.3003C114.271 49.588 113.341 49.9752 112.39 50.4621L110.63 46.9103C111.715 46.3128 112.888 45.826 114.149 45.4498C115.41 45.0736 116.793 44.8855 118.298 44.8855C120.6 44.8855 122.381 45.4387 123.642 46.5452C124.926 47.6517 125.568 49.0569 125.568 50.7608C125.568 51.6681 125.424 52.4537 125.136 53.1176C124.848 53.7815 124.417 54.4011 123.842 54.9765C123.266 55.5297 122.547 56.1272 121.684 56.7689C121.042 57.2336 120.544 57.632 120.19 57.9639C119.836 58.2958 119.593 58.6167 119.46 58.9265C119.349 59.2363 119.294 59.6236 119.294 60.0883V61.0509L115.012 61.0509V59.856ZM114.481 66.5943C114.481 65.5764 114.757 64.8682 115.311 64.4699C115.864 64.0495 116.539 63.8392 117.336 63.8392C118.11 63.8392 118.774 64.0495 119.327 64.4699C119.88 64.8682 120.157 65.5764 120.157 66.5943C120.157 67.568 119.88 68.2762 119.327 68.7187C118.774 69.1392 118.11 69.3494 117.336 69.3494C116.539 69.3494 115.864 69.1392 115.311 68.7187C114.757 68.2762 114.481 67.568 114.481 66.5943Z" fill="#475569"/>
<rect width="56.9039" height="56.9039" rx="4.74199" transform="matrix(-1 8.74228e-08 8.74228e-08 1 218.5 27.3206)" fill="white"/>
<path d="M186.81 59.856C186.81 59.1257 186.91 58.4729 187.109 57.8975C187.308 57.3222 187.629 56.78 188.072 56.271C188.536 55.762 189.145 55.242 189.897 54.7109C190.561 54.2241 191.092 53.7925 191.491 53.4163C191.911 53.0401 192.21 52.6639 192.387 52.2877C192.586 51.9115 192.686 51.4911 192.686 51.0264C192.686 50.3182 192.42 49.7871 191.889 49.4331C191.38 49.0569 190.661 48.8688 189.731 48.8688C188.802 48.8688 187.884 49.0126 186.976 49.3003C186.069 49.588 185.14 49.9752 184.188 50.4621L182.429 46.9103C183.513 46.3128 184.686 45.826 185.947 45.4498C187.209 45.0736 188.592 44.8855 190.097 44.8855C192.398 44.8855 194.179 45.4387 195.441 46.5452C196.724 47.6517 197.366 49.0569 197.366 50.7608C197.366 51.6681 197.222 52.4537 196.934 53.1176C196.647 53.7815 196.215 54.4011 195.64 54.9765C195.065 55.5297 194.345 56.1272 193.482 56.7689C192.841 57.2336 192.343 57.632 191.989 57.9639C191.634 58.2958 191.391 58.6167 191.258 58.9265C191.148 59.2363 191.092 59.6236 191.092 60.0883V61.0509L186.81 61.0509V59.856ZM186.279 66.5943C186.279 65.5764 186.556 64.8682 187.109 64.4699C187.662 64.0495 188.337 63.8392 189.134 63.8392C189.908 63.8392 190.572 64.0495 191.126 64.4699C191.679 64.8682 191.955 65.5764 191.955 66.5943C191.955 67.568 191.679 68.2762 191.126 68.7187C190.572 69.1392 189.908 69.3494 189.134 69.3494C188.337 69.3494 187.662 69.1392 187.109 68.7187C186.556 68.2762 186.279 67.568 186.279 66.5943Z" fill="#475569"/>
<rect width="56.9039" height="56.9039" rx="4.74199" transform="matrix(-1 8.74228e-08 8.74228e-08 1 290.298 27.3206)" fill="white"/>
<path d="M258.609 59.856C258.609 59.1257 258.708 58.4729 258.907 57.8975C259.107 57.3222 259.427 56.78 259.87 56.271C260.335 55.762 260.943 55.242 261.696 54.7109C262.36 54.2241 262.891 53.7925 263.289 53.4163C263.709 53.0401 264.008 52.6639 264.185 52.2877C264.384 51.9115 264.484 51.4911 264.484 51.0264C264.484 50.3182 264.218 49.7871 263.687 49.4331C263.178 49.0569 262.459 48.8688 261.53 48.8688C260.6 48.8688 259.682 49.0126 258.775 49.3003C257.867 49.588 256.938 49.9752 255.986 50.4621L254.227 46.9103C255.311 46.3128 256.484 45.826 257.746 45.4498C259.007 45.0736 260.39 44.8855 261.895 44.8855C264.196 44.8855 265.978 45.4387 267.239 46.5452C268.523 47.6517 269.164 49.0569 269.164 50.7608C269.164 51.6681 269.02 52.4537 268.733 53.1176C268.445 53.7815 268.014 54.4011 267.438 54.9765C266.863 55.5297 266.144 56.1272 265.281 56.7689C264.639 57.2336 264.141 57.632 263.787 57.9639C263.433 58.2958 263.189 58.6167 263.057 58.9265C262.946 59.2363 262.891 59.6236 262.891 60.0883V61.0509L258.609 61.0509V59.856ZM258.078 66.5943C258.078 65.5764 258.354 64.8682 258.907 64.4699C259.461 64.0495 260.136 63.8392 260.932 63.8392C261.707 63.8392 262.371 64.0495 262.924 64.4699C263.477 64.8682 263.754 65.5764 263.754 66.5943C263.754 67.568 263.477 68.2762 262.924 68.7187C262.371 69.1392 261.707 69.3494 260.932 69.3494C260.136 69.3494 259.461 69.1392 258.907 68.7187C258.354 68.2762 258.078 67.568 258.078 66.5943Z" fill="#475569"/>
<rect width="56.9039" height="56.9039" rx="4.74199" transform="matrix(-1 8.74228e-08 8.74228e-08 1 362.097 27.3206)" fill="white"/>
<path d="M330.407 59.856C330.407 59.1257 330.506 58.4729 330.705 57.8975C330.904 57.3222 331.225 56.78 331.668 56.271C332.133 55.762 332.741 55.242 333.494 54.7109C334.157 54.2241 334.689 53.7925 335.087 53.4163C335.507 53.0401 335.806 52.6639 335.983 52.2877C336.182 51.9115 336.282 51.4911 336.282 51.0264C336.282 50.3182 336.016 49.7871 335.485 49.4331C334.976 49.0569 334.257 48.8688 333.328 48.8688C332.398 48.8688 331.48 49.0126 330.572 49.3003C329.665 49.588 328.736 49.9752 327.784 50.4621L326.025 46.9103C327.109 46.3128 328.282 45.826 329.543 45.4498C330.805 45.0736 332.188 44.8855 333.693 44.8855C335.994 44.8855 337.776 45.4387 339.037 46.5452C340.32 47.6517 340.962 49.0569 340.962 50.7608C340.962 51.6681 340.818 52.4537 340.531 53.1176C340.243 53.7815 339.811 54.4011 339.236 54.9765C338.661 55.5297 337.942 56.1272 337.078 56.7689C336.437 57.2336 335.939 57.632 335.585 57.9639C335.231 58.2958 334.987 58.6167 334.854 58.9265C334.744 59.2363 334.689 59.6236 334.689 60.0883V61.0509L330.407 61.0509V59.856ZM329.875 66.5943C329.875 65.5764 330.152 64.8682 330.705 64.4699C331.258 64.0495 331.933 63.8392 332.73 63.8392C333.505 63.8392 334.168 64.0495 334.722 64.4699C335.275 64.8682 335.552 65.5764 335.552 66.5943C335.552 67.568 335.275 68.2762 334.722 68.7187C334.168 69.1392 333.505 69.3494 332.73 69.3494C331.933 69.3494 331.258 69.1392 330.705 68.7187C330.152 68.2762 329.875 67.568 329.875 66.5943Z" fill="#475569"/>
<rect width="56.9039" height="56.9039" rx="4.74199" transform="matrix(-1 8.74228e-08 8.74228e-08 1 74.9038 99.1188)" fill="white"/>
<path d="M43.2136 131.654C43.2136 130.924 43.3132 130.271 43.5124 129.696C43.7115 129.12 44.0324 128.578 44.475 128.069C44.9397 127.56 45.5483 127.04 46.3007 126.509C46.9645 126.022 47.4956 125.591 47.894 125.215C48.3144 124.838 48.6132 124.462 48.7902 124.086C48.9894 123.71 49.089 123.289 49.089 122.825C49.089 122.116 48.8234 121.585 48.2923 121.231C47.7833 120.855 47.0641 120.667 46.1347 120.667C45.2053 120.667 44.2869 120.811 43.3796 121.099C42.4723 121.386 41.5429 121.773 40.5913 122.26L38.832 118.709C39.9164 118.111 41.0892 117.624 42.3506 117.248C43.612 116.872 44.995 116.684 46.4998 116.684C48.8013 116.684 50.5827 117.237 51.8441 118.343C53.1275 119.45 53.7693 120.855 53.7693 122.559C53.7693 123.466 53.6255 124.252 53.3378 124.916C53.0501 125.58 52.6186 126.199 52.0432 126.775C51.4679 127.328 50.7487 127.925 49.8856 128.567C49.2439 129.032 48.746 129.43 48.3919 129.762C48.0378 130.094 47.7944 130.415 47.6616 130.725C47.551 131.035 47.4956 131.422 47.4956 131.887V132.849L43.2136 132.849V131.654ZM42.6825 138.393C42.6825 137.375 42.9591 136.666 43.5124 136.268C44.0656 135.848 44.7406 135.637 45.5372 135.637C46.3117 135.637 46.9756 135.848 47.5288 136.268C48.0821 136.666 48.3587 137.375 48.3587 138.393C48.3587 139.366 48.0821 140.074 47.5288 140.517C46.9756 140.937 46.3117 141.148 45.5372 141.148C44.7406 141.148 44.0656 140.937 43.5124 140.517C42.9591 140.074 42.6825 139.366 42.6825 138.393Z" fill="#475569"/>
<rect width="56.9039" height="56.9039" rx="4.74199" transform="matrix(-1 8.74228e-08 8.74228e-08 1 146.702 99.1188)" fill="white"/>
<path d="M115.012 131.654C115.012 130.924 115.112 130.271 115.311 129.696C115.51 129.12 115.831 128.578 116.273 128.069C116.738 127.56 117.347 127.04 118.099 126.509C118.763 126.022 119.294 125.591 119.692 125.215C120.113 124.838 120.412 124.462 120.589 124.086C120.788 123.71 120.887 123.289 120.887 122.825C120.887 122.116 120.622 121.585 120.091 121.231C119.582 120.855 118.862 120.667 117.933 120.667C117.004 120.667 116.085 120.811 115.178 121.099C114.271 121.386 113.341 121.773 112.39 122.26L110.63 118.709C111.715 118.111 112.888 117.624 114.149 117.248C115.41 116.872 116.793 116.684 118.298 116.684C120.6 116.684 122.381 117.237 123.642 118.343C124.926 119.45 125.568 120.855 125.568 122.559C125.568 123.466 125.424 124.252 125.136 124.916C124.848 125.58 124.417 126.199 123.842 126.775C123.266 127.328 122.547 127.925 121.684 128.567C121.042 129.032 120.544 129.43 120.19 129.762C119.836 130.094 119.593 130.415 119.46 130.725C119.349 131.035 119.294 131.422 119.294 131.887V132.849L115.012 132.849V131.654ZM114.481 138.393C114.481 137.375 114.757 136.666 115.311 136.268C115.864 135.848 116.539 135.637 117.336 135.637C118.11 135.637 118.774 135.848 119.327 136.268C119.88 136.666 120.157 137.375 120.157 138.393C120.157 139.366 119.88 140.074 119.327 140.517C118.774 140.937 118.11 141.148 117.336 141.148C116.539 141.148 115.864 140.937 115.311 140.517C114.757 140.074 114.481 139.366 114.481 138.393Z" fill="#475569"/>
<rect width="56.9039" height="56.9039" rx="4.74199" transform="matrix(-1 8.74228e-08 8.74228e-08 1 218.5 99.1188)" fill="white"/>
<path d="M186.81 131.654C186.81 130.924 186.91 130.271 187.109 129.696C187.308 129.12 187.629 128.578 188.072 128.069C188.536 127.56 189.145 127.04 189.897 126.509C190.561 126.022 191.092 125.591 191.491 125.215C191.911 124.838 192.21 124.462 192.387 124.086C192.586 123.71 192.686 123.289 192.686 122.825C192.686 122.116 192.42 121.585 191.889 121.231C191.38 120.855 190.661 120.667 189.731 120.667C188.802 120.667 187.884 120.811 186.976 121.099C186.069 121.386 185.14 121.773 184.188 122.26L182.429 118.709C183.513 118.111 184.686 117.624 185.947 117.248C187.209 116.872 188.592 116.684 190.097 116.684C192.398 116.684 194.179 117.237 195.441 118.343C196.724 119.45 197.366 120.855 197.366 122.559C197.366 123.466 197.222 124.252 196.934 124.916C196.647 125.58 196.215 126.199 195.64 126.775C195.065 127.328 194.345 127.925 193.482 128.567C192.841 129.032 192.343 129.43 191.989 129.762C191.634 130.094 191.391 130.415 191.258 130.725C191.148 131.035 191.092 131.422 191.092 131.887V132.849L186.81 132.849V131.654ZM186.279 138.393C186.279 137.375 186.556 136.666 187.109 136.268C187.662 135.848 188.337 135.637 189.134 135.637C189.908 135.637 190.572 135.848 191.126 136.268C191.679 136.666 191.955 137.375 191.955 138.393C191.955 139.366 191.679 140.074 191.126 140.517C190.572 140.937 189.908 141.148 189.134 141.148C188.337 141.148 187.662 140.937 187.109 140.517C186.556 140.074 186.279 139.366 186.279 138.393Z" fill="#475569"/>
<rect width="56.9039" height="56.9039" rx="4.74199" transform="matrix(-1 8.74228e-08 8.74228e-08 1 290.298 99.1188)" fill="white"/>
<path d="M258.609 131.654C258.609 130.924 258.708 130.271 258.907 129.696C259.107 129.12 259.427 128.578 259.87 128.069C260.335 127.56 260.943 127.04 261.696 126.509C262.36 126.022 262.891 125.591 263.289 125.215C263.709 124.838 264.008 124.462 264.185 124.086C264.384 123.71 264.484 123.289 264.484 122.825C264.484 122.116 264.218 121.585 263.687 121.231C263.178 120.855 262.459 120.667 261.53 120.667C260.6 120.667 259.682 120.811 258.775 121.099C257.867 121.386 256.938 121.773 255.986 122.26L254.227 118.709C255.311 118.111 256.484 117.624 257.746 117.248C259.007 116.872 260.39 116.684 261.895 116.684C264.196 116.684 265.978 117.237 267.239 118.343C268.523 119.45 269.164 120.855 269.164 122.559C269.164 123.466 269.02 124.252 268.733 124.916C268.445 125.58 268.014 126.199 267.438 126.775C266.863 127.328 266.144 127.925 265.281 128.567C264.639 129.032 264.141 129.43 263.787 129.762C263.433 130.094 263.189 130.415 263.057 130.725C262.946 131.035 262.891 131.422 262.891 131.887V132.849L258.609 132.849V131.654ZM258.078 138.393C258.078 137.375 258.354 136.666 258.907 136.268C259.461 135.848 260.136 135.637 260.932 135.637C261.707 135.637 262.371 135.848 262.924 136.268C263.477 136.666 263.754 137.375 263.754 138.393C263.754 139.366 263.477 140.074 262.924 140.517C262.371 140.937 261.707 141.148 260.932 141.148C260.136 141.148 259.461 140.937 258.907 140.517C258.354 140.074 258.078 139.366 258.078 138.393Z" fill="#475569"/>
<rect width="56.9039" height="56.9039" rx="4.74199" transform="matrix(-1 8.74228e-08 8.74228e-08 1 362.097 99.1188)" fill="white"/>
<path d="M330.407 131.654C330.407 130.924 330.506 130.271 330.705 129.696C330.904 129.12 331.225 128.578 331.668 128.069C332.133 127.56 332.741 127.04 333.494 126.509C334.157 126.022 334.689 125.591 335.087 125.215C335.507 124.838 335.806 124.462 335.983 124.086C336.182 123.71 336.282 123.289 336.282 122.825C336.282 122.116 336.016 121.585 335.485 121.231C334.976 120.855 334.257 120.667 333.328 120.667C332.398 120.667 331.48 120.811 330.572 121.099C329.665 121.386 328.736 121.773 327.784 122.26L326.025 118.709C327.109 118.111 328.282 117.624 329.543 117.248C330.805 116.872 332.188 116.684 333.693 116.684C335.994 116.684 337.776 117.237 339.037 118.343C340.32 119.45 340.962 120.855 340.962 122.559C340.962 123.466 340.818 124.252 340.531 124.916C340.243 125.58 339.811 126.199 339.236 126.775C338.661 127.328 337.942 127.925 337.078 128.567C336.437 129.032 335.939 129.43 335.585 129.762C335.231 130.094 334.987 130.415 334.854 130.725C334.744 131.035 334.689 131.422 334.689 131.887V132.849L330.407 132.849V131.654ZM329.875 138.393C329.875 137.375 330.152 136.666 330.705 136.268C331.258 135.848 331.933 135.637 332.73 135.637C333.505 135.637 334.168 135.848 334.722 136.268C335.275 136.666 335.552 137.375 335.552 138.393C335.552 139.366 335.275 140.074 334.722 140.517C334.168 140.937 333.505 141.148 332.73 141.148C331.933 141.148 331.258 140.937 330.705 140.517C330.152 140.074 329.875 139.366 329.875 138.393Z" fill="#475569"/>
</g>
<path d="M81 192.167H80V193.167H81V192.167ZM298.38 192.167V193.167H299.38V192.167H298.38ZM188.983 226.387C189.373 226.777 190.006 226.777 190.397 226.387L196.761 220.023C197.151 219.632 197.151 218.999 196.761 218.608C196.37 218.218 195.737 218.218 195.347 218.608L189.69 224.265L184.033 218.608C183.642 218.218 183.009 218.218 182.619 218.608C182.228 218.999 182.228 219.632 182.619 220.023L188.983 226.387ZM80 176.769V179.335H82V176.769H80ZM80 189.6V192.167H82V189.6H80ZM81 193.167H83.0128V191.167H81V193.167ZM91.0639 193.167H95.0894V191.167H91.0639V193.167ZM103.141 193.167H107.166V191.167H103.141V193.167ZM115.217 193.167H119.243V191.167H115.217V193.167ZM127.294 193.167H131.319V191.167H127.294V193.167ZM139.37 193.167H143.396V191.167H139.37V193.167ZM151.447 193.167H155.473V191.167H151.447V193.167ZM163.524 193.167H167.549V191.167H163.524V193.167ZM175.6 193.167H179.626V191.167H175.6V193.167ZM187.677 193.167H189.69V191.167H187.677V193.167ZM189.69 193.167H191.703V191.167H189.69V193.167ZM199.754 193.167H203.779V191.167H199.754V193.167ZM211.83 193.167H215.856V191.167H211.83V193.167ZM223.907 193.167H227.932V191.167H223.907V193.167ZM235.984 193.167H240.009V191.167H235.984V193.167ZM248.06 193.167H252.086V191.167H248.06V193.167ZM260.137 193.167H264.162V191.167H260.137V193.167ZM272.213 193.167H276.239V191.167H272.213V193.167ZM284.29 193.167H288.316V191.167H284.29V193.167ZM296.367 193.167H298.38V191.167H296.367V193.167ZM299.38 192.167V189.6H297.38V192.167H299.38ZM299.38 179.335V176.769H297.38V179.335H299.38ZM188.69 192.167V194.029H190.69V192.167H188.69ZM188.69 201.476V205.199H190.69V201.476H188.69ZM188.69 212.647V216.37H190.69V212.647H188.69ZM188.69 223.818V225.679H190.69V223.818H188.69Z" fill="#64748B"/>
</g>
<defs>
<clipPath id="clip0_331_10683">
<rect width="380" height="390" fill="white"/>
</clipPath>
</defs>
</svg>
